<svg width="22" height="20" viewBox="0 0 22 20" fill="none" xmlns="http://www.w3.org/2000/svg">
<path d="M17 12.9922V15.9922H14V12.9922H17ZM17 11H14C13.4531 11 12.9844 11.1953 12.5938 11.5859C12.2031 11.9766 12.0078 12.4453 12.0078 12.9922V15.9922C12.0078 16.5547 12.2031 17.0312 12.5938 17.4219C12.9844 17.8125 13.4531 18.0078 14 18.0078H17C17.5469 18.0078 18.0156 17.8125 18.4062 17.4219C18.7969 17.0312 18.9922 16.5547 18.9922 15.9922V12.9922C18.9922 12.4453 18.7969 11.9766 18.4062 11.5859C18.0156 11.1953 17.5469 11 17 11ZM8 2V6.99219H3.00781V2H8ZM8 0.0078125H3.00781C2.44531 0.0078125 1.96875 0.203125 1.57812 0.59375C1.1875 0.984375 0.992188 1.45312 0.992188 2V6.99219C0.992188 7.55469 1.1875 8.03125 1.57812 8.42188C1.96875 8.8125 2.44531 9.00781 3.00781 9.00781H8C8.54688 9.00781 9.01562 8.8125 9.40625 8.42188C9.79688 8.03125 9.99219 7.55469 9.99219 6.99219V2C9.99219 1.45312 9.79688 0.984375 9.40625 0.59375C9.01562 0.203125 8.54688 0.0078125 8 0.0078125ZM18.9922 2V6.99219H14V2H18.9922ZM18.9922 0.0078125H14C13.4531 0.0078125 12.9844 0.203125 12.5938 0.59375C12.2031 0.984375 12.0078 1.45312 12.0078 2V6.99219C12.0078 7.55469 12.2031 8.03125 12.5938 8.42188C12.9844 8.8125 13.4531 9.00781 14 9.00781H18.9922C19.5547 9.00781 20.0312 8.8125 20.4219 8.42188C20.8125 8.03125 21.0078 7.55469 21.0078 6.99219V2C21.0078 1.45312 20.8125 0.984375 20.4219 0.59375C20.0312 0.203125 19.5547 0.0078125 18.9922 0.0078125ZM8 12.9922V18.0078H3.00781V12.9922H8ZM8 11H3.00781C2.44531 11 1.96875 11.1953 1.57812 11.5859C1.1875 11.9766 0.992188 12.4453 0.992188 12.9922V18.0078C0.992188 18.5547 1.1875 19.0234 1.57812 19.4141C1.96875 19.8047 2.44531 20 3.00781 20H8C8.54688 20 9.01562 19.8047 9.40625 19.4141C9.79688 19.0234 9.99219 18.5547 9.99219 18.0078V12.9922C9.99219 12.4453 9.79688 11.9766 9.40625 11.5859C9.01562 11.1953 8.54688 11 8 11Z" fill="#8091A7"/>
</svg>
