<svg width="18" height="19" viewBox="0 0 18 19" fill="none" xmlns="http://www.w3.org/2000/svg">
<path d="M18 3.78125V16.2266C18 16.9922 17.7266 17.6484 17.1797 18.1953C16.6484 18.7266 15.9922 18.9922 15.2109 18.9922H11.6719C11.3906 18.9922 11.1484 18.8984 10.9453 18.7109C10.7578 18.5078 10.6641 18.2734 10.6641 18.0078C10.6641 17.7266 10.7578 17.4922 10.9453 17.3047C11.1484 17.1016 11.3906 17 11.6719 17H15.2109C15.4297 17 15.6172 16.9297 15.7734 16.7891C15.9297 16.6328 16.0078 16.4453 16.0078 16.2266V3.78125C16.0078 3.5625 15.9297 3.38281 15.7734 3.24219C15.6172 3.08594 15.4297 3.00781 15.2109 3.00781H11.6719C11.3906 3.00781 11.1484 2.91406 10.9453 2.72656C10.7578 2.52344 10.6641 2.28125 10.6641 2C10.6641 1.71875 10.7578 1.48438 10.9453 1.29688C11.1484 1.09375 11.3906 0.992188 11.6719 0.992188H15.2109C15.9922 0.992188 16.6484 1.26562 17.1797 1.8125C17.7266 2.35938 18 3.01563 18 3.78125ZM12.5859 10.3906C12.6172 10.3281 12.6328 10.2656 12.6328 10.2031C12.6484 10.1406 12.6562 10.0703 12.6562 9.99219C12.6562 9.86719 12.6328 9.74219 12.5859 9.61719C12.5391 9.49219 12.4688 9.38281 12.375 9.28906L7.92188 4.85938C7.82812 4.76562 7.71875 4.69531 7.59375 4.64844C7.48438 4.58594 7.35938 4.55469 7.21875 4.55469C6.9375 4.55469 6.69531 4.65625 6.49219 4.85938C6.30469 5.04688 6.21094 5.27344 6.21094 5.53906C6.21094 5.67969 6.23438 5.8125 6.28125 5.9375C6.34375 6.0625 6.42188 6.17188 6.51562 6.26562L9.25781 9.00781H1.00781C0.726562 9.00781 0.484375 9.10938 0.28125 9.3125C0.09375 9.5 0 9.72656 0 9.99219C0 10.2734 0.09375 10.5156 0.28125 10.7188C0.484375 10.9062 0.726562 11 1.00781 11H9.25781L6.51562 13.7422C6.42188 13.8359 6.34375 13.9453 6.28125 14.0703C6.23438 14.1797 6.21094 14.3047 6.21094 14.4453C6.21094 14.7266 6.30469 14.9688 6.49219 15.1719C6.69531 15.3594 6.9375 15.4531 7.21875 15.4531C7.35938 15.4531 7.48438 15.4297 7.59375 15.3828C7.71875 15.3203 7.82812 15.2422 7.92188 15.1484L12.375 10.7188C12.4219 10.6719 12.4609 10.625 12.4922 10.5781C12.5234 10.5156 12.5547 10.4531 12.5859 10.3906Z" fill="#8091A7"/>
</svg>
