<svg width="32" height="32" viewBox="0 0 32 32" fill="none" xmlns="http://www.w3.org/2000/svg">
<rect width="32" height="32" rx="16" fill="#6576FF"/>
<path d="M19.5039 21C19.3633 21 19.2422 20.9531 19.1406 20.8594C19.0469 20.7578 19 20.6367 19 20.4961V19.1719C19 18.5938 18.875 18.0898 18.625 17.6602C18.375 17.2227 18.082 17.0039 17.7461 17.0039H14.2539C13.918 17.0039 13.625 17.2227 13.375 17.6602C13.125 18.0898 13 18.5938 13 19.1719V20.4961C13 20.6367 12.9492 20.7578 12.8477 20.8594C12.7539 20.9531 12.6367 21 12.4961 21C12.3633 21 12.2461 20.9531 12.1445 20.8594C12.0508 20.7578 12.0039 20.6367 12.0039 20.4961V19.1719C12.0039 18.7266 12.0625 18.3086 12.1797 17.918C12.2891 17.5352 12.4453 17.2031 12.6484 16.9219C12.8516 16.6328 13.0898 16.4062 13.3633 16.2422C13.6367 16.0781 13.9336 15.9961 14.2539 15.9961H17.7461C18.0664 15.9961 18.3633 16.0781 18.6367 16.2422C18.9102 16.4062 19.1484 16.6328 19.3516 16.9219C19.5547 17.2031 19.7109 17.5352 19.8203 17.918C19.9375 18.3086 19.9961 18.7266 19.9961 19.1719V20.4961C19.9961 20.6367 19.9453 20.7578 19.8438 20.8594C19.75 20.9531 19.6367 21 19.5039 21ZM17.6875 14.1797C17.8203 14.0391 17.9258 13.8789 18.0039 13.6992C18.082 13.5195 18.1211 13.3242 18.1211 13.1133C18.1211 13.082 18.1211 13.0547 18.1211 13.0312C18.1211 13 18.1172 12.9727 18.1094 12.9492V12.9609C18.0547 12.4141 17.8281 11.957 17.4297 11.5898C17.0312 11.2148 16.5547 11.0195 16 11.0039C15.4453 11.0195 14.9648 11.2188 14.5586 11.6016C14.1602 11.9766 13.9375 12.4336 13.8906 12.9727V12.9844C13.8828 13.0078 13.8789 13.0312 13.8789 13.0547C13.8789 13.0703 13.8789 13.0898 13.8789 13.1133C13.8789 13.3242 13.918 13.5234 13.9961 13.7109C14.0742 13.8906 14.1797 14.0469 14.3125 14.1797C14.5156 14.3594 14.7461 14.5039 15.0039 14.6133C15.2695 14.7148 15.5469 14.7656 15.8359 14.7656C15.8672 14.7656 15.8945 14.7656 15.918 14.7656C15.9492 14.7656 15.9805 14.7656 16.0117 14.7656H16C16.0156 14.7656 16.0312 14.7656 16.0469 14.7656C16.0703 14.7656 16.0938 14.7656 16.1172 14.7656C16.125 14.7656 16.1328 14.7656 16.1406 14.7656C16.1562 14.7656 16.1719 14.7656 16.1875 14.7656C16.4766 14.7656 16.75 14.7148 17.0078 14.6133C17.2656 14.5039 17.4922 14.3594 17.6875 14.1797ZM15.9766 13.7578C15.9531 13.7656 15.9297 13.7695 15.9062 13.7695C15.8906 13.7695 15.8711 13.7695 15.8477 13.7695C15.6914 13.7695 15.543 13.7461 15.4023 13.6992C15.2617 13.6445 15.1367 13.5703 15.0273 13.4766C14.9805 13.4297 14.9414 13.3789 14.9102 13.3242C14.8867 13.2617 14.875 13.1953 14.875 13.125C14.875 13.1172 14.875 13.1094 14.875 13.1016C14.875 13.0938 14.875 13.0859 14.875 13.0781C14.9062 12.7891 15.0273 12.543 15.2383 12.3398C15.4492 12.1289 15.7031 12.0156 16 12C16.2891 12.0156 16.5391 12.125 16.75 12.3281C16.9609 12.5234 17.082 12.7617 17.1133 13.043V13.0547C17.1133 13.0625 17.1133 13.0742 17.1133 13.0898C17.1211 13.0977 17.125 13.1055 17.125 13.1133C17.125 13.1836 17.1094 13.25 17.0781 13.3125C17.0547 13.375 17.0195 13.4297 16.9727 13.4766C16.8633 13.5703 16.7383 13.6445 16.5977 13.6992C16.457 13.7461 16.3086 13.7695 16.1523 13.7695C16.1289 13.7695 16.1055 13.7695 16.082 13.7695C16.0664 13.7695 16.0469 13.7656 16.0234 13.7578C16.0234 13.7578 16.0195 13.7578 16.0117 13.7578C16.0117 13.7578 16.0078 13.7578 16 13.7578C15.9922 13.7578 15.9844 13.7578 15.9766 13.7578Z" fill="white"/>
</svg>
