<svg width="22" height="21" viewBox="0 0 22 21" fill="none" xmlns="http://www.w3.org/2000/svg">
<path d="M1.97656 20.8828C1.69531 20.8828 1.45312 20.7891 1.25 20.6016C1.0625 20.3984 0.96875 20.1562 0.96875 19.875C0.96875 19.8438 0.96875 19.8125 0.96875 19.7812C0.984375 19.75 0.992188 19.7188 0.992188 19.6875C1.19531 18.6094 1.57031 17.6094 2.11719 16.6875C2.66406 15.7656 3.33594 14.9688 4.13281 14.2969C4.92969 13.6094 5.83594 13.0781 6.85156 12.7031C7.86719 12.3125 8.9375 12.1172 10.0625 12.1172C10.3438 12.1172 10.5781 12.2188 10.7656 12.4219C10.9688 12.6094 11.0703 12.8438 11.0703 13.125C11.0703 13.3906 10.9688 13.625 10.7656 13.8281C10.5781 14.0156 10.3438 14.1094 10.0625 14.1094C9.25 14.125 8.47656 14.2578 7.74219 14.5078C6.99219 14.7734 6.3125 15.1328 5.70312 15.5859C5.10938 16.0391 4.59375 16.5859 4.15625 17.2266C3.70312 17.8516 3.36719 18.5312 3.14844 19.2656L3.125 19.3359C3.09375 19.4297 3.0625 19.5391 3.03125 19.6641C3.01562 19.7734 2.99219 19.8906 2.96094 20.0156V20.0625C2.91406 20.2969 2.79688 20.4922 2.60938 20.6484C2.4375 20.8047 2.22656 20.8828 1.97656 20.8828ZM14.8672 5.67188C14.8672 5.01562 14.7422 4.39844 14.4922 3.82031C14.2422 3.22656 13.8984 2.71875 13.4609 2.29688C13.0234 1.85938 12.5156 1.50781 11.9375 1.24219C11.3594 0.992188 10.7344 0.867188 10.0625 0.867188C9.40625 0.867188 8.78125 0.992188 8.1875 1.24219C7.60938 1.50781 7.10156 1.85938 6.66406 2.29688C6.22656 2.71875 5.88281 3.22656 5.63281 3.82031C5.38281 4.39844 5.25781 5.01562 5.25781 5.67188C5.25781 6.34375 5.38281 6.96875 5.63281 7.54688C5.88281 8.14062 6.22656 8.65625 6.66406 9.09375C7.10156 9.51562 7.60938 9.85156 8.1875 10.1016C8.78125 10.3672 9.40625 10.5 10.0625 10.5C10.7344 10.5 11.3594 10.3672 11.9375 10.1016C12.5156 9.85156 13.0234 9.51562 13.4609 9.09375C13.8984 8.65625 14.2422 8.14062 14.4922 7.54688C14.7422 6.96875 14.8672 6.34375 14.8672 5.67188ZM12.875 5.67188C12.875 6.45312 12.6016 7.11719 12.0547 7.66406C11.5078 8.21094 10.8438 8.48438 10.0625 8.48438C9.29688 8.48438 8.63281 8.21094 8.07031 7.66406C7.52344 7.11719 7.25 6.45312 7.25 5.67188C7.25 4.90625 7.52344 4.25 8.07031 3.70312C8.63281 3.15625 9.29688 2.88281 10.0625 2.88281C10.8438 2.88281 11.5078 3.15625 12.0547 3.70312C12.6016 4.25 12.875 4.90625 12.875 5.67188ZM20.8203 13.7578H13.8125C13.6094 13.7578 13.4297 13.6875 13.2734 13.5469C13.1328 13.3906 13.0625 13.2109 13.0625 13.0078C13.0625 12.7891 13.1328 12.6094 13.2734 12.4688C13.4297 12.3281 13.6094 12.2578 13.8125 12.2578H20.8203C21.0234 12.2578 21.1953 12.3281 21.3359 12.4688C21.4922 12.6094 21.5703 12.7891 21.5703 13.0078C21.5703 13.2109 21.4922 13.3906 21.3359 13.5469C21.1953 13.6875 21.0234 13.7578 20.8203 13.7578ZM21.5703 16.2188C21.5703 16 21.4922 15.8203 21.3359 15.6797C21.1953 15.5391 21.0234 15.4688 20.8203 15.4688H13.8125C13.6094 15.4688 13.4297 15.5391 13.2734 15.6797C13.1328 15.8203 13.0625 16 13.0625 16.2188C13.0625 16.4219 13.1328 16.6016 13.2734 16.7578C13.4297 16.8984 13.6094 16.9688 13.8125 16.9688H20.8203C21.0234 16.9688 21.1953 16.8984 21.3359 16.7578C21.4922 16.6016 21.5703 16.4219 21.5703 16.2188ZM20.8203 20.1562H13.8125C13.6094 20.1562 13.4297 20.0859 13.2734 19.9453C13.1328 19.8047 13.0625 19.625 13.0625 19.4062C13.0625 19.2031 13.1328 19.0312 13.2734 18.8906C13.4297 18.7344 13.6094 18.6562 13.8125 18.6562H20.8203C21.0234 18.6562 21.1953 18.7344 21.3359 18.8906C21.4922 19.0312 21.5703 19.2031 21.5703 19.4062C21.5703 19.625 21.4922 19.8047 21.3359 19.9453C21.1953 20.0859 21.0234 20.1562 20.8203 20.1562Z" fill="#8091A7"/>
</svg>
