<svg width="22" height="20" viewBox="0 0 22 20" fill="none" xmlns="http://www.w3.org/2000/svg">
<path d="M8.77344 7.53125C8.80469 7.53125 8.83594 7.53125 8.86719 7.53125C8.91406 7.53125 8.96094 7.53125 9.00781 7.53125C9.05469 7.53125 9.10156 7.53125 9.14844 7.53125C9.21094 7.53125 9.27344 7.53125 9.33594 7.53125C9.91406 7.53125 10.4609 7.42969 10.9766 7.22656C11.5078 7.00781 11.9766 6.71875 12.3828 6.35938H12.3594C12.6406 6.07812 12.8594 5.75781 13.0156 5.39844C13.1719 5.03906 13.25 4.64844 13.25 4.22656C13.25 4.16406 13.2422 4.10938 13.2266 4.0625C13.2266 4 13.2266 3.94531 13.2266 3.89844V3.92188C13.1172 2.82813 12.6562 1.91406 11.8438 1.17969C11.0469 0.429688 10.1016 0.0390625 9.00781 0.0078125C7.89844 0.0390625 6.9375 0.4375 6.125 1.20312C5.32812 1.95312 4.875 2.86719 4.76562 3.94531V3.96875C4.76562 4.01562 4.76562 4.0625 4.76562 4.10938C4.76562 4.14063 4.76562 4.17969 4.76562 4.22656C4.76562 4.64844 4.84375 5.04688 5 5.42188C5.15625 5.78125 5.36719 6.09375 5.63281 6.35938C6.02344 6.71875 6.47656 7.00781 6.99219 7.22656C7.50781 7.42969 8.05469 7.53125 8.63281 7.53125C8.64844 7.53125 8.67188 7.53125 8.70312 7.53125C8.73438 7.53125 8.75781 7.53125 8.77344 7.53125ZM8.98438 2H9.00781C9.58594 2.03125 10.0859 2.25 10.5078 2.65625C10.9297 3.04687 11.1719 3.52344 11.2344 4.08594V4.10938C11.2344 4.125 11.2344 4.14844 11.2344 4.17969C11.2344 4.19531 11.2344 4.21094 11.2344 4.22656C11.2344 4.36719 11.2031 4.5 11.1406 4.625C11.0938 4.75 11.0312 4.85938 10.9531 4.95312C10.7188 5.14062 10.4609 5.28906 10.1797 5.39844C9.91406 5.49219 9.625 5.53906 9.3125 5.53906C9.26562 5.53906 9.21875 5.53906 9.17188 5.53906C9.125 5.53906 9.07812 5.53125 9.03125 5.51562H9.05469C9.03906 5.51562 9.02344 5.51562 9.00781 5.51562C8.99219 5.51562 8.97656 5.51562 8.96094 5.51562C8.96094 5.51562 8.95312 5.51562 8.9375 5.51562H8.96094C8.91406 5.53125 8.86719 5.53906 8.82031 5.53906C8.77344 5.53906 8.73438 5.53906 8.70312 5.53906C8.39062 5.53906 8.09375 5.49219 7.8125 5.39844C7.53125 5.28906 7.28125 5.14062 7.0625 4.95312C6.96875 4.85938 6.89062 4.75781 6.82812 4.64844C6.78125 4.52344 6.75781 4.39062 6.75781 4.25C6.75781 4.23438 6.75781 4.21875 6.75781 4.20312C6.75781 4.1875 6.75781 4.17187 6.75781 4.15625C6.82031 3.57813 7.0625 3.08594 7.48438 2.67969C7.90625 2.25781 8.40625 2.03125 8.98438 2H9.00781H8.98438ZM21.0078 15.2656V18.0078C21.0078 18.2734 20.9062 18.5078 20.7031 18.7109C20.5156 18.8984 20.2812 18.9922 20 18.9922C19.7188 18.9922 19.4766 18.8984 19.2734 18.7109C19.0859 18.5078 18.9922 18.2734 18.9922 18.0078V15.2656C18.9922 14.1406 18.8359 13.1797 18.5234 12.3828C18.2266 11.5703 17.8984 11.0703 17.5391 10.8828C17.3828 10.8047 17.25 10.6875 17.1406 10.5312C17.0469 10.375 17 10.1953 17 9.99219C17 9.72656 17.0938 9.5 17.2812 9.3125C17.4844 9.10938 17.7266 9.00781 18.0078 9.00781C18.0859 9.00781 18.1641 9.01562 18.2422 9.03125C18.3203 9.04688 18.3984 9.07812 18.4766 9.125C19.2422 9.53125 19.8516 10.2969 20.3047 11.4219C20.7734 12.5312 21.0078 13.8125 21.0078 15.2656ZM16.4141 5.375C16.4141 5.35938 16.4141 5.34375 16.4141 5.32812C16.4141 5.3125 16.4141 5.29688 16.4141 5.28125C16.4141 4.85938 16.2812 4.48438 16.0156 4.15625C15.75 3.8125 15.4219 3.58594 15.0312 3.47656H15.0078C14.7891 3.41406 14.6094 3.29688 14.4688 3.125C14.3281 2.9375 14.2578 2.73438 14.2578 2.51562C14.2578 2.23438 14.3516 2 14.5391 1.8125C14.7422 1.60938 14.9766 1.50781 15.2422 1.50781C15.2891 1.50781 15.3359 1.51563 15.3828 1.53125C15.4297 1.53125 15.4688 1.53125 15.5 1.53125C16.3438 1.75 17.0391 2.20312 17.5859 2.89062C18.1328 3.57813 18.4062 4.36719 18.4062 5.25781C18.4062 5.36719 18.3984 5.47656 18.3828 5.58594C18.3672 5.69531 18.3516 5.80469 18.3359 5.91406V5.89062C18.3359 5.92188 18.3281 5.94531 18.3125 5.96094C18.3125 5.97656 18.3125 5.99219 18.3125 6.00781C18.0938 6.47656 17.7969 6.89844 17.4219 7.27344C17.0625 7.63281 16.6562 7.91406 16.2031 8.11719H16.1562C16.0938 8.16406 16.0312 8.21094 15.9688 8.25781C15.9062 8.28906 15.8438 8.32031 15.7812 8.35156C15.7031 8.39844 15.6172 8.4375 15.5234 8.46875C15.4453 8.5 15.3516 8.51562 15.2422 8.51562C15.0703 8.51562 14.9062 8.46875 14.75 8.375C14.6094 8.28125 14.4922 8.16406 14.3984 8.02344C14.3516 7.94531 14.3125 7.86719 14.2812 7.78906C14.2656 7.69531 14.2578 7.60156 14.2578 7.50781C14.2578 7.32031 14.2969 7.15625 14.375 7.01562C14.4688 6.85938 14.5859 6.74219 14.7266 6.66406V6.64062C14.8047 6.60938 14.875 6.57031 14.9375 6.52344C15.0156 6.47656 15.0938 6.4375 15.1719 6.40625C15.4219 6.29688 15.6484 6.15625 15.8516 5.98438C16.0703 5.8125 16.25 5.61719 16.3906 5.39844L16.4141 5.375ZM17 16.3438V18.9922C17 19.2734 16.8984 19.5156 16.6953 19.7188C16.5078 19.9062 16.2734 20 15.9922 20C15.7266 20 15.4922 19.9062 15.2891 19.7188C15.1016 19.5156 15.0078 19.2734 15.0078 18.9922V16.3438C15.0078 15.1875 14.7578 14.1797 14.2578 13.3203C13.7578 12.4453 13.1719 12.0078 12.5 12.0078H5.49219C4.83594 12.0078 4.25781 12.4453 3.75781 13.3203C3.25781 14.1797 3.00781 15.1875 3.00781 16.3438V18.9922C3.00781 19.2734 2.90625 19.5156 2.70312 19.7188C2.51562 19.9062 2.28125 20 2 20C1.71875 20 1.47656 19.9062 1.27344 19.7188C1.08594 19.5156 0.992188 19.2734 0.992188 18.9922V16.3438C0.992188 15.4531 1.10938 14.6172 1.34375 13.8359C1.57812 13.0703 1.89844 12.4062 2.30469 11.8438C2.71094 11.2656 3.1875 10.8125 3.73438 10.4844C4.28125 10.1562 4.86719 9.99219 5.49219 9.99219H12.5C13.125 9.99219 13.7109 10.1562 14.2578 10.4844C14.8047 10.8125 15.2812 11.2656 15.6875 11.8438C16.0938 12.4062 16.4141 13.0703 16.6484 13.8359C16.8828 14.6172 17 15.4531 17 16.3438Z" fill="#8091A7"/>
</svg>
