<svg width="14" height="13" viewBox="0 0 14 13" fill="none" xmlns="http://www.w3.org/2000/svg">
<path d="M7 1.91211C6.27083 1.91211 5.5918 2.05339 4.96289 2.33594C4.32487 2.60938 3.76432 2.98307 3.28125 3.45703C2.80729 3.93099 2.43359 4.48698 2.16016 5.125C1.88672 5.76302 1.75 6.44206 1.75 7.16211C1.75 7.89128 1.88672 8.57487 2.16016 9.21289C2.43359 9.85091 2.80729 10.4069 3.28125 10.8809C3.76432 11.3548 4.32487 11.7285 4.96289 12.002C5.5918 12.2754 6.27083 12.4121 7 12.4121C7.72917 12.4121 8.4082 12.2754 9.03711 12.002C9.67513 11.7285 10.2311 11.3548 10.7051 10.8809C11.1882 10.4069 11.5664 9.85091 11.8398 9.21289C12.1133 8.57487 12.25 7.89128 12.25 7.16211C12.25 6.44206 12.1133 5.76302 11.8398 5.125C11.5664 4.48698 11.1882 3.93099 10.7051 3.45703C10.2311 2.98307 9.67513 2.60938 9.03711 2.33594C8.4082 2.05339 7.72917 1.91211 7 1.91211ZM7 11.25C6.4349 11.25 5.90625 11.1452 5.41406 10.9355C4.91276 10.7168 4.47526 10.4251 4.10156 10.0605C3.73698 9.68685 3.44987 9.25391 3.24023 8.76172C3.02148 8.26042 2.91211 7.72721 2.91211 7.16211C2.91211 6.59701 3.02148 6.06836 3.24023 5.57617C3.44987 5.08398 3.73698 4.6556 4.10156 4.29102C4.47526 3.91732 4.91276 3.62109 5.41406 3.40234C5.90625 3.19271 6.4349 3.08789 7 3.08789C7.5651 3.08789 8.09375 3.19271 8.58594 3.40234C9.08724 3.62109 9.52018 3.91732 9.88477 4.29102C10.2585 4.6556 10.5501 5.08398 10.7598 5.57617C10.9785 6.06836 11.0879 6.59701 11.0879 7.16211C11.0879 7.72721 10.9785 8.26042 10.7598 8.76172C10.5501 9.25391 10.2585 9.68685 9.88477 10.0605C9.52018 10.4251 9.08724 10.7122 8.58594 10.9219C8.09375 11.1406 7.5651 11.25 7 11.25ZM8.96875 8.33789C8.92318 8.43815 8.85026 8.52018 8.75 8.58398C8.65885 8.64779 8.55404 8.67969 8.43555 8.67969C8.39909 8.67969 8.35807 8.67969 8.3125 8.67969C8.27604 8.67057 8.23958 8.6569 8.20312 8.63867L6.76758 8.00977C6.66732 7.96419 6.58073 7.89583 6.50781 7.80469C6.44401 7.70443 6.41211 7.59505 6.41211 7.47656V4.97461C6.41211 4.81966 6.4668 4.6875 6.57617 4.57812C6.69466 4.45964 6.83594 4.40039 7 4.40039C7.16406 4.40039 7.30078 4.45964 7.41016 4.57812C7.52865 4.6875 7.58789 4.81966 7.58789 4.97461V7.09375L8.66797 7.57227C8.77734 7.61784 8.86393 7.69076 8.92773 7.79102C8.99154 7.88216 9.02344 7.98698 9.02344 8.10547C9.02344 8.14193 9.01888 8.18294 9.00977 8.22852C9.00065 8.26497 8.98698 8.30143 8.96875 8.33789ZM1.85938 3.41602C1.8138 3.44336 1.76367 3.4707 1.70898 3.49805C1.6543 3.51628 1.59505 3.52539 1.53125 3.52539C1.36719 3.52539 1.22591 3.4707 1.10742 3.36133C0.998047 3.24284 0.943359 3.10156 0.943359 2.9375C0.943359 2.83724 0.966146 2.74609 1.01172 2.66406C1.05729 2.58203 1.11654 2.51367 1.18945 2.45898H1.20312L3.48633 0.859375C3.5319 0.822917 3.58203 0.795573 3.63672 0.777344C3.70052 0.759115 3.75977 0.75 3.81445 0.75C3.97852 0.75 4.11523 0.809245 4.22461 0.927734C4.3431 1.03711 4.40234 1.17383 4.40234 1.33789C4.40234 1.42904 4.37956 1.52018 4.33398 1.61133C4.28841 1.69336 4.22917 1.76172 4.15625 1.81641L1.85938 3.41602ZM12.9473 3.26562C12.8926 3.34766 12.8242 3.41146 12.7422 3.45703C12.6602 3.5026 12.569 3.52539 12.4688 3.52539C12.4049 3.52539 12.3457 3.51628 12.291 3.49805C12.2363 3.4707 12.1816 3.44336 12.127 3.41602H12.1406L9.84375 1.81641C9.77083 1.76172 9.71159 1.69336 9.66602 1.61133C9.62044 1.52018 9.59766 1.42904 9.59766 1.33789C9.59766 1.17383 9.65234 1.03711 9.76172 0.927734C9.88021 0.809245 10.0215 0.75 10.1855 0.75C10.2402 0.75 10.2949 0.759115 10.3496 0.777344C10.4134 0.795573 10.4681 0.822917 10.5137 0.859375L12.7969 2.45898C12.8789 2.51367 12.9427 2.58203 12.9883 2.66406C13.0339 2.74609 13.0566 2.83724 13.0566 2.9375C13.0566 3.0013 13.0475 3.06055 13.0293 3.11523C13.0111 3.16992 12.9837 3.22461 12.9473 3.2793V3.26562Z" fill="#8091A7"/>
</svg>
