<svg width="17" height="4" viewBox="0 0 17 4" fill="none" xmlns="http://www.w3.org/2000/svg">
<path d="M8.9 3.8125C8.37865 3.8125 7.92838 3.62884 7.54922 3.26152C7.1819 2.89421 6.99824 2.44395 6.99824 1.91074C6.99824 1.38939 7.1819 0.945052 7.54922 0.577734C7.92838 0.210416 8.37865 0.0267574 8.9 0.0267574C9.42135 0.0267574 9.86569 0.210416 10.233 0.577734C10.6122 0.945052 10.8018 1.38939 10.8018 1.91074C10.8018 2.4321 10.6122 2.88236 10.233 3.26152C9.86569 3.62884 9.42135 3.8125 8.9 3.8125ZM14.9607 3.8125C14.4394 3.8125 13.9951 3.62884 13.6277 3.26152C13.2604 2.89421 13.0768 2.44395 13.0768 1.91074C13.0768 1.38939 13.2604 0.945052 13.6277 0.577734C13.9951 0.210416 14.4394 0.0267574 14.9607 0.0267574C15.4939 0.0267574 15.9442 0.210416 16.3115 0.577734C16.6788 0.945052 16.8625 1.38939 16.8625 1.91074C16.8625 2.4321 16.6729 2.88236 16.2937 3.26152C15.9264 3.62884 15.4821 3.8125 14.9607 3.8125ZM2.83926 3.8125C2.30605 3.8125 1.85579 3.62884 1.48848 3.26152C1.12116 2.89421 0.937499 2.44395 0.937499 1.91074C0.937499 1.38939 1.12116 0.945052 1.48848 0.577734C1.85579 0.210416 2.30605 0.0267574 2.83926 0.0267574C3.36061 0.0267574 3.80495 0.210416 4.17227 0.577734C4.53958 0.945052 4.72324 1.38939 4.72324 1.91074C4.72324 2.4321 4.53958 2.88236 4.17227 3.26152C3.80495 3.62884 3.36061 3.8125 2.83926 3.8125Z" fill="#8091A7"/>
</svg>
