<svg width="118" height="36" viewBox="0 0 118 36" fill="none" xmlns="http://www.w3.org/2000/svg">
<rect width="118" height="36" rx="3" fill="#6576FF"/>
<path d="M31.382 12.0051H24.618C24.0797 12.0051 23.6176 12.198 23.2316 12.584C22.8559 12.9598 22.668 13.4168 22.668 13.9551V23.05C22.668 23.5883 22.8559 24.0504 23.2316 24.4363C23.6176 24.8121 24.0797 25 24.618 25H31.382C31.9203 25 32.3773 24.8121 32.7531 24.4363C33.1391 24.0504 33.332 23.5883 33.332 23.05V13.9551C33.332 13.4168 33.1391 12.9598 32.7531 12.584C32.3773 12.198 31.9203 12.0051 31.382 12.0051ZM32.0371 23.05C32.0371 23.2328 31.9711 23.3902 31.8391 23.5223C31.7172 23.6441 31.5648 23.7051 31.382 23.7051H24.618C24.557 23.6949 24.4961 23.6797 24.4352 23.6594C24.3742 23.6391 24.3184 23.6137 24.2676 23.5832L25.9281 21.8465L26.9641 22.9281C27.0047 22.9789 27.0555 23.0195 27.1164 23.05C27.1773 23.0703 27.2434 23.0805 27.3145 23.0805C27.3754 23.0805 27.4312 23.0703 27.482 23.05C27.543 23.0297 27.5937 22.9992 27.6344 22.9586L30.0719 20.8867L29.9652 21.618C29.9652 21.6281 29.9652 21.6383 29.9652 21.6484C29.9652 21.6586 29.9652 21.6687 29.9652 21.6789C29.9652 21.8008 30.0059 21.9074 30.0871 21.9988C30.1684 22.0902 30.2699 22.1461 30.3918 22.1664C30.402 22.1664 30.4121 22.1664 30.4223 22.1664C30.4324 22.1664 30.4426 22.1664 30.4527 22.1664C30.5746 22.1664 30.6813 22.1258 30.7727 22.0445C30.8641 21.9633 30.9199 21.8617 30.9402 21.7398L31.1992 19.7898C31.1992 19.7797 31.1992 19.7695 31.1992 19.7594C31.1992 19.7492 31.1992 19.7391 31.1992 19.7289C31.1992 19.607 31.1586 19.5004 31.0773 19.409C30.9961 19.3176 30.8996 19.2617 30.7879 19.2414H30.7727L28.8227 18.9824C28.8125 18.9824 28.8023 18.9824 28.7922 18.9824C28.782 18.9824 28.7668 18.9824 28.7465 18.9824C28.6145 18.9824 28.4977 19.0281 28.3961 19.1195C28.3047 19.2109 28.259 19.3277 28.259 19.4699C28.259 19.5918 28.2996 19.6984 28.3809 19.7898C28.4723 19.8812 28.5789 19.9371 28.7008 19.9574L29.5234 20.0641L27.3449 21.9227L26.2785 20.7953C26.2379 20.7547 26.1871 20.7242 26.1262 20.7039C26.0652 20.6734 25.9992 20.6582 25.9281 20.6582C25.857 20.6582 25.791 20.6734 25.7301 20.7039C25.6691 20.7242 25.6184 20.7547 25.5777 20.7953L23.9629 22.4863V13.9551C23.9629 13.7723 24.0238 13.6199 24.1457 13.498C24.2777 13.366 24.4352 13.3 24.618 13.3H31.382C31.5648 13.3 31.7172 13.366 31.8391 13.498C31.9711 13.6199 32.0371 13.7723 32.0371 13.9551V23.05ZM30.6051 15.25C30.6051 15.4328 30.5391 15.5902 30.407 15.7223C30.2852 15.8441 30.1328 15.9051 29.95 15.9051H26.05C25.8672 15.9051 25.7098 15.8441 25.5777 15.7223C25.4559 15.5902 25.3949 15.4328 25.3949 15.25C25.3949 15.0672 25.4559 14.9148 25.5777 14.793C25.7098 14.6609 25.8672 14.5949 26.05 14.5949H29.95C30.1328 14.5949 30.2852 14.6609 30.407 14.793C30.5391 14.9148 30.6051 15.0672 30.6051 15.25ZM28 17.8551C28 18.0277 27.934 18.1801 27.802 18.3121C27.6801 18.434 27.5277 18.4949 27.3449 18.4949H26.05C25.8672 18.4949 25.7098 18.434 25.5777 18.3121C25.4559 18.1801 25.3949 18.0277 25.3949 17.8551C25.3949 17.6723 25.4559 17.5199 25.5777 17.398C25.7098 17.266 25.8672 17.2 26.05 17.2H27.3449C27.5277 17.2 27.6801 17.266 27.802 17.398C27.934 17.5199 28 17.6723 28 17.8551Z" fill="white"/>
<path d="M51.833 22.104C51.5643 22.104 51.3563 22.0303 51.209 21.883C51.0703 21.727 51.001 21.5147 51.001 21.246V13.68C51.001 13.4027 51.0747 13.1947 51.222 13.056C51.3693 12.9087 51.5773 12.835 51.846 12.835H54.979C55.9843 12.835 56.76 13.0777 57.306 13.563C57.852 14.0397 58.125 14.7113 58.125 15.578C58.125 16.1413 57.9993 16.6267 57.748 17.034C57.5053 17.4413 57.15 17.7533 56.682 17.97C56.214 18.1867 55.6463 18.295 54.979 18.295L55.096 18.1H55.525C55.8803 18.1 56.188 18.1867 56.448 18.36C56.7167 18.5333 56.9507 18.8063 57.15 19.179L58.125 20.986C58.229 21.168 58.2767 21.3457 58.268 21.519C58.2593 21.6923 58.1943 21.8353 58.073 21.948C57.9517 22.052 57.774 22.104 57.54 22.104C57.306 22.104 57.1153 22.0563 56.968 21.961C56.8207 21.857 56.6907 21.701 56.578 21.493L55.265 19.075C55.109 18.7803 54.9227 18.5853 54.706 18.49C54.498 18.386 54.2293 18.334 53.9 18.334H52.665V21.246C52.665 21.5147 52.5957 21.727 52.457 21.883C52.3183 22.0303 52.1103 22.104 51.833 22.104ZM52.665 17.099H54.693C55.291 17.099 55.7417 16.9777 56.045 16.735C56.357 16.4837 56.513 16.111 56.513 15.617C56.513 15.1317 56.357 14.7677 56.045 14.525C55.7417 14.2737 55.291 14.148 54.693 14.148H52.665V17.099ZM62.9851 22.13C62.2657 22.13 61.6461 21.9957 61.1261 21.727C60.6061 21.4583 60.2031 21.077 59.9171 20.583C59.6397 20.089 59.5011 19.504 59.5011 18.828C59.5011 18.1693 59.6354 17.593 59.9041 17.099C60.1814 16.605 60.5584 16.2193 61.0351 15.942C61.5204 15.656 62.0707 15.513 62.6861 15.513C63.1367 15.513 63.5397 15.5867 63.8951 15.734C64.2591 15.8813 64.5667 16.0937 64.8181 16.371C65.0781 16.6483 65.2731 16.9863 65.4031 17.385C65.5417 17.775 65.6111 18.217 65.6111 18.711C65.6111 18.867 65.5547 18.9883 65.4421 19.075C65.3381 19.153 65.1864 19.192 64.9871 19.192H60.8141V18.256H64.4671L64.2591 18.451C64.2591 18.0523 64.1984 17.7187 64.0771 17.45C63.9644 17.1813 63.7954 16.9777 63.5701 16.839C63.3534 16.6917 63.0804 16.618 62.7511 16.618C62.3871 16.618 62.0751 16.7047 61.8151 16.878C61.5637 17.0427 61.3687 17.281 61.2301 17.593C61.1001 17.8963 61.0351 18.2603 61.0351 18.685V18.776C61.0351 19.4867 61.1997 20.0197 61.5291 20.375C61.8671 20.7217 62.3611 20.895 63.0111 20.895C63.2364 20.895 63.4877 20.869 63.7651 20.817C64.0511 20.7563 64.3197 20.6567 64.5711 20.518C64.7531 20.414 64.9134 20.3707 65.0521 20.388C65.1907 20.3967 65.2991 20.4443 65.3771 20.531C65.4637 20.6177 65.5157 20.726 65.5331 20.856C65.5504 20.9773 65.5244 21.103 65.4551 21.233C65.3944 21.363 65.2861 21.4757 65.1301 21.571C64.8267 21.7617 64.4757 21.9047 64.0771 22C63.6871 22.0867 63.3231 22.13 62.9851 22.13ZM67.964 24.444C67.704 24.444 67.5046 24.3747 67.366 24.236C67.2273 24.0973 67.158 23.8937 67.158 23.625V16.358C67.158 16.0893 67.2273 15.8857 67.366 15.747C67.5046 15.6083 67.6996 15.539 67.951 15.539C68.211 15.539 68.4103 15.6083 68.549 15.747C68.6876 15.8857 68.757 16.0893 68.757 16.358V17.372L68.614 16.982C68.744 16.54 69.0083 16.1847 69.407 15.916C69.8143 15.6473 70.2866 15.513 70.824 15.513C71.3786 15.513 71.864 15.6473 72.28 15.916C72.7046 16.1847 73.034 16.566 73.268 17.06C73.502 17.5453 73.619 18.1303 73.619 18.815C73.619 19.491 73.502 20.0803 73.268 20.583C73.034 21.077 72.709 21.4583 72.293 21.727C71.877 21.9957 71.3873 22.13 70.824 22.13C70.2953 22.13 69.8316 22 69.433 21.74C69.0343 21.4713 68.7656 21.1247 68.627 20.7H68.783V23.625C68.783 23.8937 68.7093 24.0973 68.562 24.236C68.4233 24.3747 68.224 24.444 67.964 24.444ZM70.369 20.895C70.6896 20.895 70.9713 20.817 71.214 20.661C71.4566 20.505 71.643 20.2753 71.773 19.972C71.9116 19.66 71.981 19.2743 71.981 18.815C71.981 18.1217 71.8336 17.606 71.539 17.268C71.2443 16.9213 70.8543 16.748 70.369 16.748C70.0483 16.748 69.7666 16.826 69.524 16.982C69.2813 17.1293 69.0906 17.359 68.952 17.671C68.822 17.9743 68.757 18.3557 68.757 18.815C68.757 19.4997 68.9043 20.0197 69.199 20.375C69.4936 20.7217 69.8836 20.895 70.369 20.895ZM78.1119 22.13C77.4532 22.13 76.8812 21.9957 76.3959 21.727C75.9106 21.4583 75.5336 21.077 75.2649 20.583C74.9962 20.0803 74.8619 19.491 74.8619 18.815C74.8619 18.3037 74.9356 17.8487 75.0829 17.45C75.2389 17.0427 75.4599 16.696 75.7459 16.41C76.0319 16.1153 76.3742 15.8943 76.7729 15.747C77.1716 15.591 77.6179 15.513 78.1119 15.513C78.7706 15.513 79.3426 15.6473 79.8279 15.916C80.3132 16.1847 80.6902 16.566 80.9589 17.06C81.2276 17.554 81.3619 18.139 81.3619 18.815C81.3619 19.3263 81.2839 19.7857 81.1279 20.193C80.9806 20.6003 80.7639 20.9513 80.4779 21.246C80.1919 21.532 79.8496 21.753 79.4509 21.909C79.0522 22.0563 78.6059 22.13 78.1119 22.13ZM78.1119 20.895C78.4326 20.895 78.7142 20.817 78.9569 20.661C79.1996 20.505 79.3859 20.2753 79.5159 19.972C79.6546 19.66 79.7239 19.2743 79.7239 18.815C79.7239 18.1217 79.5766 17.606 79.2819 17.268C78.9872 16.9213 78.5972 16.748 78.1119 16.748C77.7912 16.748 77.5096 16.826 77.2669 16.982C77.0242 17.1293 76.8336 17.359 76.6949 17.671C76.5649 17.9743 76.4999 18.3557 76.4999 18.815C76.4999 19.4997 76.6472 20.0197 76.9419 20.375C77.2366 20.7217 77.6266 20.895 78.1119 20.895ZM83.7951 22.104C83.5265 22.104 83.3185 22.0347 83.1711 21.896C83.0325 21.7487 82.9631 21.5407 82.9631 21.272V16.358C82.9631 16.0893 83.0325 15.8857 83.1711 15.747C83.3098 15.6083 83.5048 15.539 83.7561 15.539C84.0075 15.539 84.2025 15.6083 84.3411 15.747C84.4798 15.8857 84.5491 16.0893 84.5491 16.358V17.177H84.4191C84.5405 16.657 84.7788 16.2627 85.1341 15.994C85.4895 15.7253 85.9618 15.565 86.5511 15.513C86.7331 15.4957 86.8761 15.5433 86.9801 15.656C87.0928 15.76 87.1578 15.9247 87.1751 16.15C87.1925 16.3667 87.1405 16.5443 87.0191 16.683C86.9065 16.813 86.7331 16.891 86.4991 16.917L86.2131 16.943C85.6845 16.995 85.2858 17.1597 85.0171 17.437C84.7485 17.7057 84.6141 18.087 84.6141 18.581V21.272C84.6141 21.5407 84.5448 21.7487 84.4061 21.896C84.2675 22.0347 84.0638 22.104 83.7951 22.104ZM91.5941 22.13C91.0308 22.13 90.5584 22.0347 90.1771 21.844C89.8044 21.6533 89.5271 21.376 89.3451 21.012C89.1631 20.6393 89.0721 20.18 89.0721 19.634V16.865H88.3961C88.1881 16.865 88.0278 16.813 87.9151 16.709C87.8024 16.5963 87.7461 16.4447 87.7461 16.254C87.7461 16.0547 87.8024 15.903 87.9151 15.799C88.0278 15.695 88.1881 15.643 88.3961 15.643H89.0721V14.46C89.0721 14.1913 89.1414 13.9877 89.2801 13.849C89.4274 13.7103 89.6311 13.641 89.8911 13.641C90.1511 13.641 90.3504 13.7103 90.4891 13.849C90.6278 13.9877 90.6971 14.1913 90.6971 14.46V15.643H92.0751C92.2831 15.643 92.4434 15.695 92.5561 15.799C92.6688 15.903 92.7251 16.0547 92.7251 16.254C92.7251 16.4447 92.6688 16.5963 92.5561 16.709C92.4434 16.813 92.2831 16.865 92.0751 16.865H90.6971V19.543C90.6971 19.959 90.7881 20.271 90.9701 20.479C91.1521 20.687 91.4468 20.791 91.8541 20.791C92.0014 20.791 92.1314 20.778 92.2441 20.752C92.3568 20.726 92.4564 20.7087 92.5431 20.7C92.6471 20.6913 92.7338 20.726 92.8031 20.804C92.8724 20.8733 92.9071 21.0207 92.9071 21.246C92.9071 21.4193 92.8768 21.5753 92.8161 21.714C92.7641 21.844 92.6644 21.935 92.5171 21.987C92.4044 22.0217 92.2571 22.052 92.0751 22.078C91.8931 22.1127 91.7328 22.13 91.5941 22.13ZM96.2584 22.13C95.8857 22.13 95.4914 22.091 95.0754 22.013C94.6594 21.935 94.2867 21.8007 93.9574 21.61C93.8187 21.5233 93.719 21.4237 93.6584 21.311C93.6064 21.1897 93.5847 21.0727 93.5934 20.96C93.6107 20.8387 93.654 20.7347 93.7234 20.648C93.8014 20.5613 93.8967 20.505 94.0094 20.479C94.1307 20.453 94.2607 20.4747 94.3994 20.544C94.746 20.7087 95.071 20.8257 95.3744 20.895C95.6777 20.9557 95.9767 20.986 96.2714 20.986C96.6874 20.986 96.995 20.9167 97.1944 20.778C97.4024 20.6307 97.5064 20.44 97.5064 20.206C97.5064 20.0067 97.437 19.855 97.2984 19.751C97.1684 19.6383 96.969 19.556 96.7004 19.504L95.4004 19.257C94.863 19.153 94.4514 18.958 94.1654 18.672C93.888 18.3773 93.7494 18.0003 93.7494 17.541C93.7494 17.125 93.862 16.7653 94.0874 16.462C94.3214 16.1587 94.642 15.9247 95.0494 15.76C95.4567 15.5953 95.9247 15.513 96.4534 15.513C96.8347 15.513 97.19 15.5563 97.5194 15.643C97.8574 15.721 98.1824 15.8467 98.4944 16.02C98.6244 16.0893 98.711 16.1803 98.7544 16.293C98.8064 16.4057 98.8194 16.5227 98.7934 16.644C98.7674 16.7567 98.7154 16.8607 98.6374 16.956C98.5594 17.0427 98.4597 17.099 98.3384 17.125C98.2257 17.1423 98.0957 17.1163 97.9484 17.047C97.6797 16.9083 97.4197 16.8087 97.1684 16.748C96.9257 16.6873 96.6917 16.657 96.4664 16.657C96.0417 16.657 95.7254 16.7307 95.5174 16.878C95.318 17.0253 95.2184 17.2203 95.2184 17.463C95.2184 17.645 95.279 17.7967 95.4004 17.918C95.5217 18.0393 95.708 18.1217 95.9594 18.165L97.2594 18.412C97.8227 18.516 98.2474 18.7067 98.5334 18.984C98.828 19.2613 98.9754 19.634 98.9754 20.102C98.9754 20.7347 98.7284 21.233 98.2344 21.597C97.7404 21.9523 97.0817 22.13 96.2584 22.13Z" fill="white"/>
</svg>
