<svg width="181" height="36" viewBox="0 0 181 36" fill="none" xmlns="http://www.w3.org/2000/svg">
<g clip-path="url(#clip0_238_47295)">
<rect x="0.5" y="0.5" width="180" height="35" rx="3.5" fill="white"/>
<path d="M33.8398 12H32.1602V11.1602C32.1602 10.9388 32.0755 10.75 31.9062 10.5938C31.75 10.4245 31.5612 10.3398 31.3398 10.3398C31.1055 10.3398 30.9036 10.4245 30.7344 10.5938C30.5781 10.75 30.5 10.9388 30.5 11.1602V12H25.5V11.1602C25.5 10.9388 25.4154 10.75 25.2461 10.5938C25.0898 10.4245 24.8945 10.3398 24.6602 10.3398C24.4388 10.3398 24.2435 10.4245 24.0742 10.5938C23.918 10.75 23.8398 10.9388 23.8398 11.1602V12H22.1602C21.4701 12 20.8776 12.2474 20.3828 12.7422C19.901 13.224 19.6602 13.8099 19.6602 14.5V23.6602C19.6602 24.3503 19.901 24.9427 20.3828 25.4375C20.8776 25.9193 21.4701 26.1602 22.1602 26.1602H33.8398C34.5299 26.1602 35.1159 25.9193 35.5977 25.4375C36.0924 24.9427 36.3398 24.3503 36.3398 23.6602V14.5C36.3398 13.8099 36.0924 13.224 35.5977 12.7422C35.1159 12.2474 34.5299 12 33.8398 12ZM34.6602 23.6602C34.6602 23.8945 34.5755 24.0964 34.4062 24.2656C34.25 24.4219 34.0612 24.5 33.8398 24.5H22.1602C21.9388 24.5 21.7435 24.4219 21.5742 24.2656C21.418 24.0964 21.3398 23.8945 21.3398 23.6602V14.5C21.3398 14.2656 21.418 14.0703 21.5742 13.9141C21.7435 13.7448 21.9388 13.6602 22.1602 13.6602H23.8398V14.5C23.8398 14.7344 23.918 14.9362 24.0742 15.1055C24.2435 15.2617 24.4388 15.3398 24.6602 15.3398C24.8945 15.3398 25.0898 15.2617 25.2461 15.1055C25.4154 14.9362 25.5 14.7344 25.5 14.5V13.6602H30.5V14.5C30.5 14.7344 30.5781 14.9362 30.7344 15.1055C30.9036 15.2617 31.1055 15.3398 31.3398 15.3398C31.5612 15.3398 31.75 15.2617 31.9062 15.1055C32.0755 14.9362 32.1602 14.7344 32.1602 14.5V13.6602H33.8398C34.0612 13.6602 34.25 13.7448 34.4062 13.9141C34.5755 14.0703 34.6602 14.2656 34.6602 14.5V23.6602ZM24.6602 18.6602C24.4388 18.6602 24.2435 18.582 24.0742 18.4258C23.918 18.2565 23.8398 18.0547 23.8398 17.8203C23.8398 17.7161 23.8594 17.612 23.8984 17.5078C23.9375 17.4036 23.9961 17.3125 24.0742 17.2344C24.1523 17.1693 24.2435 17.1172 24.3477 17.0781C24.4518 17.0391 24.556 17.0195 24.6602 17.0195C24.7773 17.0195 24.888 17.0391 24.9922 17.0781C25.0964 17.1172 25.1875 17.1693 25.2656 17.2344C25.2786 17.2604 25.2917 17.2865 25.3047 17.3125C25.3177 17.3255 25.3372 17.3451 25.3633 17.3711C25.3763 17.3841 25.3893 17.4036 25.4023 17.4297C25.4154 17.4557 25.4284 17.4818 25.4414 17.5078C25.4414 17.5339 25.4479 17.5599 25.4609 17.5859C25.474 17.612 25.4805 17.638 25.4805 17.6641C25.4935 17.6901 25.5 17.7161 25.5 17.7422C25.5 17.7682 25.5 17.8008 25.5 17.8398C25.5 18.0742 25.4154 18.2695 25.2461 18.4258C25.0898 18.582 24.901 18.6602 24.6797 18.6602C24.6797 18.6602 24.6732 18.6602 24.6602 18.6602ZM28 18.6602C27.8828 18.6602 27.7721 18.6406 27.668 18.6016C27.5768 18.5625 27.4922 18.5039 27.4141 18.4258C27.3359 18.3477 27.2708 18.263 27.2188 18.1719C27.1797 18.0677 27.1602 17.957 27.1602 17.8398C27.1602 17.7747 27.1667 17.7161 27.1797 17.6641C27.1927 17.612 27.2122 17.5599 27.2383 17.5078C27.2513 17.4557 27.2708 17.4102 27.2969 17.3711C27.3359 17.319 27.375 17.2734 27.4141 17.2344C27.4922 17.1693 27.5768 17.1172 27.668 17.0781C27.7721 17.0391 27.8828 17.0195 28 17.0195C28.1172 17.0195 28.2214 17.0391 28.3125 17.0781C28.4167 17.1172 28.5078 17.1693 28.5859 17.2344C28.625 17.2734 28.6576 17.319 28.6836 17.3711C28.7096 17.4102 28.7357 17.4557 28.7617 17.5078C28.7878 17.5599 28.8073 17.612 28.8203 17.6641C28.8333 17.7161 28.8398 17.7747 28.8398 17.8398C28.8398 17.8659 28.8333 17.8919 28.8203 17.918C28.8203 17.944 28.8203 17.9766 28.8203 18.0156V17.9961C28.8073 18.0221 28.7943 18.0482 28.7812 18.0742C28.7812 18.1003 28.7747 18.1263 28.7617 18.1523C28.7617 18.1784 28.7552 18.2044 28.7422 18.2305C28.7292 18.2565 28.7096 18.276 28.6836 18.2891C28.6706 18.3151 28.6576 18.3411 28.6445 18.3672C28.6315 18.3802 28.612 18.3997 28.5859 18.4258C28.5078 18.5039 28.4167 18.5625 28.3125 18.6016C28.2214 18.6406 28.1172 18.6602 28 18.6602ZM31.3398 18.6602C31.2227 18.6602 31.112 18.6406 31.0078 18.6016C30.9036 18.5625 30.8125 18.5039 30.7344 18.4258C30.7214 18.3997 30.7018 18.3802 30.6758 18.3672C30.6628 18.3411 30.6497 18.3151 30.6367 18.2891C30.6237 18.276 30.6107 18.2565 30.5977 18.2305C30.5846 18.2044 30.5716 18.1784 30.5586 18.1523C30.5586 18.1263 30.5521 18.1003 30.5391 18.0742C30.526 18.0482 30.5195 18.0221 30.5195 17.9961C30.5065 17.9701 30.5 17.944 30.5 17.918C30.5 17.8919 30.5 17.8659 30.5 17.8398C30.5 17.8268 30.5 17.8203 30.5 17.8203C30.5 17.7682 30.5065 17.7161 30.5195 17.6641C30.5326 17.612 30.5521 17.5599 30.5781 17.5078H30.5586C30.5846 17.4557 30.6107 17.4102 30.6367 17.3711C30.6758 17.319 30.7083 17.2734 30.7344 17.2344C30.8125 17.1693 30.9036 17.1172 31.0078 17.0781C31.112 17.026 31.2227 17 31.3398 17C31.3659 17 31.3919 17 31.418 17C31.444 17 31.4701 17.0065 31.4961 17.0195C31.5221 17.0195 31.5482 17.026 31.5742 17.0391C31.6003 17.0521 31.6263 17.0586 31.6523 17.0586C31.6784 17.0716 31.7044 17.0846 31.7305 17.0977C31.7565 17.1107 31.7826 17.1237 31.8086 17.1367C31.8216 17.1628 31.8411 17.1823 31.8672 17.1953C31.8932 17.2083 31.9128 17.2214 31.9258 17.2344C31.9648 17.2734 31.9974 17.319 32.0234 17.3711C32.0495 17.4102 32.0755 17.4557 32.1016 17.5078C32.1146 17.5599 32.1276 17.612 32.1406 17.6641C32.1536 17.7161 32.1602 17.7747 32.1602 17.8398C32.1602 17.8659 32.1602 17.8919 32.1602 17.918C32.1602 17.944 32.1536 17.9766 32.1406 18.0156V17.9961C32.1406 18.0221 32.1341 18.0482 32.1211 18.0742C32.1211 18.1003 32.1146 18.1263 32.1016 18.1523C32.0885 18.1784 32.0755 18.2044 32.0625 18.2305C32.0495 18.2565 32.0365 18.276 32.0234 18.2891C32.0104 18.3151 31.9909 18.3411 31.9648 18.3672C31.9518 18.3802 31.9388 18.3997 31.9258 18.4258C31.8997 18.4388 31.8737 18.4583 31.8477 18.4844C31.8346 18.4974 31.8216 18.5104 31.8086 18.5234C31.7826 18.5365 31.7565 18.5495 31.7305 18.5625C31.7044 18.5755 31.6784 18.5885 31.6523 18.6016C31.6263 18.6146 31.6003 18.6276 31.5742 18.6406C31.5482 18.6406 31.5221 18.6406 31.4961 18.6406C31.4701 18.6536 31.444 18.6602 31.418 18.6602C31.3919 18.6602 31.3659 18.6602 31.3398 18.6602ZM24.6602 22C24.6341 22 24.6081 22 24.582 22C24.556 21.987 24.5234 21.9805 24.4844 21.9805H24.5039C24.4779 21.9805 24.4518 21.974 24.4258 21.9609C24.3997 21.9479 24.3737 21.9414 24.3477 21.9414C24.3216 21.9284 24.2956 21.9154 24.2695 21.9023C24.2435 21.8893 24.2174 21.8763 24.1914 21.8633C24.1523 21.8242 24.1133 21.7917 24.0742 21.7656C23.9961 21.6875 23.931 21.5964 23.8789 21.4922C23.8398 21.388 23.8203 21.2773 23.8203 21.1602C23.8203 20.9258 23.8984 20.7305 24.0547 20.5742C24.224 20.4049 24.4258 20.3203 24.6602 20.3203C24.7773 20.3203 24.888 20.3464 24.9922 20.3984C25.0964 20.4375 25.1875 20.4961 25.2656 20.5742C25.2786 20.6003 25.2917 20.6263 25.3047 20.6523C25.3177 20.6654 25.3372 20.6849 25.3633 20.7109C25.3763 20.724 25.3893 20.7435 25.4023 20.7695C25.4154 20.7956 25.4284 20.8216 25.4414 20.8477C25.4414 20.8737 25.4479 20.8997 25.4609 20.9258C25.474 20.9518 25.4805 20.9779 25.4805 21.0039C25.4935 21.0299 25.5 21.056 25.5 21.082C25.5 21.1081 25.5 21.1341 25.5 21.1602C25.5 21.1602 25.5 21.1667 25.5 21.1797C25.5 21.401 25.4154 21.5964 25.2461 21.7656C25.0898 21.9219 24.901 22 24.6797 22C24.6797 22 24.6732 22 24.6602 22ZM28 22C27.8828 22 27.7721 21.9805 27.668 21.9414C27.5768 21.8893 27.4922 21.8307 27.4141 21.7656C27.3359 21.6875 27.2708 21.5964 27.2188 21.4922C27.1797 21.388 27.1602 21.2773 27.1602 21.1602C27.1602 21.1081 27.1667 21.056 27.1797 21.0039C27.1927 20.9518 27.2122 20.8997 27.2383 20.8477C27.2513 20.7956 27.2708 20.75 27.2969 20.7109C27.3359 20.6589 27.375 20.6133 27.4141 20.5742C27.4922 20.5091 27.5768 20.457 27.668 20.418C27.7721 20.3659 27.8828 20.3398 28 20.3398C28.1172 20.3398 28.2214 20.3659 28.3125 20.418C28.4167 20.457 28.5078 20.5091 28.5859 20.5742C28.625 20.6133 28.6576 20.6589 28.6836 20.7109C28.7096 20.75 28.7357 20.7956 28.7617 20.8477C28.7878 20.8997 28.8073 20.9518 28.8203 21.0039C28.8333 21.056 28.8398 21.1081 28.8398 21.1602C28.8398 21.1992 28.8333 21.2318 28.8203 21.2578C28.8203 21.2839 28.8203 21.3099 28.8203 21.3359C28.8073 21.362 28.7943 21.388 28.7812 21.4141C28.7812 21.4401 28.7747 21.4661 28.7617 21.4922C28.7617 21.5182 28.7552 21.5443 28.7422 21.5703C28.7292 21.5833 28.7096 21.6029 28.6836 21.6289C28.6706 21.6549 28.6576 21.681 28.6445 21.707C28.6315 21.7201 28.612 21.7396 28.5859 21.7656C28.5078 21.8307 28.4167 21.8893 28.3125 21.9414C28.2214 21.9805 28.1172 22 28 22ZM31.3398 22C31.2227 22 31.112 21.9805 31.0078 21.9414C30.9036 21.8893 30.8125 21.8307 30.7344 21.7656C30.6693 21.6875 30.6107 21.5964 30.5586 21.4922C30.5195 21.388 30.5 21.2773 30.5 21.1602C30.5 21.1341 30.5 21.1081 30.5 21.082C30.513 21.056 30.5195 21.0234 30.5195 20.9844V21.0039C30.5195 20.9779 30.526 20.9518 30.5391 20.9258C30.5521 20.8997 30.5651 20.8737 30.5781 20.8477H30.5586C30.5716 20.8216 30.5846 20.7956 30.5977 20.7695C30.6107 20.7435 30.6237 20.724 30.6367 20.7109C30.6497 20.6849 30.6628 20.6654 30.6758 20.6523C30.7018 20.6263 30.7214 20.6003 30.7344 20.5742C30.8125 20.4961 30.9036 20.4375 31.0078 20.3984C31.112 20.3594 31.2227 20.3398 31.3398 20.3398C31.3659 20.3398 31.3919 20.3398 31.418 20.3398C31.444 20.3398 31.4766 20.3464 31.5156 20.3594H31.4961C31.5221 20.3594 31.5482 20.3659 31.5742 20.3789C31.6003 20.3789 31.6263 20.3854 31.6523 20.3984C31.6784 20.4115 31.7044 20.4245 31.7305 20.4375C31.7565 20.4505 31.7826 20.4635 31.8086 20.4766C31.8216 20.4896 31.8346 20.5091 31.8477 20.5352C31.8737 20.5482 31.8997 20.5612 31.9258 20.5742C32.0039 20.6523 32.0625 20.7435 32.1016 20.8477C32.1406 20.9518 32.1602 21.056 32.1602 21.1602C32.1602 21.2253 32.1536 21.2839 32.1406 21.3359C32.1276 21.388 32.1146 21.4401 32.1016 21.4922C32.0755 21.5443 32.0495 21.5964 32.0234 21.6484C31.9974 21.6875 31.9648 21.7266 31.9258 21.7656C31.8997 21.7786 31.8737 21.7917 31.8477 21.8047C31.8346 21.8177 31.8216 21.8372 31.8086 21.8633C31.7826 21.8763 31.7565 21.8893 31.7305 21.9023C31.7044 21.9154 31.6784 21.9284 31.6523 21.9414C31.6263 21.9414 31.6003 21.9479 31.5742 21.9609C31.5482 21.974 31.5221 21.9805 31.4961 21.9805C31.4701 21.9805 31.444 21.987 31.418 22C31.3919 22 31.3659 22 31.3398 22Z" fill="#526484"/>
<path d="M52.2446 22C51.9759 22 51.7679 21.9263 51.6206 21.779C51.4733 21.623 51.3996 21.4107 51.3996 21.142V13.641C51.3996 13.3637 51.4689 13.1557 51.6076 13.017C51.7549 12.8697 51.9629 12.796 52.2316 12.796C52.5003 12.796 52.7039 12.8697 52.8426 13.017C52.9899 13.1557 53.0636 13.3637 53.0636 13.641V20.583H56.8336C57.0676 20.583 57.2453 20.6437 57.3666 20.765C57.4966 20.8863 57.5616 21.0597 57.5616 21.285C57.5616 21.5103 57.4966 21.688 57.3666 21.818C57.2453 21.9393 57.0676 22 56.8336 22H52.2446ZM60.8964 22.13C60.4371 22.13 60.0254 22.0433 59.6614 21.87C59.3061 21.688 59.0244 21.4453 58.8164 21.142C58.6171 20.8387 58.5174 20.4963 58.5174 20.115C58.5174 19.647 58.6388 19.2787 58.8814 19.01C59.1241 18.7327 59.5184 18.5333 60.0644 18.412C60.6104 18.2907 61.3428 18.23 62.2614 18.23H62.9114V19.166H62.2744C61.7371 19.166 61.3081 19.192 60.9874 19.244C60.6668 19.296 60.4371 19.387 60.2984 19.517C60.1684 19.6383 60.1034 19.8117 60.1034 20.037C60.1034 20.323 60.2031 20.557 60.4024 20.739C60.6018 20.921 60.8791 21.012 61.2344 21.012C61.5204 21.012 61.7718 20.947 61.9884 20.817C62.2138 20.6783 62.3914 20.492 62.5214 20.258C62.6514 20.024 62.7164 19.7553 62.7164 19.452V17.957C62.7164 17.5237 62.6211 17.2117 62.4304 17.021C62.2398 16.8303 61.9191 16.735 61.4684 16.735C61.2171 16.735 60.9441 16.7653 60.6494 16.826C60.3634 16.8867 60.0601 16.9907 59.7394 17.138C59.5748 17.216 59.4274 17.2377 59.2974 17.203C59.1761 17.1683 59.0808 17.099 59.0114 16.995C58.9421 16.8823 58.9074 16.761 58.9074 16.631C58.9074 16.501 58.9421 16.3753 59.0114 16.254C59.0808 16.124 59.1978 16.0287 59.3624 15.968C59.7611 15.8033 60.1424 15.6863 60.5064 15.617C60.8791 15.5477 61.2171 15.513 61.5204 15.513C62.1444 15.513 62.6558 15.6083 63.0544 15.799C63.4618 15.9897 63.7651 16.28 63.9644 16.67C64.1638 17.0513 64.2634 17.5453 64.2634 18.152V21.272C64.2634 21.5407 64.1984 21.7487 64.0684 21.896C63.9384 22.0347 63.7521 22.104 63.5094 22.104C63.2668 22.104 63.0761 22.0347 62.9374 21.896C62.8074 21.7487 62.7424 21.5407 62.7424 21.272V20.648H62.8464C62.7858 20.9513 62.6644 21.2157 62.4824 21.441C62.3091 21.6577 62.0881 21.8267 61.8194 21.948C61.5508 22.0693 61.2431 22.13 60.8964 22.13ZM68.4998 22.13C68.1271 22.13 67.7328 22.091 67.3168 22.013C66.9008 21.935 66.5281 21.8007 66.1988 21.61C66.0601 21.5233 65.9605 21.4237 65.8998 21.311C65.8478 21.1897 65.8261 21.0727 65.8348 20.96C65.8521 20.8387 65.8955 20.7347 65.9648 20.648C66.0428 20.5613 66.1381 20.505 66.2508 20.479C66.3721 20.453 66.5021 20.4747 66.6408 20.544C66.9875 20.7087 67.3125 20.8257 67.6158 20.895C67.9191 20.9557 68.2181 20.986 68.5128 20.986C68.9288 20.986 69.2365 20.9167 69.4358 20.778C69.6438 20.6307 69.7478 20.44 69.7478 20.206C69.7478 20.0067 69.6785 19.855 69.5398 19.751C69.4098 19.6383 69.2105 19.556 68.9418 19.504L67.6418 19.257C67.1045 19.153 66.6928 18.958 66.4068 18.672C66.1295 18.3773 65.9908 18.0003 65.9908 17.541C65.9908 17.125 66.1035 16.7653 66.3288 16.462C66.5628 16.1587 66.8835 15.9247 67.2908 15.76C67.6981 15.5953 68.1661 15.513 68.6948 15.513C69.0761 15.513 69.4315 15.5563 69.7608 15.643C70.0988 15.721 70.4238 15.8467 70.7358 16.02C70.8658 16.0893 70.9525 16.1803 70.9958 16.293C71.0478 16.4057 71.0608 16.5227 71.0348 16.644C71.0088 16.7567 70.9568 16.8607 70.8788 16.956C70.8008 17.0427 70.7011 17.099 70.5798 17.125C70.4671 17.1423 70.3371 17.1163 70.1898 17.047C69.9211 16.9083 69.6611 16.8087 69.4098 16.748C69.1671 16.6873 68.9331 16.657 68.7078 16.657C68.2831 16.657 67.9668 16.7307 67.7588 16.878C67.5595 17.0253 67.4598 17.2203 67.4598 17.463C67.4598 17.645 67.5205 17.7967 67.6418 17.918C67.7631 18.0393 67.9495 18.1217 68.2008 18.165L69.5008 18.412C70.0641 18.516 70.4888 18.7067 70.7748 18.984C71.0695 19.2613 71.2168 19.634 71.2168 20.102C71.2168 20.7347 70.9698 21.233 70.4758 21.597C69.9818 21.9523 69.3231 22.13 68.4998 22.13ZM75.629 22.13C75.0656 22.13 74.5933 22.0347 74.212 21.844C73.8393 21.6533 73.562 21.376 73.38 21.012C73.198 20.6393 73.107 20.18 73.107 19.634V16.865H72.431C72.223 16.865 72.0626 16.813 71.95 16.709C71.8373 16.5963 71.781 16.4447 71.781 16.254C71.781 16.0547 71.8373 15.903 71.95 15.799C72.0626 15.695 72.223 15.643 72.431 15.643H73.107V14.46C73.107 14.1913 73.1763 13.9877 73.315 13.849C73.4623 13.7103 73.666 13.641 73.926 13.641C74.186 13.641 74.3853 13.7103 74.524 13.849C74.6626 13.9877 74.732 14.1913 74.732 14.46V15.643H76.11C76.318 15.643 76.4783 15.695 76.591 15.799C76.7036 15.903 76.76 16.0547 76.76 16.254C76.76 16.4447 76.7036 16.5963 76.591 16.709C76.4783 16.813 76.318 16.865 76.11 16.865H74.732V19.543C74.732 19.959 74.823 20.271 75.005 20.479C75.187 20.687 75.4816 20.791 75.889 20.791C76.0363 20.791 76.1663 20.778 76.279 20.752C76.3916 20.726 76.4913 20.7087 76.578 20.7C76.682 20.6913 76.7686 20.726 76.838 20.804C76.9073 20.8733 76.942 21.0207 76.942 21.246C76.942 21.4193 76.9116 21.5753 76.851 21.714C76.799 21.844 76.6993 21.935 76.552 21.987C76.4393 22.0217 76.292 22.052 76.11 22.078C75.928 22.1127 75.7676 22.13 75.629 22.13ZM84.6285 22.13C84.1605 22.13 83.6752 22.0693 83.1725 21.948C82.6699 21.8267 82.2322 21.6447 81.8595 21.402C81.6862 21.2893 81.5692 21.1593 81.5085 21.012C81.4479 20.8647 81.4305 20.726 81.4565 20.596C81.4912 20.4573 81.5562 20.3403 81.6515 20.245C81.7555 20.1497 81.8812 20.0933 82.0285 20.076C82.1845 20.0587 82.3535 20.0977 82.5355 20.193C82.8909 20.3837 83.2332 20.5223 83.5625 20.609C83.8919 20.687 84.2299 20.726 84.5765 20.726C84.9579 20.726 85.2785 20.674 85.5385 20.57C85.7985 20.466 85.9935 20.31 86.1235 20.102C86.2622 19.894 86.3315 19.6427 86.3315 19.348C86.3315 18.9147 86.1842 18.594 85.8895 18.386C85.6035 18.1693 85.1832 18.061 84.6285 18.061H83.7965C83.5539 18.061 83.3675 18.0003 83.2375 17.879C83.1162 17.7577 83.0555 17.5887 83.0555 17.372C83.0555 17.1553 83.1162 16.9863 83.2375 16.865C83.3675 16.7437 83.5539 16.683 83.7965 16.683H84.4725C84.8019 16.683 85.0835 16.631 85.3175 16.527C85.5515 16.4143 85.7335 16.2583 85.8635 16.059C85.9935 15.8597 86.0585 15.617 86.0585 15.331C86.0585 14.9323 85.9242 14.629 85.6555 14.421C85.3955 14.213 85.0142 14.109 84.5115 14.109C84.1909 14.109 83.8875 14.148 83.6015 14.226C83.3242 14.2953 83.0165 14.4297 82.6785 14.629C82.5225 14.7243 82.3709 14.7633 82.2235 14.746C82.0849 14.7287 81.9679 14.6723 81.8725 14.577C81.7772 14.4817 81.7122 14.369 81.6775 14.239C81.6429 14.1003 81.6515 13.9617 81.7035 13.823C81.7555 13.6757 81.8639 13.55 82.0285 13.446C82.4012 13.2033 82.8129 13.0213 83.2635 12.9C83.7142 12.77 84.1779 12.705 84.6545 12.705C85.2872 12.705 85.8289 12.8047 86.2795 13.004C86.7302 13.1947 87.0725 13.472 87.3065 13.836C87.5492 14.1913 87.6705 14.6247 87.6705 15.136C87.6705 15.5 87.6012 15.8337 87.4625 16.137C87.3239 16.4317 87.1289 16.683 86.8775 16.891C86.6262 17.099 86.3229 17.2463 85.9675 17.333V17.177C86.5915 17.281 87.0769 17.541 87.4235 17.957C87.7702 18.3643 87.9435 18.8757 87.9435 19.491C87.9435 20.0283 87.8092 20.4963 87.5405 20.895C87.2719 21.2937 86.8905 21.6013 86.3965 21.818C85.9025 22.026 85.3132 22.13 84.6285 22.13ZM92.8655 22.13C91.7821 22.13 90.9545 21.7227 90.3825 20.908C89.8105 20.0847 89.5245 18.9147 89.5245 17.398C89.5245 16.3753 89.6501 15.5173 89.9015 14.824C90.1615 14.122 90.5385 13.5933 91.0325 13.238C91.5351 12.8827 92.1461 12.705 92.8655 12.705C93.9575 12.705 94.7851 13.1037 95.3485 13.901C95.9205 14.6983 96.2065 15.8597 96.2065 17.385C96.2065 18.399 96.0765 19.2613 95.8165 19.972C95.5651 20.674 95.1925 21.2113 94.6985 21.584C94.2045 21.948 93.5935 22.13 92.8655 22.13ZM92.8655 20.765C93.4548 20.765 93.8881 20.492 94.1655 19.946C94.4515 19.4 94.5945 18.5463 94.5945 17.385C94.5945 16.2237 94.4515 15.383 94.1655 14.863C93.8881 14.3343 93.4548 14.07 92.8655 14.07C92.2848 14.07 91.8515 14.3343 91.5655 14.863C91.2795 15.383 91.1365 16.2237 91.1365 17.385C91.1365 18.5463 91.2795 19.4 91.5655 19.946C91.8515 20.492 92.2848 20.765 92.8655 20.765ZM102.695 22C102.409 22 102.188 21.9263 102.032 21.779C101.884 21.623 101.811 21.402 101.811 21.116V13.719C101.811 13.433 101.884 13.2163 102.032 13.069C102.188 12.913 102.409 12.835 102.695 12.835H105.217C106.751 12.835 107.934 13.2293 108.766 14.018C109.606 14.8067 110.027 15.9377 110.027 17.411C110.027 18.1477 109.918 18.802 109.702 19.374C109.494 19.9373 109.182 20.414 108.766 20.804C108.358 21.194 107.856 21.493 107.258 21.701C106.668 21.9003 105.988 22 105.217 22H102.695ZM103.475 20.622H105.113C105.65 20.622 106.114 20.557 106.504 20.427C106.902 20.2883 107.232 20.089 107.492 19.829C107.76 19.5603 107.96 19.2267 108.09 18.828C108.22 18.4207 108.285 17.9483 108.285 17.411C108.285 16.3363 108.02 15.5347 107.492 15.006C106.963 14.4773 106.17 14.213 105.113 14.213H103.475V20.622ZM113.91 22.13C113.451 22.13 113.039 22.0433 112.675 21.87C112.32 21.688 112.038 21.4453 111.83 21.142C111.631 20.8387 111.531 20.4963 111.531 20.115C111.531 19.647 111.652 19.2787 111.895 19.01C112.138 18.7327 112.532 18.5333 113.078 18.412C113.624 18.2907 114.356 18.23 115.275 18.23H115.925V19.166H115.288C114.751 19.166 114.322 19.192 114.001 19.244C113.68 19.296 113.451 19.387 113.312 19.517C113.182 19.6383 113.117 19.8117 113.117 20.037C113.117 20.323 113.217 20.557 113.416 20.739C113.615 20.921 113.893 21.012 114.248 21.012C114.534 21.012 114.785 20.947 115.002 20.817C115.227 20.6783 115.405 20.492 115.535 20.258C115.665 20.024 115.73 19.7553 115.73 19.452V17.957C115.73 17.5237 115.635 17.2117 115.444 17.021C115.253 16.8303 114.933 16.735 114.482 16.735C114.231 16.735 113.958 16.7653 113.663 16.826C113.377 16.8867 113.074 16.9907 112.753 17.138C112.588 17.216 112.441 17.2377 112.311 17.203C112.19 17.1683 112.094 17.099 112.025 16.995C111.956 16.8823 111.921 16.761 111.921 16.631C111.921 16.501 111.956 16.3753 112.025 16.254C112.094 16.124 112.211 16.0287 112.376 15.968C112.775 15.8033 113.156 15.6863 113.52 15.617C113.893 15.5477 114.231 15.513 114.534 15.513C115.158 15.513 115.669 15.6083 116.068 15.799C116.475 15.9897 116.779 16.28 116.978 16.67C117.177 17.0513 117.277 17.5453 117.277 18.152V21.272C117.277 21.5407 117.212 21.7487 117.082 21.896C116.952 22.0347 116.766 22.104 116.523 22.104C116.28 22.104 116.09 22.0347 115.951 21.896C115.821 21.7487 115.756 21.5407 115.756 21.272V20.648H115.86C115.799 20.9513 115.678 21.2157 115.496 21.441C115.323 21.6577 115.102 21.8267 114.833 21.948C114.564 22.0693 114.257 22.13 113.91 22.13ZM120.735 24.444C120.544 24.444 120.388 24.392 120.267 24.288C120.146 24.1927 120.072 24.0627 120.046 23.898C120.029 23.7333 120.059 23.56 120.137 23.378L121.021 21.415V22.091L118.655 16.618C118.577 16.4273 118.551 16.2497 118.577 16.085C118.603 15.9203 118.681 15.7903 118.811 15.695C118.95 15.591 119.136 15.539 119.37 15.539C119.569 15.539 119.73 15.5867 119.851 15.682C119.972 15.7687 120.081 15.9377 120.176 16.189L121.931 20.57H121.541L123.335 16.176C123.43 15.9333 123.543 15.7687 123.673 15.682C123.803 15.5867 123.976 15.539 124.193 15.539C124.384 15.539 124.535 15.591 124.648 15.695C124.761 15.7903 124.83 15.9203 124.856 16.085C124.882 16.241 124.852 16.4143 124.765 16.605L121.606 23.82C121.493 24.0627 121.372 24.2273 121.242 24.314C121.112 24.4007 120.943 24.444 120.735 24.444ZM128.426 22.13C128.053 22.13 127.659 22.091 127.243 22.013C126.827 21.935 126.454 21.8007 126.125 21.61C125.986 21.5233 125.886 21.4237 125.826 21.311C125.774 21.1897 125.752 21.0727 125.761 20.96C125.778 20.8387 125.821 20.7347 125.891 20.648C125.969 20.5613 126.064 20.505 126.177 20.479C126.298 20.453 126.428 20.4747 126.567 20.544C126.913 20.7087 127.238 20.8257 127.542 20.895C127.845 20.9557 128.144 20.986 128.439 20.986C128.855 20.986 129.162 20.9167 129.362 20.778C129.57 20.6307 129.674 20.44 129.674 20.206C129.674 20.0067 129.604 19.855 129.466 19.751C129.336 19.6383 129.136 19.556 128.868 19.504L127.568 19.257C127.03 19.153 126.619 18.958 126.333 18.672C126.055 18.3773 125.917 18.0003 125.917 17.541C125.917 17.125 126.029 16.7653 126.255 16.462C126.489 16.1587 126.809 15.9247 127.217 15.76C127.624 15.5953 128.092 15.513 128.621 15.513C129.002 15.513 129.357 15.5563 129.687 15.643C130.025 15.721 130.35 15.8467 130.662 16.02C130.792 16.0893 130.878 16.1803 130.922 16.293C130.974 16.4057 130.987 16.5227 130.961 16.644C130.935 16.7567 130.883 16.8607 130.805 16.956C130.727 17.0427 130.627 17.099 130.506 17.125C130.393 17.1423 130.263 17.1163 130.116 17.047C129.847 16.9083 129.587 16.8087 129.336 16.748C129.093 16.6873 128.859 16.657 128.634 16.657C128.209 16.657 127.893 16.7307 127.685 16.878C127.485 17.0253 127.386 17.2203 127.386 17.463C127.386 17.645 127.446 17.7967 127.568 17.918C127.689 18.0393 127.875 18.1217 128.127 18.165L129.427 18.412C129.99 18.516 130.415 18.7067 130.701 18.984C130.995 19.2613 131.143 19.634 131.143 20.102C131.143 20.7347 130.896 21.233 130.402 21.597C129.908 21.9523 129.249 22.13 128.426 22.13Z" fill="#526484"/>
<path d="M151.598 22.9607C151.397 22.9607 151.219 22.8896 151.065 22.7475C150.923 22.5934 150.852 22.4157 150.852 22.2143C150.852 22.1076 150.87 22.0069 150.905 21.9121C150.941 21.8173 150.994 21.7403 151.065 21.6811L154.318 18.4107L151.065 15.1582C151.006 15.0871 150.952 15.0101 150.905 14.9271C150.87 14.8324 150.852 14.7376 150.852 14.6428C150.852 14.4295 150.923 14.2518 151.065 14.1096C151.219 13.9555 151.403 13.8785 151.616 13.8785C151.711 13.8785 151.806 13.8963 151.9 13.9318C151.995 13.9674 152.078 14.0207 152.149 14.0918L155.935 17.8775C156.006 17.9486 156.059 18.0316 156.095 18.1264C156.13 18.2093 156.148 18.3041 156.148 18.4107C156.148 18.5174 156.13 18.6181 156.095 18.7129C156.059 18.8077 156.006 18.8847 155.935 18.9439L152.131 22.7475C152.072 22.8186 151.995 22.8719 151.9 22.9074C151.806 22.943 151.705 22.9607 151.598 22.9607Z" fill="#526484"/>
<rect x="0.5" y="0.5" width="180" height="35" rx="3.5" stroke="#DBDFEA"/>
</g>
<defs>
<clipPath id="clip0_238_47295">
<rect width="181" height="36" fill="white"/>
</clipPath>
</defs>
</svg>
