<svg width="22" height="20" viewBox="0 0 22 20" fill="none" xmlns="http://www.w3.org/2000/svg">
<path d="M11 0.0078125C9.625 0.0078125 8.32812 0.265625 7.10938 0.78125C5.89062 1.3125 4.82812 2.03125 3.92188 2.9375C3.01562 3.84375 2.30469 4.89844 1.78906 6.10156C1.25781 7.32031 0.992188 8.61719 0.992188 9.99219C0.992188 11.3828 1.25781 12.6797 1.78906 13.8828C2.30469 15.1016 3.01562 16.1641 3.92188 17.0703C4.82812 17.9766 5.89062 18.6875 7.10938 19.2031C8.32812 19.7344 9.625 20 11 20C12.375 20 13.6719 19.7344 14.8906 19.2031C16.1094 18.6875 17.1719 17.9766 18.0781 17.0703C18.9844 16.1641 19.6953 15.1016 20.2109 13.8828C20.7422 12.6797 21.0078 11.3828 21.0078 9.99219C21.0078 8.61719 20.7422 7.32031 20.2109 6.10156C19.6797 4.89844 18.9609 3.84375 18.0547 2.9375C17.1641 2.03125 16.1094 1.3125 14.8906 0.78125C13.6719 0.265625 12.375 0.0078125 11 0.0078125ZM18.9219 9.00781H12.0078V2.07031C12.9141 2.19531 13.7578 2.45313 14.5391 2.84375C15.3359 3.23437 16.0391 3.73438 16.6484 4.34375C17.2578 4.95312 17.7578 5.64844 18.1484 6.42969C18.5547 7.22656 18.8125 8.07031 18.9219 8.96094V9.00781ZM3.00781 9.99219C3.00781 8.97656 3.1875 8.01562 3.54688 7.10938C3.90625 6.21875 4.39062 5.42188 5 4.71875C5.625 4 6.36719 3.41406 7.22656 2.96094C8.07031 2.49219 8.98438 2.19531 9.96875 2.07031H9.99219V17.9375C9.00781 17.7969 8.08594 17.5 7.22656 17.0469C6.38281 16.5781 5.64844 15.9922 5.02344 15.2891C4.39844 14.5859 3.90625 13.7812 3.54688 12.875C3.1875 11.9688 3.00781 11.0078 3.00781 9.99219ZM12.0078 17.9375V11H18.9219C18.8125 11.9062 18.5547 12.7578 18.1484 13.5547C17.7578 14.3359 17.2578 15.0312 16.6484 15.6406C16.0391 16.25 15.3438 16.7578 14.5625 17.1641C13.7812 17.5547 12.9375 17.8125 12.0312 17.9375H12.0078Z" fill="#8091A7"/>
</svg>
