<svg width="22" height="22" viewBox="0 0 22 22" fill="none" xmlns="http://www.w3.org/2000/svg">
<path d="M15.9922 13.7578H9.99219C9.78906 13.7578 9.60938 13.6875 9.45312 13.5469C9.3125 13.3906 9.24219 13.2109 9.24219 13.0078C9.24219 12.7891 9.3125 12.6094 9.45312 12.4688C9.60938 12.3281 9.78906 12.2578 9.99219 12.2578H15.9922C16.2109 12.2578 16.3906 12.3281 16.5312 12.4688C16.6719 12.6094 16.7422 12.7891 16.7422 13.0078C16.7422 13.2109 16.6719 13.3906 16.5312 13.5469C16.3906 13.6875 16.2109 13.7578 15.9922 13.7578ZM16.7422 16.0078C16.7422 15.7891 16.6719 15.6094 16.5312 15.4688C16.3906 15.3281 16.2109 15.2578 15.9922 15.2578H9.99219C9.78906 15.2578 9.60938 15.3281 9.45312 15.4688C9.3125 15.6094 9.24219 15.7891 9.24219 16.0078C9.24219 16.2109 9.3125 16.3906 9.45312 16.5469C9.60938 16.6875 9.78906 16.7578 9.99219 16.7578H15.9922C16.2109 16.7578 16.3906 16.6875 16.5312 16.5469C16.6719 16.3906 16.7422 16.2109 16.7422 16.0078ZM11.75 10.0078C11.75 9.78906 11.6719 9.60938 11.5156 9.46875C11.375 9.32812 11.2031 9.25781 11 9.25781H9.96875C9.76562 9.25781 9.58594 9.32812 9.42969 9.46875C9.28906 9.60938 9.21875 9.78906 9.21875 10.0078C9.21875 10.2109 9.28906 10.3906 9.42969 10.5469C9.58594 10.6875 9.76562 10.7578 9.96875 10.7578H11C11.2031 10.7578 11.375 10.6875 11.5156 10.5469C11.6719 10.3906 11.75 10.2109 11.75 10.0078ZM21.0078 18.2109V7.40625C21.0078 7.26562 20.9766 7.14062 20.9141 7.03125C20.8672 6.90625 20.8047 6.79688 20.7266 6.70312L15.4766 1.3125C15.3828 1.21875 15.2734 1.14844 15.1484 1.10156C15.0234 1.03906 14.8906 1.00781 14.75 1.00781H7.74219C6.99219 1.00781 6.34375 1.28125 5.79688 1.82812C5.26562 2.35937 5 3.00781 5 3.77344C5 3.77344 5 3.78125 5 3.79688V18.2109C5 18.9766 5.26562 19.6328 5.79688 20.1797C6.34375 20.7109 6.99219 20.9844 7.74219 21H18.2422C19.0078 20.9844 19.6562 20.7109 20.1875 20.1797C20.7344 19.6328 21.0078 18.9766 21.0078 18.2109C21.0078 18.2109 21.0078 18.2031 21.0078 18.1875V18.2109ZM12.9922 3V7.99219C12.9922 8.27344 13.0859 8.51562 13.2734 8.71875C13.4766 8.90625 13.7188 9 14 9H18.9922V18.2109C18.9922 18.2109 18.9922 18.2188 18.9922 18.2344C18.9922 18.4375 18.9219 18.6172 18.7812 18.7734C18.6406 18.9141 18.4609 18.9922 18.2422 19.0078H7.74219C7.53906 18.9922 7.35938 18.9141 7.20312 18.7734C7.0625 18.6172 6.99219 18.4375 6.99219 18.2344C6.99219 18.2188 6.99219 18.2109 6.99219 18.2109C6.99219 18.2109 6.99219 18.2031 6.99219 18.1875V18.2109V3.79688C6.99219 3.78125 6.99219 3.77344 6.99219 3.77344C6.99219 3.57031 7.0625 3.39062 7.20312 3.23438C7.35938 3.07813 7.53906 3 7.74219 3H12.9922ZM15.0078 3.70312L18.2188 7.00781H15.0078V3.70312ZM3.89844 20.9766C3.92969 20.9141 3.95312 20.8516 3.96875 20.7891C3.98438 20.7109 3.99219 20.6328 3.99219 20.5547C3.99219 20.3516 3.9375 20.1719 3.82812 20.0156C3.73438 19.8594 3.60938 19.7344 3.45312 19.6406H3.42969C3.39844 19.625 3.36719 19.6094 3.33594 19.5938C3.30469 19.5625 3.28125 19.5312 3.26562 19.5C3.1875 19.4062 3.125 19.2969 3.07812 19.1719C3.03125 19.0469 3.00781 18.9141 3.00781 18.7734C3.00781 18.7578 3.00781 18.75 3.00781 18.75V3.25781C3.00781 3.24219 3.00781 3.23438 3.00781 3.23438C3.00781 3.23438 3.00781 3.22656 3.00781 3.21094C3.00781 3.08594 3.02344 2.96094 3.05469 2.83594C3.10156 2.71094 3.16406 2.60156 3.24219 2.50781C3.25781 2.49219 3.27344 2.47656 3.28906 2.46094C3.32031 2.42969 3.35156 2.40625 3.38281 2.39062C3.52344 2.29688 3.63281 2.17969 3.71094 2.03906C3.78906 1.88281 3.82812 1.71875 3.82812 1.54688C3.82812 1.26562 3.72656 1.03125 3.52344 0.84375C3.33594 0.640625 3.10938 0.539062 2.84375 0.539062C2.73438 0.539062 2.63281 0.554687 2.53906 0.585938C2.44531 0.617188 2.35938 0.65625 2.28125 0.703125C2.17188 0.78125 2.0625 0.867188 1.95312 0.960938C1.85938 1.03906 1.77344 1.13281 1.69531 1.24219C1.47656 1.50781 1.30469 1.8125 1.17969 2.15625C1.05469 2.48438 0.992188 2.83594 0.992188 3.21094C0.992188 3.22656 0.992188 3.23438 0.992188 3.23438C0.992188 3.23438 0.992188 3.24219 0.992188 3.25781V18.75C0.992188 18.75 0.992188 18.7578 0.992188 18.7734C0.992188 19.1797 1.0625 19.5547 1.20312 19.8984C1.34375 20.2422 1.53125 20.5547 1.76562 20.8359C1.875 20.9609 1.99219 21.0703 2.11719 21.1641C2.25781 21.2734 2.39844 21.3672 2.53906 21.4453H2.5625C2.625 21.4766 2.69531 21.5 2.77344 21.5156C2.85156 21.5312 2.92969 21.5391 3.00781 21.5391C3.19531 21.5391 3.36719 21.4844 3.52344 21.375C3.69531 21.2812 3.82031 21.1484 3.89844 20.9766Z" fill="#8091A7"/>
</svg>
