<svg width="18" height="20" viewBox="0 0 18 20" fill="none" xmlns="http://www.w3.org/2000/svg">
<path d="M14.5078 0.0078125H3.49219C2.53906 0.0078125 1.71875 0.351562 1.03125 1.03906C0.34375 1.71094 0 2.53125 0 3.5V16.5078C0 17.4609 0.34375 18.2812 1.03125 18.9688C1.71875 19.6562 2.53906 20 3.49219 20H14.5078C15.4609 20 16.2812 19.6562 16.9688 18.9688C17.6562 18.2812 18 17.4609 18 16.5078V3.5C18 2.53125 17.6562 1.71094 16.9688 1.03906C16.2812 0.351562 15.4609 0.0078125 14.5078 0.0078125ZM16.0078 16.5078C16.0078 16.9141 15.8594 17.2656 15.5625 17.5625C15.2656 17.8594 14.9141 18.0078 14.5078 18.0078H3.49219C3.08594 18.0078 2.73438 17.8594 2.4375 17.5625C2.14062 17.2656 1.99219 16.9141 1.99219 16.5078V3.5C1.99219 3.09375 2.14062 2.74219 2.4375 2.44531C2.73438 2.14844 3.08594 2 3.49219 2H14.5078C14.9141 2 15.2656 2.14844 15.5625 2.44531C15.8594 2.74219 16.0078 3.09375 16.0078 3.5V16.5078ZM7.89844 3.99219C7.89844 4.21094 7.82031 4.39062 7.66406 4.53125C7.52344 4.67188 7.35156 4.74219 7.14844 4.74219C6.92969 4.74219 6.75 4.67188 6.60938 4.53125C6.46875 4.39062 6.39844 4.21094 6.39844 3.99219C6.39844 3.78906 6.46875 3.61719 6.60938 3.47656C6.75 3.32031 6.92969 3.24219 7.14844 3.24219C7.35156 3.24219 7.52344 3.32031 7.66406 3.47656C7.82031 3.61719 7.89844 3.78906 7.89844 3.99219ZM13.0078 12.7578H4.99219C4.78906 12.7578 4.60938 12.6875 4.45312 12.5469C4.3125 12.3906 4.24219 12.2109 4.24219 12.0078C4.24219 11.7891 4.3125 11.6094 4.45312 11.4688C4.60938 11.3281 4.78906 11.2578 4.99219 11.2578H13.0078C13.2109 11.2578 13.3828 11.3281 13.5234 11.4688C13.6797 11.6094 13.7578 11.7891 13.7578 12.0078C13.7578 12.2109 13.6797 12.3906 13.5234 12.5469C13.3828 12.6875 13.2109 12.7578 13.0078 12.7578ZM13.0078 16.7422H4.99219C4.78906 16.7422 4.60938 16.6719 4.45312 16.5312C4.3125 16.3906 4.24219 16.2109 4.24219 15.9922C4.24219 15.7891 4.3125 15.6172 4.45312 15.4766C4.60938 15.3203 4.78906 15.2422 4.99219 15.2422H13.0078C13.2109 15.2422 13.3828 15.3203 13.5234 15.4766C13.6797 15.6172 13.7578 15.7891 13.7578 15.9922C13.7578 16.2109 13.6797 16.3906 13.5234 16.5312C13.3828 16.6719 13.2109 16.7422 13.0078 16.7422ZM4.24219 7.22656V8.35156C4.24219 8.53906 4.3125 8.70312 4.45312 8.84375C4.59375 8.98438 4.75781 9.05469 4.94531 9.05469H13.0547C13.2422 9.05469 13.4062 8.98438 13.5469 8.84375C13.6875 8.70312 13.7578 8.53906 13.7578 8.35156V5.82031L11.3438 3.94531L7.85156 7.0625L5.90625 5.39844L4.24219 7.22656Z" fill="#8091A7"/>
</svg>
