<svg width="20" height="20" viewBox="0 0 20 20" fill="none" xmlns="http://www.w3.org/2000/svg">
<path d="M8.54688 4.29688C8.45312 4.20312 8.34375 4.13281 8.21875 4.08594C8.09375 4.02344 7.96094 3.99219 7.82031 3.99219H3.10938C2.45312 4.00781 1.89062 4.25 1.42188 4.71875C0.96875 5.17188 0.742188 5.72656 0.742188 6.38281C0.742188 6.38281 0.742188 6.39062 0.742188 6.40625V17.6094C0.742188 17.6094 0.742188 17.6172 0.742188 17.6328C0.742188 18.2734 0.96875 18.8281 1.42188 19.2969C1.89062 19.75 2.45312 19.9844 3.10938 20H11.1953C11.8516 19.9844 12.4062 19.75 12.8594 19.2969C13.3281 18.8281 13.5625 18.2734 13.5625 17.6328C13.5625 17.6172 13.5625 17.6094 13.5625 17.6094V9.89844C13.5625 9.75781 13.5312 9.63281 13.4688 9.52344C13.4219 9.39844 13.3594 9.28906 13.2812 9.19531L8.54688 4.29688ZM10.5391 9.24219H8.5V7.15625L10.5391 9.24219ZM11.1953 18.0078H3.10938C3 17.9922 2.91406 17.9531 2.85156 17.8906C2.78906 17.8125 2.75781 17.7266 2.75781 17.6328C2.75781 17.6172 2.75781 17.6094 2.75781 17.6094V6.40625C2.75781 6.39062 2.75781 6.38281 2.75781 6.38281C2.75781 6.27344 2.78906 6.1875 2.85156 6.125C2.91406 6.04688 3 6.00781 3.10938 6.00781H6.50781V10.25C6.50781 10.5312 6.60156 10.7734 6.78906 10.9766C6.99219 11.1641 7.23438 11.2578 7.51562 11.2578H11.5469V17.6094C11.5469 17.6094 11.5469 17.6172 11.5469 17.6328C11.5469 17.7266 11.5156 17.8125 11.4531 17.8906C11.3906 17.9531 11.3047 17.9922 11.1953 18.0078ZM18.9766 5.35156L14.2422 0.3125C14.1641 0.21875 14.0625 0.148438 13.9375 0.101562C13.8125 0.0390625 13.6719 0.0078125 13.5156 0.0078125H8.80469C8.41406 0.0078125 8.05469 0.09375 7.72656 0.265625C7.39844 0.4375 7.13281 0.671875 6.92969 0.96875H6.90625C6.85938 1.0625 6.8125 1.15625 6.76562 1.25C6.73438 1.34375 6.71875 1.44531 6.71875 1.55469C6.71875 1.83594 6.8125 2.07813 7 2.28125C7.20312 2.46875 7.44531 2.5625 7.72656 2.5625C7.89844 2.5625 8.05469 2.52344 8.19531 2.44531C8.33594 2.36719 8.45312 2.26563 8.54688 2.14062C8.5625 2.10937 8.59375 2.07813 8.64062 2.04688C8.6875 2.01562 8.74219 2 8.80469 2H12.2031V6.40625C12.2031 6.67188 12.2969 6.90625 12.4844 7.10938C12.6875 7.29688 12.9297 7.39062 13.2109 7.39062H17.2422V13.9531C17.2422 13.9688 17.2422 13.9766 17.2422 13.9766C17.2422 13.9766 17.2422 13.9844 17.2422 14C17.2422 14.0938 17.2109 14.1797 17.1484 14.2578C17.0859 14.3359 17 14.3828 16.8906 14.3984H16.0234C15.7578 14.3984 15.5234 14.5 15.3203 14.7031C15.1328 14.8906 15.0391 15.125 15.0391 15.4062C15.0391 15.6719 15.1328 15.9062 15.3203 16.1094C15.5234 16.2969 15.7578 16.3906 16.0234 16.3906H16.8906C17.5469 16.3906 18.1016 16.1562 18.5547 15.6875C19.0234 15.2188 19.2578 14.6562 19.2578 14C19.2578 13.9844 19.2578 13.9688 19.2578 13.9531V6.03125C19.2578 5.90625 19.2266 5.78906 19.1641 5.67969C19.1172 5.55469 19.0547 5.44531 18.9766 5.35156ZM14.1953 3.19531L16.2812 5.39844H14.1953V3.19531Z" fill="#8091A7"/>
</svg>
