<svg width="22" height="20" viewBox="0 0 22 20" fill="none" xmlns="http://www.w3.org/2000/svg">
<path d="M17.4922 0.0078125H4.50781C3.53906 0.0078125 2.71094 0.351562 2.02344 1.03906C1.33594 1.71094 0.992188 2.53125 0.992188 3.5V16.5078C0.992188 17.4609 1.33594 18.2812 2.02344 18.9688C2.71094 19.6562 3.53906 20 4.50781 20H17.4922C18.4609 20 19.2891 19.6562 19.9766 18.9688C20.6641 18.2812 21.0078 17.4609 21.0078 16.5078V3.5C21.0078 2.53125 20.6641 1.71094 19.9766 1.03906C19.2891 0.351562 18.4609 0.0078125 17.4922 0.0078125ZM3.00781 16.5078V3.5C3.00781 3.09375 3.14844 2.74219 3.42969 2.44531C3.72656 2.14844 4.08594 2 4.50781 2H17.4922C17.9141 2 18.2656 2.14844 18.5469 2.44531C18.8438 2.74219 18.9922 3.09375 18.9922 3.5V11.0703L16.3438 8.30469C16.25 8.21094 16.1406 8.14062 16.0156 8.09375C15.8906 8.03125 15.7578 8 15.6172 8C15.4766 8 15.3438 8.03125 15.2188 8.09375C15.0938 8.14062 14.9922 8.21094 14.9141 8.30469L5.58594 18.0078H4.50781C4.08594 18.0078 3.72656 17.8594 3.42969 17.5625C3.14844 17.2656 3.00781 16.9141 3.00781 16.5078ZM17.4922 18.0078H8.35156L15.6172 10.4375L18.9922 13.9531V16.5078C18.9922 16.9141 18.8438 17.2656 18.5469 17.5625C18.2656 17.8594 17.9141 18.0078 17.4922 18.0078ZM8 9.99219C8.82812 9.99219 9.53125 9.70312 10.1094 9.125C10.7031 8.53125 11 7.82031 11 6.99219C11 6.16406 10.7031 5.46094 10.1094 4.88281C9.53125 4.28906 8.82812 3.99219 8 3.99219C7.17188 3.99219 6.46094 4.28906 5.86719 4.88281C5.28906 5.46094 5 6.16406 5 6.99219C5 7.82031 5.28906 8.53125 5.86719 9.125C6.46094 9.70312 7.17188 9.99219 8 9.99219ZM8 5.49219C8.42188 5.49219 8.77344 5.64062 9.05469 5.9375C9.35156 6.23438 9.5 6.58594 9.5 6.99219C9.5 7.41406 9.35156 7.77344 9.05469 8.07031C8.77344 8.35156 8.42188 8.49219 8 8.49219C7.57812 8.49219 7.21875 8.35156 6.92188 8.07031C6.64062 7.77344 6.5 7.41406 6.5 6.99219C6.5 6.58594 6.64844 6.23438 6.94531 5.9375C7.24219 5.64062 7.59375 5.49219 8 5.49219Z" fill="#8091A7"/>
</svg>
