<svg width="16" height="16" viewBox="0 0 16 16" fill="none" xmlns="http://www.w3.org/2000/svg">
<path d="M12.5898 15.6602H3.41016C2.61589 15.6602 1.93229 15.3802 1.35938 14.8203C0.786458 14.2474 0.5 13.5573 0.5 12.75V3.58984C0.5 2.78255 0.786458 2.09245 1.35938 1.51953C1.93229 0.946615 2.61589 0.660156 3.41016 0.660156H12.5898C13.3841 0.660156 14.0677 0.946615 14.6406 1.51953C15.2135 2.09245 15.5 2.78255 15.5 3.58984V12.75C15.5 13.5573 15.2135 14.2474 14.6406 14.8203C14.0677 15.3802 13.3841 15.6602 12.5898 15.6602ZM3.41016 2.33984C3.07161 2.33984 2.77865 2.46354 2.53125 2.71094C2.28385 2.94531 2.16016 3.23828 2.16016 3.58984V12.75C2.16016 13.0885 2.28385 13.3815 2.53125 13.6289C2.77865 13.8763 3.07161 14 3.41016 14H12.5898C12.9284 14 13.2214 13.8763 13.4688 13.6289C13.7161 13.3815 13.8398 13.0885 13.8398 12.75V3.58984C13.8398 3.23828 13.7161 2.94531 13.4688 2.71094C13.2214 2.46354 12.9284 2.33984 12.5898 2.33984H3.41016ZM12.1602 4.83984C12.1602 4.60547 12.0755 4.41016 11.9062 4.25391C11.75 4.08464 11.5612 4 11.3398 4H4.66016C4.4388 4 4.24349 4.08464 4.07422 4.25391C3.91797 4.41016 3.83984 4.60547 3.83984 4.83984C3.83984 5.0612 3.91797 5.25651 4.07422 5.42578C4.24349 5.58203 4.4388 5.66016 4.66016 5.66016H11.3398C11.5612 5.66016 11.75 5.58203 11.9062 5.42578C12.0755 5.25651 12.1602 5.0612 12.1602 4.83984ZM12.1602 11.5C12.1602 11.2656 12.0755 11.0703 11.9062 10.9141C11.75 10.7448 11.5612 10.6602 11.3398 10.6602H4.66016C4.4388 10.6602 4.24349 10.7448 4.07422 10.9141C3.91797 11.0703 3.83984 11.2656 3.83984 11.5C3.83984 11.7344 3.91797 11.9362 4.07422 12.1055C4.24349 12.2617 4.4388 12.3398 4.66016 12.3398H11.3398C11.5612 12.3398 11.75 12.2617 11.9062 12.1055C12.0755 11.9362 12.1602 11.7344 12.1602 11.5ZM8 8.16016C8 7.9388 7.91536 7.75 7.74609 7.59375C7.58984 7.42448 7.39453 7.33984 7.16016 7.33984H4.66016C4.4388 7.33984 4.24349 7.42448 4.07422 7.59375C3.91797 7.75 3.83984 7.9388 3.83984 8.16016C3.83984 8.39453 3.91797 8.59635 4.07422 8.76562C4.24349 8.92188 4.4388 9 4.66016 9H7.16016C7.39453 9 7.58984 8.92188 7.74609 8.76562C7.91536 8.59635 8 8.39453 8 8.16016ZM12.1602 8.16016C12.1602 7.9388 12.0755 7.75 11.9062 7.59375C11.75 7.42448 11.5612 7.33984 11.3398 7.33984H10.5C10.2656 7.33984 10.0703 7.42448 9.91406 7.59375C9.75781 7.75 9.67969 7.9388 9.67969 8.16016C9.67969 8.39453 9.75781 8.59635 9.91406 8.76562C10.0833 8.92188 10.2852 9 10.5195 9H11.3398C11.5612 9 11.75 8.92188 11.9062 8.76562C12.0755 8.59635 12.1602 8.39453 12.1602 8.16016Z" fill="#6576FF"/>
</svg>
