<svg width="22" height="20" viewBox="0 0 22 20" fill="none" xmlns="http://www.w3.org/2000/svg">
<path d="M18.9922 6.00781H17V3.00781C17 2.17969 16.7031 1.47656 16.1094 0.898438C15.5312 0.304687 14.8281 0.0078125 14 0.0078125H8C7.17188 0.0078125 6.46094 0.304687 5.86719 0.898438C5.28906 1.47656 5 2.17969 5 3.00781V6.00781H3.00781C2.44531 6.00781 1.96875 6.20312 1.57812 6.59375C1.1875 6.98438 0.992188 7.45312 0.992188 8V18.0078C0.992188 18.5547 1.1875 19.0234 1.57812 19.4141C1.96875 19.8047 2.44531 20 3.00781 20H18.9922C19.5547 20 20.0312 19.8047 20.4219 19.4141C20.8125 19.0234 21.0078 18.5547 21.0078 18.0078V8C21.0078 7.45312 20.8125 6.98438 20.4219 6.59375C20.0312 6.20312 19.5547 6.00781 18.9922 6.00781ZM3.00781 8H5V18.0078H3.00781V8ZM6.99219 3.00781C6.99219 2.72656 7.08594 2.49219 7.27344 2.30469C7.47656 2.10156 7.71875 2 8 2H14C14.2812 2 14.5156 2.10156 14.7031 2.30469C14.9062 2.49219 15.0078 2.72656 15.0078 3.00781V18.0078H6.99219V3.00781ZM18.9922 18.0078H17V8H18.9922V18.0078ZM9.92188 4.625C9.9375 4.67188 9.95312 4.73437 9.96875 4.8125C9.98438 4.875 9.99219 4.9375 9.99219 5C9.99219 5.28125 9.89062 5.52344 9.6875 5.72656C9.5 5.91406 9.27344 6.00781 9.00781 6.00781C8.72656 6.00781 8.48438 5.91406 8.28125 5.72656C8.09375 5.52344 8 5.28125 8 5C8 4.71875 8.09375 4.48438 8.28125 4.29688C8.48438 4.09375 8.72656 3.99219 9.00781 3.99219C9.14844 3.99219 9.27344 4.02344 9.38281 4.08594C9.50781 4.13281 9.61719 4.20312 9.71094 4.29688C9.75781 4.34375 9.79688 4.39844 9.82812 4.46094C9.85938 4.50781 9.89062 4.55469 9.92188 4.60156V4.625ZM13.7188 4.29688C13.7969 4.39062 13.8594 4.5 13.9062 4.625C13.9688 4.73437 14 4.85938 14 5C14 5.28125 13.8984 5.52344 13.6953 5.72656C13.5078 5.91406 13.2734 6.00781 12.9922 6.00781C12.7266 6.00781 12.4922 5.91406 12.2891 5.72656C12.1016 5.52344 12.0078 5.28125 12.0078 5C12.0078 4.71875 12.1016 4.48438 12.2891 4.29688C12.4922 4.09375 12.7266 3.99219 12.9922 3.99219C13.1328 3.99219 13.2656 4.02344 13.3906 4.08594C13.5156 4.13281 13.625 4.20312 13.7188 4.29688ZM9.92188 8.60938C9.95312 8.67188 9.96875 8.73438 9.96875 8.79688C9.98438 8.85938 9.99219 8.92969 9.99219 9.00781C9.99219 9.07031 9.98438 9.13281 9.96875 9.19531C9.96875 9.25781 9.95312 9.32031 9.92188 9.38281C9.89062 9.44531 9.85938 9.50781 9.82812 9.57031C9.79688 9.61719 9.75781 9.66406 9.71094 9.71094C9.66406 9.75781 9.60938 9.79688 9.54688 9.82812C9.5 9.85938 9.44531 9.89062 9.38281 9.92188C9.32031 9.95312 9.25781 9.97656 9.19531 9.99219C9.13281 9.99219 9.0625 9.99219 8.98438 9.99219C8.84375 9.99219 8.71094 9.96875 8.58594 9.92188C8.47656 9.875 8.375 9.80469 8.28125 9.71094C8.25 9.66406 8.21094 9.61719 8.16406 9.57031C8.13281 9.50781 8.10938 9.44531 8.09375 9.38281H8.07031C8.05469 9.32031 8.03906 9.25781 8.02344 9.19531C8.00781 9.13281 8 9.07031 8 9.00781C8 8.92969 8.00781 8.85938 8.02344 8.79688C8.03906 8.73438 8.0625 8.67188 8.09375 8.60938H8.07031C8.10156 8.54688 8.13281 8.49219 8.16406 8.44531C8.21094 8.38281 8.25 8.32812 8.28125 8.28125C8.375 8.20312 8.48438 8.14062 8.60938 8.09375C8.73438 8.04688 8.86719 8.02344 9.00781 8.02344C9.13281 8.02344 9.25781 8.04688 9.38281 8.09375C9.50781 8.14062 9.61719 8.20312 9.71094 8.28125C9.75781 8.32812 9.79688 8.38281 9.82812 8.44531C9.85938 8.49219 9.89062 8.54688 9.92188 8.60938ZM13.9297 8.60938C13.9453 8.67188 13.9609 8.73438 13.9766 8.79688C13.9922 8.85938 14 8.92969 14 9.00781C14 9.07031 13.9922 9.13281 13.9766 9.19531C13.9609 9.25781 13.9375 9.32031 13.9062 9.38281H13.9297C13.8984 9.44531 13.8594 9.50781 13.8125 9.57031C13.7812 9.61719 13.75 9.66406 13.7188 9.71094C13.625 9.80469 13.5156 9.88281 13.3906 9.94531C13.2656 9.99219 13.1328 10.0156 12.9922 10.0156C12.7266 10.0156 12.4922 9.92188 12.2891 9.73438C12.1016 9.53125 12.0078 9.28906 12.0078 9.00781C12.0078 8.94531 12.0078 8.88281 12.0078 8.82031C12.0234 8.74219 12.0469 8.67188 12.0781 8.60938C12.1094 8.54688 12.1406 8.49219 12.1719 8.44531C12.2031 8.38281 12.2422 8.32812 12.2891 8.28125C12.3828 8.20312 12.4922 8.14062 12.6172 8.09375C12.7422 8.04688 12.8672 8.02344 12.9922 8.02344C13.1328 8.02344 13.2656 8.04688 13.3906 8.09375C13.5156 8.14062 13.625 8.20312 13.7188 8.28125C13.75 8.32812 13.7812 8.38281 13.8125 8.44531C13.8594 8.49219 13.8906 8.54688 13.9062 8.60938H13.9297ZM9.71094 12.2891C9.80469 12.3828 9.875 12.4922 9.92188 12.6172C9.96875 12.7266 9.99219 12.8516 9.99219 12.9922C9.99219 13.0078 9.99219 13.0156 9.99219 13.0156C9.99219 13.0781 9.98438 13.1406 9.96875 13.2031C9.96875 13.2656 9.95312 13.3281 9.92188 13.3906C9.89062 13.4531 9.85938 13.5156 9.82812 13.5781C9.79688 13.625 9.75781 13.6719 9.71094 13.7188C9.61719 13.7969 9.50781 13.8672 9.38281 13.9297C9.27344 13.9766 9.14844 14 9.00781 14C8.72656 14 8.48438 13.9062 8.28125 13.7188C8.09375 13.5156 8 13.2812 8 13.0156C8 13 8 12.9922 8 12.9922C8 12.7109 8.09375 12.4766 8.28125 12.2891C8.48438 12.0859 8.72656 11.9844 9.00781 11.9844C9.14844 11.9844 9.27344 12.0156 9.38281 12.0781C9.50781 12.125 9.61719 12.1953 9.71094 12.2891ZM13.7188 12.2891C13.7969 12.3828 13.8594 12.4922 13.9062 12.6172C13.9688 12.7266 14 12.8516 14 12.9922C14 13.0078 14 13.0156 14 13.0156C14 13.0781 13.9922 13.1406 13.9766 13.2031C13.9609 13.2656 13.9375 13.3281 13.9062 13.3906H13.9297C13.8984 13.4531 13.8594 13.5156 13.8125 13.5781C13.7812 13.625 13.75 13.6719 13.7188 13.7188C13.625 13.7969 13.5156 13.8672 13.3906 13.9297C13.2656 13.9766 13.1328 14 12.9922 14C12.7266 14 12.4922 13.9062 12.2891 13.7188C12.1016 13.5156 12.0078 13.2812 12.0078 13.0156C12.0078 13 12.0078 12.9922 12.0078 12.9922C12.0078 12.7109 12.1016 12.4766 12.2891 12.2891C12.4922 12.0859 12.7266 11.9844 12.9922 11.9844C13.1328 11.9844 13.2656 12.0156 13.3906 12.0781C13.5156 12.125 13.625 12.1953 13.7188 12.2891Z" fill="#8091A7"/>
</svg>
