<svg width="18" height="19" viewBox="0 0 18 19" fill="none" xmlns="http://www.w3.org/2000/svg">
<path d="M14.5078 18.9922H3.49219C2.53906 18.9922 1.71875 18.6562 1.03125 17.9844C0.34375 17.2969 0 16.4688 0 15.5V4.50781C0 3.53906 0.34375 2.71094 1.03125 2.02344C1.71875 1.33594 2.53906 0.992188 3.49219 0.992188H14.5078C15.4609 0.992188 16.2812 1.33594 16.9688 2.02344C17.6562 2.71094 18 3.53906 18 4.50781V15.5C18 16.4688 17.6562 17.2969 16.9688 17.9844C16.2812 18.6562 15.4609 18.9922 14.5078 18.9922ZM3.49219 3.00781C3.08594 3.00781 2.73438 3.15625 2.4375 3.45312C2.14062 3.73438 1.99219 4.08594 1.99219 4.50781V15.5C1.99219 15.9062 2.14062 16.2578 2.4375 16.5547C2.73438 16.8516 3.08594 17 3.49219 17H14.5078C14.9141 17 15.2656 16.8516 15.5625 16.5547C15.8594 16.2578 16.0078 15.9062 16.0078 15.5V4.50781C16.0078 4.08594 15.8594 3.73438 15.5625 3.45312C15.2656 3.15625 14.9141 3.00781 14.5078 3.00781H3.49219ZM5.20312 10.9766C5.23438 10.9766 5.26562 10.9688 5.29688 10.9531C5.32812 10.9375 5.35938 10.9297 5.39062 10.9297C5.42188 10.9141 5.45312 10.8984 5.48438 10.8828C5.51562 10.8672 5.53906 10.8516 5.55469 10.8359C5.58594 10.8047 5.60938 10.7812 5.625 10.7656C5.65625 10.75 5.6875 10.7344 5.71875 10.7188C5.75 10.6719 5.78125 10.625 5.8125 10.5781C5.85938 10.5156 5.89062 10.4531 5.90625 10.3906H5.92969C5.94531 10.3281 5.96094 10.2656 5.97656 10.2031C5.99219 10.1406 6 10.0703 6 9.99219C6 9.85156 5.96875 9.72656 5.90625 9.61719C5.85938 9.49219 5.79688 9.38281 5.71875 9.28906C5.625 9.21094 5.51562 9.14844 5.39062 9.10156C5.26562 9.03906 5.13281 9.00781 4.99219 9.00781C4.86719 9.00781 4.74219 9.03906 4.61719 9.10156C4.49219 9.14844 4.38281 9.21094 4.28906 9.28906C4.27344 9.32031 4.25 9.35156 4.21875 9.38281C4.20312 9.39844 4.1875 9.42188 4.17188 9.45312C4.15625 9.46875 4.14062 9.49219 4.125 9.52344C4.10938 9.55469 4.09375 9.58594 4.07812 9.61719C4.0625 9.64844 4.04688 9.67969 4.03125 9.71094C4.03125 9.74219 4.03125 9.77344 4.03125 9.80469C4.01562 9.83594 4.00781 9.86719 4.00781 9.89844C4.00781 9.92969 4.00781 9.96094 4.00781 9.99219C4.00781 10.0703 4.01562 10.1406 4.03125 10.2031C4.04688 10.2656 4.0625 10.3281 4.07812 10.3906C4.10938 10.4531 4.14062 10.5156 4.17188 10.5781C4.20312 10.625 4.24219 10.6719 4.28906 10.7188C4.38281 10.7969 4.48438 10.8672 4.59375 10.9297C4.71875 10.9766 4.85156 11 4.99219 11C5.03906 11 5.07812 11 5.10938 11C5.14062 10.9844 5.17188 10.9766 5.20312 10.9766ZM9.375 10.9297C9.5 10.8828 9.60938 10.8125 9.70312 10.7188C9.79688 10.625 9.86719 10.5156 9.91406 10.3906C9.94531 10.3281 9.96875 10.2656 9.98438 10.2031C10 10.1406 10.0078 10.0703 10.0078 9.99219C10.0078 9.96094 10 9.92969 9.98438 9.89844C9.98438 9.86719 9.98438 9.82812 9.98438 9.78125V9.80469C9.96875 9.77344 9.95312 9.74219 9.9375 9.71094C9.9375 9.67969 9.92969 9.64844 9.91406 9.61719C9.91406 9.58594 9.90625 9.55469 9.89062 9.52344C9.875 9.49219 9.85156 9.46875 9.82031 9.45312C9.80469 9.42188 9.78906 9.39844 9.77344 9.38281C9.75781 9.35156 9.73438 9.32031 9.70312 9.28906C9.65625 9.24219 9.60156 9.20312 9.53906 9.17188C9.49219 9.14062 9.44531 9.10938 9.39844 9.07812H9.375C9.32812 9.04688 9.26562 9.03125 9.1875 9.03125C9.125 9.01562 9.0625 9.00781 9 9.00781C8.71875 9.00781 8.47656 9.10156 8.27344 9.28906C8.08594 9.47656 7.99219 9.71094 7.99219 9.99219C7.99219 10.0703 8 10.1406 8.01562 10.2031C8.03125 10.2656 8.05469 10.3281 8.08594 10.3906C8.10156 10.4531 8.125 10.5156 8.15625 10.5781C8.20312 10.625 8.25 10.6719 8.29688 10.7188C8.3125 10.7344 8.33594 10.7578 8.36719 10.7891C8.39844 10.8047 8.42188 10.8203 8.4375 10.8359H8.46094C8.47656 10.8516 8.5 10.8672 8.53125 10.8828C8.5625 10.8984 8.59375 10.9141 8.625 10.9297C8.64062 10.9297 8.66406 10.9375 8.69531 10.9531C8.72656 10.9688 8.75781 10.9766 8.78906 10.9766C8.82031 10.9766 8.85156 10.9844 8.88281 11C8.92969 11 8.96875 11 9 11C9.0625 11 9.125 10.9922 9.1875 10.9766C9.26562 10.9609 9.32812 10.9375 9.375 10.9062V10.9297ZM13.1953 10.9766C13.2266 10.9766 13.2578 10.9688 13.2891 10.9531C13.3203 10.9375 13.3516 10.9297 13.3828 10.9297C13.4141 10.9141 13.4453 10.8984 13.4766 10.8828C13.5078 10.8672 13.5312 10.8516 13.5469 10.8359C13.5781 10.8203 13.6016 10.8047 13.6172 10.7891C13.6484 10.7578 13.6797 10.7344 13.7109 10.7188C13.7578 10.6719 13.7969 10.625 13.8281 10.5781C13.8594 10.5156 13.8906 10.4531 13.9219 10.3906C13.9531 10.3281 13.9688 10.2656 13.9688 10.2031C13.9844 10.1406 13.9922 10.0781 13.9922 10.0156C13.9922 10.0156 13.9922 10.0078 13.9922 9.99219C13.9922 9.96094 13.9922 9.92969 13.9922 9.89844C13.9922 9.86719 13.9844 9.82812 13.9688 9.78125V9.80469C13.9688 9.77344 13.9609 9.74219 13.9453 9.71094C13.9453 9.67969 13.9375 9.64844 13.9219 9.61719C13.9062 9.58594 13.8906 9.55469 13.875 9.52344C13.8594 9.49219 13.8438 9.46875 13.8281 9.45312C13.8125 9.42188 13.7891 9.39844 13.7578 9.38281C13.7422 9.35156 13.7266 9.32031 13.7109 9.28906C13.6172 9.19531 13.5078 9.125 13.3828 9.07812C13.2578 9.03125 13.1328 9.00781 13.0078 9.00781C12.8672 9.00781 12.7344 9.03125 12.6094 9.07812C12.4844 9.125 12.375 9.19531 12.2812 9.28906C12.2656 9.32031 12.2422 9.35156 12.2109 9.38281C12.1953 9.39844 12.1797 9.42188 12.1641 9.45312C12.1484 9.46875 12.1328 9.49219 12.1172 9.52344C12.1016 9.55469 12.0859 9.58594 12.0703 9.61719C12.0703 9.64844 12.0625 9.67969 12.0469 9.71094C12.0312 9.74219 12.0234 9.77344 12.0234 9.80469C12.0078 9.83594 12 9.86719 12 9.89844C12 9.92969 12 9.96094 12 9.99219C12 10.0703 12.0078 10.1406 12.0234 10.2031C12.0391 10.2656 12.0625 10.3281 12.0938 10.3906H12.0703C12.1172 10.5156 12.1875 10.625 12.2812 10.7188C12.375 10.8125 12.4844 10.8828 12.6094 10.9297C12.6719 10.9453 12.7344 10.9609 12.7969 10.9766C12.8594 10.9922 12.9297 11 13.0078 11C13.0391 11 13.0703 11 13.1016 11C13.1328 10.9844 13.1641 10.9766 13.1953 10.9766ZM5.71875 6.71094C5.79688 6.61719 5.85938 6.51562 5.90625 6.40625C5.96875 6.28125 6 6.14844 6 6.00781C6 5.86719 5.96875 5.73438 5.90625 5.60938C5.85938 5.48438 5.79688 5.375 5.71875 5.28125C5.625 5.20312 5.51562 5.14062 5.39062 5.09375C5.26562 5.04688 5.13281 5.02344 4.99219 5.02344C4.86719 5.02344 4.74219 5.04688 4.61719 5.09375C4.49219 5.14062 4.38281 5.20312 4.28906 5.28125C4.19531 5.375 4.125 5.48438 4.07812 5.60938C4.03125 5.73438 4.00781 5.86719 4.00781 6.00781C4.00781 6.28906 4.10156 6.52344 4.28906 6.71094C4.47656 6.89844 4.71094 6.99219 4.99219 6.99219C5.13281 6.99219 5.26562 6.96875 5.39062 6.92188C5.51562 6.875 5.625 6.80469 5.71875 6.71094ZM9.375 6.92188C9.4375 6.89062 9.49219 6.85938 9.53906 6.82812C9.60156 6.79688 9.65625 6.75781 9.70312 6.71094C9.79688 6.61719 9.86719 6.51562 9.91406 6.40625C9.97656 6.28125 10.0078 6.14844 10.0078 6.00781C10.0078 5.86719 9.97656 5.73438 9.91406 5.60938C9.86719 5.48438 9.79688 5.375 9.70312 5.28125C9.65625 5.25 9.60156 5.21875 9.53906 5.1875C9.49219 5.14062 9.44531 5.10938 9.39844 5.09375L9.375 5.07031C9.32812 5.05469 9.26562 5.03906 9.1875 5.02344C9.125 5.00781 9.0625 5 9 5C8.85938 5 8.72656 5.03125 8.60156 5.09375C8.49219 5.14062 8.39062 5.20312 8.29688 5.28125C8.20312 5.375 8.125 5.48438 8.0625 5.60938C8.01562 5.73438 7.99219 5.86719 7.99219 6.00781C7.99219 6.28906 8.08594 6.52344 8.27344 6.71094C8.47656 6.89844 8.71875 6.99219 9 6.99219C9.0625 6.99219 9.125 6.98438 9.1875 6.96875C9.26562 6.95312 9.32812 6.9375 9.375 6.92188ZM13.3828 6.92188C13.4453 6.89062 13.5 6.85938 13.5469 6.82812C13.6094 6.79688 13.6641 6.75781 13.7109 6.71094C13.7266 6.67969 13.7422 6.65625 13.7578 6.64062C13.7891 6.60938 13.8125 6.57812 13.8281 6.54688C13.8438 6.53125 13.8594 6.50781 13.875 6.47656C13.8906 6.44531 13.9062 6.41406 13.9219 6.38281C13.9375 6.35156 13.9453 6.32031 13.9453 6.28906C13.9609 6.25781 13.9688 6.22656 13.9688 6.19531C13.9844 6.16406 13.9922 6.13281 13.9922 6.10156C13.9922 6.07031 13.9922 6.03906 13.9922 6.00781C13.9922 5.96094 13.9922 5.92188 13.9922 5.89062C13.9922 5.85938 13.9844 5.82812 13.9688 5.79688C13.9688 5.76562 13.9609 5.73438 13.9453 5.70312C13.9453 5.67188 13.9375 5.64062 13.9219 5.60938C13.9062 5.57812 13.8906 5.54688 13.875 5.51562C13.8594 5.48438 13.8438 5.46094 13.8281 5.44531C13.8125 5.41406 13.7891 5.39062 13.7578 5.375C13.7422 5.34375 13.7266 5.3125 13.7109 5.28125C13.6641 5.25 13.6094 5.21875 13.5469 5.1875C13.5 5.14062 13.4453 5.10938 13.3828 5.09375V5.07031C13.3203 5.05469 13.2578 5.03906 13.1953 5.02344C13.1328 5.00781 13.0703 5 13.0078 5C12.9297 5 12.8594 5.00781 12.7969 5.02344C12.7344 5.03906 12.6719 5.0625 12.6094 5.09375V5.07031C12.5469 5.10156 12.4844 5.14062 12.4219 5.1875C12.375 5.21875 12.3281 5.25 12.2812 5.28125C12.2656 5.3125 12.25 5.34375 12.2344 5.375C12.2188 5.39062 12.1953 5.41406 12.1641 5.44531C12.1484 5.46094 12.1328 5.48438 12.1172 5.51562C12.1016 5.54688 12.0859 5.57812 12.0703 5.60938C12.0703 5.64062 12.0625 5.67188 12.0469 5.70312C12.0312 5.73438 12.0234 5.76562 12.0234 5.79688C12.0234 5.82812 12.0156 5.85938 12 5.89062C12 5.92188 12 5.96094 12 6.00781C12 6.03906 12 6.07031 12 6.10156C12.0156 6.13281 12.0234 6.17188 12.0234 6.21875V6.19531C12.0234 6.22656 12.0312 6.25781 12.0469 6.28906C12.0625 6.32031 12.0703 6.35156 12.0703 6.38281C12.0859 6.41406 12.1016 6.44531 12.1172 6.47656C12.1328 6.50781 12.1484 6.53125 12.1641 6.54688C12.1797 6.57812 12.1953 6.60938 12.2109 6.64062C12.2422 6.65625 12.2656 6.67969 12.2812 6.71094C12.3281 6.75781 12.375 6.79688 12.4219 6.82812C12.4844 6.85938 12.5469 6.89062 12.6094 6.92188C12.6719 6.95312 12.7344 6.97656 12.7969 6.99219C12.8594 6.99219 12.9297 6.99219 13.0078 6.99219C13.0703 6.99219 13.1328 6.99219 13.1953 6.99219C13.2578 6.97656 13.3203 6.95312 13.3828 6.92188ZM5.71875 14.7031C5.79688 14.6094 5.85938 14.5078 5.90625 14.3984C5.96875 14.2734 6 14.1406 6 14C6 13.9688 5.99219 13.9375 5.97656 13.9062C5.97656 13.8594 5.97656 13.8203 5.97656 13.7891C5.97656 13.7578 5.96875 13.7266 5.95312 13.6953C5.9375 13.6641 5.92969 13.6406 5.92969 13.625C5.91406 13.5938 5.89844 13.5625 5.88281 13.5312C5.86719 13.5 5.85156 13.4688 5.83594 13.4375V13.4609C5.80469 13.4297 5.78125 13.3984 5.76562 13.3672C5.75 13.3359 5.73438 13.3125 5.71875 13.2969C5.625 13.2031 5.51562 13.1328 5.39062 13.0859C5.26562 13.0391 5.13281 13.0156 4.99219 13.0156C4.92969 13.0156 4.86719 13.0234 4.80469 13.0391C4.74219 13.0391 4.67969 13.0547 4.61719 13.0859C4.55469 13.1016 4.49219 13.1328 4.42969 13.1797C4.38281 13.2109 4.33594 13.25 4.28906 13.2969C4.27344 13.3125 4.25 13.3359 4.21875 13.3672C4.20312 13.3984 4.1875 13.4219 4.17188 13.4375V13.4609C4.15625 13.4766 4.14062 13.5 4.125 13.5312C4.10938 13.5625 4.09375 13.5938 4.07812 13.625C4.0625 13.6406 4.04688 13.6641 4.03125 13.6953C4.03125 13.7266 4.03125 13.7578 4.03125 13.7891C4.01562 13.8203 4.00781 13.8594 4.00781 13.9062C4.00781 13.9375 4.00781 13.9688 4.00781 14C4.00781 14.1406 4.03125 14.2734 4.07812 14.3984C4.125 14.5078 4.19531 14.6094 4.28906 14.7031C4.33594 14.75 4.38281 14.7891 4.42969 14.8203C4.49219 14.8516 4.55469 14.8828 4.61719 14.9141C4.67969 14.9453 4.74219 14.9688 4.80469 14.9844C4.86719 15 4.92969 15.0078 4.99219 15.0078C5.13281 15.0078 5.26562 14.9844 5.39062 14.9375C5.51562 14.875 5.625 14.7969 5.71875 14.7031ZM9.375 14.9141C9.4375 14.8984 9.49219 14.875 9.53906 14.8438C9.60156 14.7969 9.65625 14.75 9.70312 14.7031C9.79688 14.6094 9.86719 14.5078 9.91406 14.3984C9.97656 14.2734 10.0078 14.1406 10.0078 14C10.0078 13.9688 10 13.9375 9.98438 13.9062C9.98438 13.8594 9.98438 13.8203 9.98438 13.7891C9.96875 13.7578 9.95312 13.7266 9.9375 13.6953C9.9375 13.6641 9.92969 13.6406 9.91406 13.625C9.91406 13.5938 9.90625 13.5625 9.89062 13.5312C9.875 13.5 9.85156 13.4688 9.82031 13.4375V13.4609C9.80469 13.4297 9.78906 13.3984 9.77344 13.3672C9.75781 13.3359 9.73438 13.3125 9.70312 13.2969C9.65625 13.25 9.60156 13.2109 9.53906 13.1797C9.49219 13.1484 9.44531 13.1172 9.39844 13.0859H9.375C9.32812 13.0547 9.26562 13.0391 9.1875 13.0391C9.125 13.0234 9.0625 13.0156 9 13.0156C8.85938 13.0156 8.72656 13.0391 8.60156 13.0859C8.49219 13.1328 8.39062 13.2031 8.29688 13.2969C8.26562 13.3125 8.24219 13.3359 8.22656 13.3672C8.21094 13.3984 8.19531 13.4297 8.17969 13.4609C8.14844 13.4766 8.125 13.5 8.10938 13.5312C8.09375 13.5625 8.08594 13.5938 8.08594 13.625C8.07031 13.6406 8.05469 13.6641 8.03906 13.6953C8.03906 13.7266 8.03125 13.7578 8.01562 13.7891C8.01562 13.8203 8.00781 13.8594 7.99219 13.9062C7.99219 13.9375 7.99219 13.9688 7.99219 14C7.99219 14.1406 8.01562 14.2734 8.0625 14.3984C8.125 14.5078 8.20312 14.6094 8.29688 14.7031C8.39062 14.7969 8.49219 14.875 8.60156 14.9375C8.72656 14.9844 8.85938 15.0078 9 15.0078C9.0625 15.0078 9.125 15 9.1875 14.9844C9.26562 14.9688 9.32812 14.9453 9.375 14.9141ZM13.3828 14.9141C13.5078 14.8672 13.6172 14.7969 13.7109 14.7031C13.8047 14.6094 13.875 14.5 13.9219 14.375C13.9375 14.3281 13.9531 14.2734 13.9688 14.2109C13.9844 14.1328 13.9922 14.0625 13.9922 14C13.9922 13.8594 13.9688 13.7344 13.9219 13.625C13.875 13.5 13.8047 13.3906 13.7109 13.2969C13.6641 13.25 13.6094 13.2109 13.5469 13.1797C13.5 13.1328 13.4453 13.1016 13.3828 13.0859C13.3203 13.0547 13.2578 13.0391 13.1953 13.0391C13.1328 13.0234 13.0703 13.0156 13.0078 13.0156C12.8672 13.0156 12.7344 13.0391 12.6094 13.0859C12.4844 13.1328 12.375 13.2031 12.2812 13.2969C12.2031 13.3906 12.1328 13.5 12.0703 13.625C12.0234 13.7344 12 13.8594 12 14C12 14.0625 12.0078 14.1328 12.0234 14.2109C12.0391 14.2734 12.0625 14.3281 12.0938 14.375H12.0703C12.1016 14.4375 12.1328 14.5 12.1641 14.5625C12.2109 14.6094 12.25 14.6562 12.2812 14.7031C12.375 14.7969 12.4844 14.875 12.6094 14.9375C12.7344 14.9844 12.8672 15.0078 13.0078 15.0078C13.0703 15.0078 13.1328 15 13.1953 14.9844C13.2578 14.9688 13.3203 14.9453 13.3828 14.9141Z" fill="#8091A7"/>
</svg>
