<svg width="15" height="15" viewBox="0 0 15 15" fill="none" xmlns="http://www.w3.org/2000/svg">
<path d="M7.45 0.922168C6.48177 0.922168 5.56855 1.10371 4.71035 1.4668C3.85215 1.84089 3.10397 2.34701 2.46582 2.98516C1.82767 3.62331 1.32705 4.36598 0.963965 5.21318C0.589876 6.07139 0.402832 6.9846 0.402832 7.95283C0.402832 8.93206 0.589876 9.84528 0.963965 10.6925C1.32705 11.5507 1.82767 12.2989 2.46582 12.937C3.10397 13.5752 3.85215 14.0758 4.71035 14.4389C5.56855 14.813 6.48177 15 7.45 15C8.41823 15 9.33145 14.813 10.1896 14.4389C11.0479 14.0758 11.796 13.5752 12.4342 12.937C13.0723 12.2989 13.5729 11.5507 13.936 10.6925C14.3101 9.84528 14.4972 8.93206 14.4972 7.95283C14.4972 6.9846 14.3101 6.07139 13.936 5.21318C13.5619 4.36598 13.0558 3.62331 12.4177 2.98516C11.7905 2.34701 11.0479 1.84089 10.1896 1.4668C9.33145 1.10371 8.41823 0.922168 7.45 0.922168ZM13.0283 7.25967H10.6353C10.5582 6.37946 10.3822 5.54326 10.1071 4.75107C9.83206 3.94788 9.46898 3.20521 9.01787 2.52305L9.05088 2.55605C9.579 2.72109 10.0686 2.95215 10.5197 3.24922C10.9818 3.54629 11.3834 3.89837 11.7245 4.30547C12.0766 4.71257 12.3627 5.16367 12.5827 5.65879C12.8138 6.15391 12.9623 6.67653 13.0283 7.22666V7.25967ZM5.66758 8.6625H9.23242C9.1444 9.53171 8.94635 10.3514 8.63828 11.1216C8.33021 11.8808 7.92861 12.5794 7.4335 13.2176L7.45 13.2011C6.96589 12.5739 6.56979 11.8808 6.26172 11.1216C5.95365 10.3514 5.7556 9.54271 5.66758 8.69551V8.6625ZM5.66758 7.25967C5.7556 6.39046 5.95365 5.57627 6.26172 4.81709C6.56979 4.04691 6.97139 3.34274 7.4665 2.70459L7.45 2.72109C7.93411 3.34824 8.33021 4.04691 8.63828 4.81709C8.94635 5.57627 9.1444 6.37396 9.23242 7.21016V7.25967H5.66758ZM5.84912 2.55605C5.42002 3.22721 5.06794 3.95889 4.79287 4.75107C4.51781 5.53226 4.34176 6.35195 4.26475 7.21016V7.25967H1.87168C1.9377 6.69854 2.08623 6.17041 2.31729 5.67529C2.53734 5.16917 2.8179 4.71257 3.15898 4.30547C3.51107 3.89837 3.91266 3.54629 4.36377 3.24922C4.80387 2.95215 5.28799 2.7266 5.81611 2.57256L5.84912 2.55605ZM1.87168 8.6625H4.26475C4.34176 9.54271 4.51781 10.3789 4.79287 11.1711C5.06794 11.9633 5.43102 12.706 5.88213 13.3991L5.84912 13.3496C5.321 13.1956 4.83138 12.97 4.38027 12.6729C3.91816 12.3649 3.51107 12.0128 3.15898 11.6167C2.8179 11.2096 2.53734 10.7585 2.31729 10.2634C2.08623 9.76826 1.9377 9.24564 1.87168 8.69551V8.6625ZM9.05088 13.3496C9.47998 12.6895 9.83206 11.9688 10.1071 11.1876C10.3822 10.3954 10.5582 9.56471 10.6353 8.69551V8.6625H13.0283C12.9623 9.22363 12.8138 9.75176 12.5827 10.2469C12.3627 10.742 12.0766 11.1931 11.7245 11.6002C11.3834 12.0073 10.9873 12.3594 10.5362 12.6564C10.0961 12.9535 9.61201 13.1846 9.08389 13.3496H9.05088Z" fill="#6576FF"/>
</svg>
