<svg width="18" height="20" viewBox="0 0 18 20" fill="none" xmlns="http://www.w3.org/2000/svg">
<path d="M9.58594 15.1953L13.1953 13.1094C13.3828 13 13.5234 12.8594 13.6172 12.6875C13.7266 12.5 13.7812 12.2969 13.7812 12.0781V2.42188L15.1875 3.21875V12.6875C15.1875 12.9688 15.1172 13.2266 14.9766 13.4609C14.8359 13.6953 14.6484 13.875 14.4141 14L9.77344 16.6953C9.66406 16.7578 9.53906 16.8125 9.39844 16.8594C9.27344 16.8906 9.14062 16.9062 9 16.9062C8.85938 16.9062 8.71875 16.8906 8.57812 16.8594C8.45312 16.8125 8.33594 16.7578 8.22656 16.6953L3.58594 14C3.35156 13.875 3.16406 13.6953 3.02344 13.4609C2.88281 13.2266 2.8125 12.9688 2.8125 12.6875V7.32031C2.8125 7.03906 2.88281 6.78125 3.02344 6.54688C3.16406 6.3125 3.35156 6.125 3.58594 5.98438L8.22656 3.3125C8.33594 3.25 8.45312 3.20313 8.57812 3.17188C8.71875 3.125 8.85938 3.10156 9 3.10156C9.10938 3.10156 9.21875 3.11719 9.32812 3.14844C9.4375 3.16406 9.53906 3.19531 9.63281 3.24219V4.83594L9.58594 4.8125C9.50781 4.76562 9.41406 4.72656 9.30469 4.69531C9.21094 4.66406 9.10938 4.64844 9 4.64844C8.89062 4.64844 8.78125 4.66406 8.67188 4.69531C8.57812 4.72656 8.49219 4.76562 8.41406 4.8125L4.80469 6.89844C4.61719 6.99219 4.46875 7.13281 4.35938 7.32031C4.26562 7.49219 4.21875 7.6875 4.21875 7.90625V12.0781C4.21875 12.2969 4.26562 12.5 4.35938 12.6875C4.46875 12.8594 4.61719 13 4.80469 13.1094L8.41406 15.1953C8.49219 15.2422 8.57812 15.2812 8.67188 15.3125C8.78125 15.3438 8.89062 15.3594 9 15.3594C9.10938 15.3594 9.21094 15.3438 9.30469 15.3125C9.41406 15.2812 9.50781 15.2422 9.58594 15.1953ZM16.5703 4.03906V13.2969C16.5703 13.6406 16.4844 13.9531 16.3125 14.2344C16.1406 14.5156 15.9141 14.7422 15.6328 14.9141L9.9375 18.1953C9.79688 18.2734 9.64844 18.3359 9.49219 18.3828C9.33594 18.4297 9.17188 18.4531 9 18.4531C8.82812 18.4531 8.66406 18.4297 8.50781 18.3828C8.35156 18.3359 8.20312 18.2734 8.0625 18.1953L2.36719 14.9141C2.08594 14.7422 1.85938 14.5156 1.6875 14.2344C1.51562 13.9531 1.42969 13.6406 1.42969 13.2969V6.71094C1.42969 6.36719 1.51562 6.05469 1.6875 5.77344C1.85938 5.47656 2.08594 5.25 2.36719 5.09375L8.0625 1.8125C8.20312 1.71875 8.35156 1.65625 8.50781 1.625C8.66406 1.57812 8.82812 1.55469 9 1.55469C9.17188 1.55469 9.33594 1.57812 9.49219 1.625C9.64844 1.67188 9.79688 1.73437 9.9375 1.8125L11.0156 2.42188V10.8828C11.0156 10.9609 10.9922 11.0391 10.9453 11.1172C10.8984 11.1953 10.8359 11.2578 10.7578 11.3047L9.25781 12.1719C9.21094 12.2031 9.16406 12.2266 9.11719 12.2422C9.08594 12.2422 9.04688 12.2422 9 12.2422C8.95312 12.2422 8.90625 12.2422 8.85938 12.2422C8.82812 12.2266 8.78906 12.2031 8.74219 12.1719L7.24219 11.3047C7.16406 11.2578 7.10156 11.1953 7.05469 11.1172C7.00781 11.0391 6.98438 10.9609 6.98438 10.8828V9.125C6.98438 9.03125 7.00781 8.94531 7.05469 8.86719C7.10156 8.78906 7.16406 8.73438 7.24219 8.70312L8.74219 7.8125C8.78906 7.79688 8.82812 7.78125 8.85938 7.76562C8.90625 7.75 8.95312 7.74219 9 7.74219C9.04688 7.74219 9.08594 7.75 9.11719 7.76562C9.16406 7.78125 9.21094 7.79688 9.25781 7.8125L9.63281 8.02344V6.42969L9.42188 6.3125C9.35938 6.28125 9.28906 6.25781 9.21094 6.24219C9.14844 6.21094 9.07812 6.19531 9 6.19531C8.92188 6.19531 8.84375 6.21094 8.76562 6.24219C8.70312 6.25781 8.64062 6.28125 8.57812 6.3125L6.02344 7.78906C5.89844 7.86719 5.79688 7.96875 5.71875 8.09375C5.64062 8.21875 5.60156 8.35938 5.60156 8.51562V11.4688C5.60156 11.625 5.64062 11.7734 5.71875 11.9141C5.79688 12.0391 5.89844 12.1406 6.02344 12.2188L8.57812 13.6953C8.64062 13.7266 8.70312 13.75 8.76562 13.7656C8.84375 13.7812 8.92188 13.7891 9 13.7891C9.07812 13.7891 9.14844 13.7812 9.21094 13.7656C9.28906 13.75 9.35938 13.7188 9.42188 13.6719V13.6953L11.9766 12.2188C12.1016 12.1406 12.2031 12.0391 12.2812 11.9141C12.3594 11.7734 12.3984 11.625 12.3984 11.4688V1.625L10.1016 0.289062C9.94531 0.195312 9.77344 0.125 9.58594 0.078125C9.39844 0.03125 9.20312 0.0078125 9 0.0078125C8.79688 0.0078125 8.60156 0.03125 8.41406 0.078125C8.22656 0.125 8.04688 0.203125 7.875 0.3125L7.89844 0.289062L1.14844 4.17969C0.820312 4.38281 0.554688 4.65625 0.351562 5C0.148438 5.32812 0.046875 5.69531 0.046875 6.10156V13.8828C0.046875 14.2891 0.148438 14.6641 0.351562 15.0078C0.554688 15.3516 0.820312 15.6172 1.14844 15.8047L7.89844 19.6953C8.05469 19.7891 8.22656 19.8672 8.41406 19.9297C8.60156 19.9766 8.79688 20 9 20C9.20312 20 9.39844 19.9766 9.58594 19.9297C9.77344 19.8672 9.95312 19.7891 10.125 19.6953H10.1016L16.8516 15.8047C17.1797 15.6172 17.4453 15.3516 17.6484 15.0078C17.8516 14.6641 17.9531 14.2891 17.9531 13.8828V4.83594L16.5703 4.03906Z" fill="#8091A7"/>
</svg>
