<svg width="16" height="20" viewBox="0 0 16 20" fill="none" xmlns="http://www.w3.org/2000/svg">
<path d="M10.8594 18.7578L10.1094 15.9922L8.39844 16.4375L9.14844 19.2031L7.76562 19.5781L7.03906 16.8125L3.61719 17.7266L3.47656 15.9688L4.36719 15.7344C4.52344 15.7031 4.66406 15.6484 4.78906 15.5703C4.91406 15.4922 5.01562 15.3906 5.09375 15.2656C5.125 15.2031 5.14844 15.1406 5.16406 15.0781C5.17969 15 5.1875 14.9219 5.1875 14.8438C5.1875 14.7969 5.17969 14.75 5.16406 14.7031C5.16406 14.6562 5.15625 14.6094 5.14062 14.5625H5.16406L3.24219 7.39062C3.21094 7.21875 3.14844 7.0625 3.05469 6.92188C2.96094 6.78125 2.85156 6.66406 2.72656 6.57031C2.61719 6.52344 2.50781 6.48438 2.39844 6.45312C2.28906 6.42188 2.17188 6.40625 2.04688 6.40625C1.95312 6.40625 1.85938 6.42188 1.76562 6.45312C1.67188 6.46875 1.57812 6.49219 1.48438 6.52344L1.50781 6.5L0.6875 6.73438L0.289062 5.28125L3.71094 4.36719L2.96094 1.60156L4.27344 1.25L5.02344 4.01562L6.73438 3.54688L6.00781 0.78125L7.36719 0.429688L8.11719 3.21875L8.28125 3.19531C8.5 3.13281 8.72656 3.08594 8.96094 3.05469C9.19531 3.02344 9.4375 3.00781 9.6875 3.00781C10.0156 3.00781 10.3359 3.03906 10.6484 3.10156C10.9609 3.14844 11.2656 3.22656 11.5625 3.33594L11.5156 3.3125C11.9375 3.5 12.2891 3.78125 12.5703 4.15625C12.8516 4.51563 13.0234 4.92969 13.0859 5.39844V5.42188C13.1016 5.5 13.1094 5.58594 13.1094 5.67969C13.125 5.75781 13.1328 5.85156 13.1328 5.96094C13.1328 6.11719 13.1172 6.27344 13.0859 6.42969C13.0703 6.57031 13.0391 6.71094 12.9922 6.85156V6.82812C12.8984 7.01562 12.7891 7.19531 12.6641 7.36719C12.5391 7.53906 12.4062 7.70312 12.2656 7.85938L11.9141 8.21094L12.4062 8.1875C12.4219 8.1875 12.4375 8.1875 12.4531 8.1875C12.4688 8.1875 12.4922 8.1875 12.5234 8.1875C12.7734 8.1875 13.0156 8.21094 13.25 8.25781C13.5 8.30469 13.7344 8.36719 13.9531 8.44531H13.9297C14.3203 8.61719 14.6562 8.875 14.9375 9.21875C15.2188 9.54688 15.4062 9.92188 15.5 10.3438V10.3672C15.5781 10.5391 15.6328 10.7344 15.6641 10.9531C15.7109 11.1562 15.7344 11.3672 15.7344 11.5859C15.7344 11.9609 15.6719 12.3203 15.5469 12.6641C15.4375 12.9922 15.2734 13.2969 15.0547 13.5781V13.5547C14.7422 13.9141 14.3906 14.2266 14 14.4922C13.625 14.7578 13.2109 14.9688 12.7578 15.125L12.7344 15.1484C12.6562 15.1797 12.5703 15.2109 12.4766 15.2422C12.3984 15.2734 12.3203 15.3047 12.2422 15.3359H12.1953C12.1172 15.3672 12.0312 15.3984 11.9375 15.4297C11.8438 15.4609 11.7422 15.4922 11.6328 15.5234L11.4688 15.5938L12.2188 18.3828L10.8594 18.7578ZM8.07031 10.3438C7.77344 10.4219 7.51562 10.5 7.29688 10.5781C7.09375 10.6406 6.99219 10.6719 6.99219 10.6719L6.80469 10.7188L7.90625 14.8203L8.11719 14.7734C8.11719 14.7734 8.33594 14.7109 8.77344 14.5859C9.22656 14.4609 9.64844 14.3359 10.0391 14.2109C10.4141 14.0859 10.7578 13.9375 11.0703 13.7656C11.3984 13.5938 11.7031 13.3906 11.9844 13.1562H11.9609C12.1484 13.0156 12.2969 12.8359 12.4062 12.6172C12.5156 12.3984 12.5703 12.1641 12.5703 11.9141C12.5703 11.8047 12.5625 11.7031 12.5469 11.6094C12.5312 11.5156 12.5078 11.4297 12.4766 11.3516C12.3984 11.0234 12.2344 10.75 11.9844 10.5312C11.7344 10.2969 11.4375 10.1484 11.0938 10.0859C10.9531 10.0547 10.7969 10.0312 10.625 10.0156C10.4688 10 10.3047 9.99219 10.1328 9.99219C9.92969 9.99219 9.72656 10.0078 9.52344 10.0391C9.33594 10.0547 9.14844 10.0859 8.96094 10.1328H8.98438C8.84375 10.1641 8.69531 10.2031 8.53906 10.25C8.38281 10.2812 8.22656 10.3125 8.07031 10.3438ZM6.78125 5.1875C6.5 5.26562 6.24219 5.34375 6.00781 5.42188C5.77344 5.5 5.65625 5.53906 5.65625 5.53906L5.49219 5.60938L6.54688 9.3125L6.71094 9.26562C6.71094 9.26562 6.78906 9.25 6.94531 9.21875C7.10156 9.1875 7.28906 9.14062 7.50781 9.07812C7.61719 9.0625 7.72656 9.03906 7.83594 9.00781C7.94531 8.96094 8.05469 8.92188 8.16406 8.89062C8.50781 8.78125 8.82031 8.64844 9.10156 8.49219C9.39844 8.32031 9.67188 8.125 9.92188 7.90625C10.0781 7.75 10.2031 7.57031 10.2969 7.36719C10.3906 7.14844 10.4375 6.92188 10.4375 6.6875C10.4375 6.59375 10.4297 6.50781 10.4141 6.42969C10.3984 6.33594 10.375 6.25 10.3438 6.17188C10.2344 5.8125 10.0234 5.52344 9.71094 5.30469C9.41406 5.07031 9.07031 4.95312 8.67969 4.95312C8.67969 4.95312 8.67188 4.95312 8.65625 4.95312C8.64062 4.95312 8.625 4.95312 8.60938 4.95312C8.28125 4.95312 7.96094 4.97656 7.64844 5.02344C7.33594 5.07031 7.03125 5.13281 6.73438 5.21094L6.78125 5.1875Z" fill="#8091A7"/>
</svg>
