<svg width="22" height="20" viewBox="0 0 22 20" fill="none" xmlns="http://www.w3.org/2000/svg">
<path d="M20.8906 3.40625C20.8906 2.84375 20.7109 2.35156 20.3516 1.92969C19.9766 1.50781 19.4922 1.15625 18.8984 0.875C18.3047 0.578125 17.625 0.359375 16.8594 0.21875C16.1094 0.078125 15.3359 0.0078125 14.5391 0.0078125C13.7578 0.0078125 12.9844 0.078125 12.2188 0.21875C11.4688 0.359375 10.7891 0.578125 10.1797 0.875C9.58594 1.15625 9.10938 1.50781 8.75 1.92969C8.39062 2.36719 8.21094 2.86719 8.21094 3.42969L8.28125 7.22656C8.125 7.22656 7.96875 7.22656 7.8125 7.22656C7.65625 7.21094 7.5 7.20312 7.34375 7.20312C6.57812 7.20312 5.82031 7.26562 5.07031 7.39062C4.30469 7.51562 3.61719 7.70312 3.00781 7.95312C2.41406 8.20312 1.92969 8.52344 1.55469 8.91406C1.17969 9.30469 0.992188 9.76562 0.992188 10.2969V10.3203L1.10938 16.8828C1.10938 17.4297 1.29688 17.8984 1.67188 18.2891C2.04688 18.6797 2.53125 19 3.125 19.25C3.73438 19.5 4.41406 19.6875 5.16406 19.8125C5.92969 19.9375 6.69531 20 7.46094 20C8.64844 20 9.79688 19.8516 10.9062 19.5547C12.0312 19.2422 12.8438 18.7656 13.3438 18.125C13.5469 18.1562 13.7578 18.1797 13.9766 18.1953C14.1953 18.1953 14.4219 18.1953 14.6562 18.1953C15.4375 18.1953 16.2109 18.125 16.9766 17.9844C17.7422 17.8438 18.4219 17.6328 19.0156 17.3516C19.6094 17.0547 20.0859 16.6953 20.4453 16.2734C20.8203 15.8359 21.0078 15.3359 21.0078 14.7734L20.8906 3.40625ZM3.03125 12.1719C3.64062 12.4375 4.29688 12.6406 5 12.7812C5.70312 12.9219 6.42969 12.9922 7.17969 12.9922C7.21094 12.9922 7.24219 12.9922 7.27344 12.9922C7.32031 12.9922 7.36719 12.9922 7.41406 12.9922H7.39062C7.4375 12.9922 7.47656 12.9922 7.50781 12.9922C7.53906 12.9922 7.57812 12.9922 7.625 12.9922C8.35938 12.9922 9.07812 12.9219 9.78125 12.7812C10.4844 12.6406 11.1562 12.4375 11.7969 12.1719L11.7266 12.1953L11.75 14.0469C11.2188 14.375 10.625 14.6406 9.96875 14.8438C9.32812 15.0312 8.65625 15.125 7.95312 15.125C7.85938 15.125 7.75781 15.125 7.64844 15.125C7.55469 15.1094 7.46094 15.1016 7.36719 15.1016H7.39062C7.3125 15.1016 7.22656 15.1094 7.13281 15.125C7.03906 15.125 6.94531 15.125 6.85156 15.125C6.14844 15.125 5.47656 15.0312 4.83594 14.8438C4.19531 14.6562 3.59375 14.3906 3.03125 14.0469H3.05469L3.03125 12.1719ZM18.9219 7.46094C18.3906 7.80469 17.7969 8.07812 17.1406 8.28125C16.5 8.48438 15.8281 8.58594 15.125 8.58594C15.0312 8.58594 14.9375 8.58594 14.8438 8.58594C14.75 8.57031 14.6641 8.5625 14.5859 8.5625H14.6094C14.5938 8.5625 14.5859 8.5625 14.5859 8.5625C14.5859 8.5625 14.5781 8.5625 14.5625 8.5625C14.1875 8.5625 13.8125 8.54688 13.4375 8.51562C13.0625 8.46875 12.6953 8.40625 12.3359 8.32812H12.4062C12.1094 8.15625 11.7891 8.00781 11.4453 7.88281C11.1172 7.74219 10.7656 7.63281 10.3906 7.55469L10.3438 7.53125C10.3281 7.51562 10.3125 7.50781 10.2969 7.50781C10.2969 7.49219 10.2891 7.47656 10.2734 7.46094L10.2266 5.28125C10.8359 5.53125 11.4844 5.73438 12.1719 5.89062C12.875 6.03125 13.6016 6.10156 14.3516 6.10156C14.3828 6.10156 14.4141 6.10156 14.4453 6.10156C14.4922 6.10156 14.5312 6.10156 14.5625 6.10156C14.5938 6.10156 14.625 6.10156 14.6562 6.10156C14.7031 6.10156 14.7422 6.10156 14.7734 6.10156C15.5234 6.10156 16.25 6.03125 16.9531 5.89062C17.6562 5.73438 18.3281 5.51562 18.9688 5.23438L18.8984 5.25781L18.9219 7.46094ZM13.6953 10.2969C13.6953 10.25 13.6875 10.2031 13.6719 10.1562C13.6719 10.1094 13.6641 10.0625 13.6484 10.0156H13.6719C13.8125 10.0312 13.9609 10.0469 14.1172 10.0625C14.2891 10.0625 14.4531 10.0625 14.6094 10.0625C14.6406 10.0625 14.6719 10.0625 14.7031 10.0625C14.75 10.0625 14.7891 10.0625 14.8203 10.0625C15.5703 10.0625 16.2969 9.99219 17 9.85156C17.7031 9.69531 18.375 9.47656 19.0156 9.19531L18.9453 9.21875L18.9688 11.4922C18.8594 11.5859 18.7422 11.6797 18.6172 11.7734C18.5078 11.8516 18.3828 11.9141 18.2422 11.9609L18.2188 11.9844C17.7656 12.1719 17.2734 12.3281 16.7422 12.4531C16.2266 12.5625 15.6875 12.6172 15.125 12.6172C15.0938 12.6172 15.0547 12.6172 15.0078 12.6172C14.9766 12.6172 14.9375 12.6172 14.8906 12.6172C14.6875 12.6172 14.4844 12.6172 14.2812 12.6172C14.0781 12.6016 13.875 12.5781 13.6719 12.5469H13.7188L13.6953 10.2969ZM14.5391 2C15.9609 2 17.0391 2.19531 17.7734 2.58594C18.5234 2.96094 18.8984 3.24219 18.8984 3.42969V3.52344C18.3516 3.86719 17.75 4.13281 17.0938 4.32031C16.4531 4.50781 15.7812 4.60156 15.0781 4.60156C14.9844 4.60156 14.8906 4.60156 14.7969 4.60156C14.7188 4.60156 14.6328 4.60156 14.5391 4.60156H14.5625C14.4844 4.60156 14.3984 4.60938 14.3047 4.625C14.2109 4.625 14.1094 4.625 14 4.625C13.2969 4.625 12.6172 4.52344 11.9609 4.32031C11.3203 4.11719 10.7266 3.84375 10.1797 3.5H10.2031V3.40625C10.2031 3.21875 10.5703 2.9375 11.3047 2.5625C12.0391 2.1875 13.1172 2 14.5391 2ZM7.34375 9.19531C8.70312 9.19531 9.75 9.34375 10.4844 9.64062C11.2188 9.9375 11.6172 10.1641 11.6797 10.3203V10.5078C11.1484 10.8203 10.5625 11.0703 9.92188 11.2578C9.28125 11.4297 8.60938 11.5156 7.90625 11.5156C7.8125 11.5156 7.71875 11.5156 7.625 11.5156C7.54688 11.5156 7.46094 11.5078 7.36719 11.4922H7.39062C6.17188 11.4922 5.1875 11.3672 4.4375 11.1172C3.70312 10.8672 3.22656 10.625 3.00781 10.3906V10.3203C3.08594 10.1641 3.49219 9.9375 4.22656 9.64062C4.96094 9.34375 6 9.19531 7.34375 9.19531ZM7.46094 18.0078C6.08594 18.0078 5.03125 17.8594 4.29688 17.5625C3.5625 17.25 3.16406 17.0234 3.10156 16.8828V15.8047C3.69531 16.0547 4.33594 16.25 5.02344 16.3906C5.72656 16.5312 6.44531 16.6016 7.17969 16.6016C7.22656 16.6016 7.26562 16.6016 7.29688 16.6016C7.32812 16.6016 7.36719 16.6016 7.41406 16.6016H7.39062C7.4375 16.6016 7.47656 16.6016 7.50781 16.6016C7.55469 16.6016 7.59375 16.6016 7.625 16.6016C8.375 16.6016 9.10156 16.5312 9.80469 16.3906C10.5234 16.2344 11.2109 16.0156 11.8672 15.7344L11.7969 15.7812V16.8594C11.7344 17.0156 11.3359 17.25 10.6016 17.5625C9.86719 17.8594 8.82031 18.0078 7.46094 18.0078ZM14.6562 16.2031C14.5156 16.2031 14.3672 16.2031 14.2109 16.2031C14.0703 16.1875 13.9297 16.1719 13.7891 16.1562L13.7422 14.0703C13.9297 14.0859 14.1094 14.1016 14.2812 14.1172C14.4688 14.1172 14.6484 14.1172 14.8203 14.1172C14.8828 14.1172 14.9375 14.1172 14.9844 14.1172C15.0469 14.1172 15.1016 14.1172 15.1484 14.1172C15.8203 14.1172 16.4688 14.0469 17.0938 13.9062C17.7344 13.7656 18.3438 13.5703 18.9219 13.3203L18.8516 13.3438C18.8828 13.3281 18.9062 13.3125 18.9219 13.2969C18.9375 13.2812 18.9609 13.2734 18.9922 13.2734V14.7969C18.9922 14.9688 18.625 15.25 17.8906 15.6406C17.1562 16.0156 16.0781 16.2031 14.6562 16.2031Z" fill="#8091A7"/>
</svg>
