<svg width="22" height="22" viewBox="0 0 22 22" fill="none" xmlns="http://www.w3.org/2000/svg">
<path d="M21.9922 20.9922C21.9922 21.2734 21.8906 21.5156 21.6875 21.7188C21.5 21.9062 21.2734 22 21.0078 22H0.992188C0.726562 22 0.492188 21.9062 0.289062 21.7188C0.101562 21.5156 0.0078125 21.2734 0.0078125 20.9922C0.0078125 20.7266 0.101562 20.5 0.289062 20.3125C0.492188 20.1094 0.726562 20.0078 0.992188 20.0078H21.0078C21.2734 20.0078 21.5 20.1094 21.6875 20.3125C21.8906 20.5 21.9922 20.7266 21.9922 20.9922ZM6.00781 19C6.27344 19 6.5 18.9062 6.6875 18.7188C6.89062 18.5156 6.99219 18.2734 6.99219 17.9922V16C6.99219 15.4531 6.79688 14.9844 6.40625 14.5938C6.01562 14.2031 5.54688 14.0078 5 14.0078H3.00781C2.44531 14.0078 1.96875 14.2031 1.57812 14.5938C1.1875 14.9844 0.992188 15.4531 0.992188 16V17.9922C0.992188 18.2734 1.08594 18.5156 1.27344 18.7188C1.47656 18.9062 1.71875 19 2 19C2.28125 19 2.51562 18.9062 2.70312 18.7188C2.90625 18.5156 3.00781 18.2734 3.00781 17.9922V16H5V17.9922C5 18.2734 5.09375 18.5156 5.28125 18.7188C5.48438 18.9062 5.72656 19 6.00781 19ZM8 11.0078V17.9922C8 18.2734 8.09375 18.5156 8.28125 18.7188C8.48438 18.9062 8.72656 19 9.00781 19C9.27344 19 9.5 18.9062 9.6875 18.7188C9.89062 18.5156 9.99219 18.2734 9.99219 17.9922V11.0078H12.0078V17.9922C12.0078 18.2734 12.1016 18.5156 12.2891 18.7188C12.4922 18.9062 12.7266 19 12.9922 19C13.2734 19 13.5078 18.9062 13.6953 18.7188C13.8984 18.5156 14 18.2734 14 17.9922V11.0078C14 10.4453 13.8047 9.96875 13.4141 9.57812C13.0234 9.1875 12.5547 8.99219 12.0078 8.99219H9.99219C9.44531 8.99219 8.97656 9.1875 8.58594 9.57812C8.19531 9.96875 8 10.4453 8 11.0078ZM15.9922 19C16.2734 19 16.5078 18.9062 16.6953 18.7188C16.8984 18.5156 17 18.2734 17 17.9922V4H18.9922V17.9922C18.9922 18.2734 19.0859 18.5156 19.2734 18.7188C19.4766 18.9062 19.7188 19 20 19C20.2812 19 20.5156 18.9062 20.7031 18.7188C20.9062 18.5156 21.0078 18.2734 21.0078 17.9922V4C21.0078 3.45312 20.8125 2.98437 20.4219 2.59375C20.0312 2.20313 19.5547 2.00781 18.9922 2.00781H17C16.4531 2.00781 15.9844 2.20313 15.5938 2.59375C15.2031 2.98437 15.0078 3.45312 15.0078 4V17.9922C15.0078 18.2734 15.1016 18.5156 15.2891 18.7188C15.4922 18.9062 15.7266 19 15.9922 19ZM1.17969 9.20312C1.21094 9.20312 1.24219 9.20312 1.27344 9.20312C1.30469 9.1875 1.33594 9.17969 1.36719 9.17969H1.34375C1.51562 9.14844 1.67188 9.11719 1.8125 9.08594C1.96875 9.05469 2.11719 9.02344 2.25781 8.99219C2.97656 8.89844 3.65625 8.73438 4.29688 8.5C4.9375 8.25 5.53906 7.9375 6.10156 7.5625L6.07812 7.58594C6.79688 7.00781 7.46094 6.39062 8.07031 5.73438C8.67969 5.0625 9.23438 4.35156 9.73438 3.60156L9.78125 3.53125L10.0625 5.61719C10.0938 5.80469 10.1797 5.96094 10.3203 6.08594C10.4609 6.21094 10.625 6.27344 10.8125 6.27344C10.8281 6.27344 10.8438 6.27344 10.8594 6.27344C10.875 6.25781 10.8906 6.25 10.9062 6.25C11.0938 6.23438 11.25 6.15625 11.375 6.01562C11.5 5.875 11.5625 5.71094 11.5625 5.52344C11.5625 5.49219 11.5625 5.46875 11.5625 5.45312C11.5625 5.4375 11.5625 5.42187 11.5625 5.40625L11 1.44531C11 1.42969 11 1.42188 11 1.42188C11 1.40625 10.9922 1.39062 10.9766 1.375C10.9766 1.34375 10.9688 1.32031 10.9531 1.30469C10.9531 1.27344 10.9453 1.25 10.9297 1.23438C10.9297 1.20312 10.9219 1.17188 10.9062 1.14062V1.16406C10.8906 1.14844 10.875 1.13281 10.8594 1.11719C10.8438 1.10156 10.8281 1.08594 10.8125 1.07031C10.8125 1.05469 10.7969 1.03906 10.7656 1.02344C10.75 0.992187 10.7344 0.96875 10.7188 0.953125C10.7188 0.953125 10.7109 0.953125 10.6953 0.953125C10.6953 0.953125 10.6953 0.945312 10.6953 0.929688C10.6953 0.929688 10.6875 0.929688 10.6719 0.929688C10.6719 0.929688 10.6641 0.929688 10.6484 0.929688C10.6328 0.914063 10.6172 0.898437 10.6016 0.882812C10.5703 0.867188 10.5391 0.859375 10.5078 0.859375C10.4922 0.84375 10.4688 0.828125 10.4375 0.8125C10.4219 0.8125 10.3984 0.8125 10.3672 0.8125C10.3516 0.8125 10.3359 0.8125 10.3203 0.8125C10.3203 0.8125 10.3125 0.8125 10.2969 0.8125C10.2812 0.8125 10.2656 0.8125 10.25 0.8125C10.2344 0.8125 10.2109 0.8125 10.1797 0.8125C10.1797 0.8125 10.1719 0.8125 10.1562 0.8125L6.24219 1.35156C6.05469 1.36719 5.89844 1.44531 5.77344 1.58594C5.64844 1.72656 5.58594 1.89062 5.58594 2.07812C5.58594 2.29688 5.65625 2.47656 5.79688 2.61719C5.95312 2.75781 6.13281 2.82812 6.33594 2.82812C6.36719 2.82812 6.39062 2.82812 6.40625 2.82812C6.42188 2.82812 6.4375 2.82812 6.45312 2.82812L8.65625 2.52344C8.17188 3.25781 7.64844 3.9375 7.08594 4.5625C6.52344 5.1875 5.92969 5.76563 5.30469 6.29688L5.25781 6.32031C4.78906 6.63281 4.28125 6.89063 3.73438 7.09375C3.1875 7.29688 2.61719 7.4375 2.02344 7.51562H1.97656C1.82031 7.54688 1.66406 7.57812 1.50781 7.60938C1.35156 7.64062 1.1875 7.67969 1.01562 7.72656C0.859375 7.75781 0.71875 7.84375 0.59375 7.98438C0.484375 8.10938 0.429688 8.26562 0.429688 8.45312C0.429688 8.65625 0.5 8.83594 0.640625 8.99219C0.796875 9.13281 0.976562 9.20312 1.17969 9.20312Z" fill="#8091A7"/>
</svg>
