<svg width="22" height="20" viewBox="0 0 22 20" fill="none" xmlns="http://www.w3.org/2000/svg">
<path d="M18.1484 20H9.85156C9.05469 20 8.375 19.7266 7.8125 19.1797C7.26562 18.6172 6.99219 17.9453 6.99219 17.1641V8.84375C6.99219 8.0625 7.26562 7.39844 7.8125 6.85156C8.375 6.28906 9.05469 6.00781 9.85156 6.00781H18.1484C18.9453 6.00781 19.6172 6.28906 20.1641 6.85156C20.7266 7.39844 21.0078 8.0625 21.0078 8.84375V17.1641C21.0078 17.9453 20.7266 18.6172 20.1641 19.1797C19.6172 19.7266 18.9453 20 18.1484 20ZM9.85156 8C9.61719 8 9.41406 8.08594 9.24219 8.25781C9.08594 8.41406 9.00781 8.60938 9.00781 8.84375V17.1641C9.00781 17.3984 9.08594 17.6016 9.24219 17.7734C9.41406 17.9297 9.61719 18.0078 9.85156 18.0078H18.1484C18.3828 18.0078 18.5781 17.9297 18.7344 17.7734C18.9062 17.6016 18.9922 17.3984 18.9922 17.1641V8.84375C18.9922 8.60938 18.9062 8.41406 18.7344 8.25781C18.5781 8.08594 18.3828 8 18.1484 8H9.85156ZM5 12.9922C5 12.7266 4.89844 12.5 4.69531 12.3125C4.50781 12.1094 4.27344 12.0078 3.99219 12.0078H3.85156C3.61719 12.0078 3.41406 11.9297 3.24219 11.7734C3.08594 11.6016 3.00781 11.3984 3.00781 11.1641V2.84375C3.00781 2.60938 3.08594 2.41406 3.24219 2.25781C3.41406 2.08594 3.61719 2 3.85156 2H12.1484C12.3828 2 12.5781 2.08594 12.7344 2.25781C12.9062 2.41406 12.9922 2.60938 12.9922 2.84375V3.00781C12.9922 3.27344 13.0859 3.50781 13.2734 3.71094C13.4766 3.89844 13.7188 3.99219 14 3.99219C14.2812 3.99219 14.5156 3.89844 14.7031 3.71094C14.9062 3.50781 15.0078 3.27344 15.0078 3.00781V2.84375C15.0078 2.0625 14.7266 1.39844 14.1641 0.851562C13.6172 0.289062 12.9453 0.0078125 12.1484 0.0078125H3.85156C3.05469 0.0078125 2.375 0.289062 1.8125 0.851562C1.26562 1.39844 0.992188 2.0625 0.992188 2.84375V11.1641C0.992188 11.9453 1.26562 12.6172 1.8125 13.1797C2.375 13.7266 3.05469 14 3.85156 14H3.99219C4.27344 14 4.50781 13.9062 4.69531 13.7188C4.89844 13.5156 5 13.2734 5 12.9922Z" fill="#8091A7"/>
</svg>
