<svg width="6" height="11" viewBox="0 0 6 11" fill="none" xmlns="http://www.w3.org/2000/svg">
<path d="M0.910156 10.6602C0.688802 10.6602 0.49349 10.582 0.324219 10.4258C0.167969 10.2565 0.0898438 10.0612 0.0898438 9.83984C0.0898438 9.72266 0.109375 9.61198 0.148438 9.50781C0.1875 9.40365 0.246094 9.31901 0.324219 9.25391L3.89844 5.66016L0.324219 2.08594C0.259115 2.00781 0.200521 1.92318 0.148438 1.83203C0.109375 1.72786 0.0898438 1.6237 0.0898438 1.51953C0.0898438 1.28516 0.167969 1.08984 0.324219 0.933594C0.49349 0.764323 0.695312 0.679688 0.929688 0.679688C1.03385 0.679688 1.13802 0.699219 1.24219 0.738281C1.34635 0.777344 1.4375 0.835938 1.51562 0.914062L5.67578 5.07422C5.75391 5.15234 5.8125 5.24349 5.85156 5.34766C5.89062 5.4388 5.91016 5.54297 5.91016 5.66016C5.91016 5.77734 5.89062 5.88802 5.85156 5.99219C5.8125 6.09635 5.75391 6.18099 5.67578 6.24609L1.49609 10.4258C1.43099 10.5039 1.34635 10.5625 1.24219 10.6016C1.13802 10.6406 1.02734 10.6602 0.910156 10.6602Z" fill="#8091A7"/>
</svg>
