<svg width="6" height="11" viewBox="0 0 6 11" fill="none" xmlns="http://www.w3.org/2000/svg">
<path d="M5.74805 7.58984C5.69336 7.53516 5.62956 7.49414 5.55664 7.4668C5.49284 7.43034 5.41992 7.41211 5.33789 7.41211C5.25586 7.41211 5.17839 7.43034 5.10547 7.4668C5.03255 7.49414 4.97331 7.53516 4.92773 7.58984L3.58789 8.92969V1C3.58789 0.835938 3.52865 0.699219 3.41016 0.589844C3.30078 0.471354 3.16406 0.412109 3 0.412109C2.83594 0.412109 2.69466 0.471354 2.57617 0.589844C2.4668 0.699219 2.41211 0.835938 2.41211 1V8.92969L1.07227 7.58984C1.02669 7.53516 0.967448 7.49414 0.894531 7.4668C0.821615 7.43034 0.744141 7.41211 0.662109 7.41211C0.498047 7.41211 0.356771 7.47135 0.238281 7.58984C0.128906 7.69922 0.0742188 7.83138 0.0742188 7.98633C0.0742188 8.07747 0.0878906 8.15951 0.115234 8.23242C0.151693 8.29622 0.197266 8.35547 0.251953 8.41016L2.58984 10.748C2.64453 10.8027 2.70378 10.8438 2.76758 10.8711C2.84049 10.8984 2.91797 10.9121 3 10.9121C3.08203 10.9121 3.15495 10.8984 3.21875 10.8711C3.29167 10.8438 3.35547 10.8027 3.41016 10.748L5.74805 8.41016C5.80273 8.35547 5.84375 8.29622 5.87109 8.23242C5.89844 8.15951 5.91211 8.08203 5.91211 8C5.91211 7.91797 5.89844 7.84505 5.87109 7.78125C5.84375 7.70833 5.80273 7.64453 5.74805 7.58984Z" fill="#E85347"/>
</svg>
