<svg width="18" height="19" viewBox="0 0 18 19" fill="none" xmlns="http://www.w3.org/2000/svg">
<path d="M14.5078 18.9922H3.49219C2.53906 18.9922 1.71875 18.6562 1.03125 17.9844C0.34375 17.2969 0 16.4688 0 15.5V4.50781C0 3.53906 0.34375 2.71094 1.03125 2.02344C1.71875 1.33594 2.53906 0.992188 3.49219 0.992188H14.5078C15.4609 0.992188 16.2812 1.33594 16.9688 2.02344C17.6562 2.71094 18 3.53906 18 4.50781V15.5C18 16.4688 17.6562 17.2969 16.9688 17.9844C16.2812 18.6562 15.4609 18.9922 14.5078 18.9922ZM3.49219 3.00781C3.08594 3.00781 2.73438 3.15625 2.4375 3.45312C2.14062 3.73438 1.99219 4.08594 1.99219 4.50781V15.5C1.99219 15.9062 2.14062 16.2578 2.4375 16.5547C2.73438 16.8516 3.08594 17 3.49219 17H14.5078C14.9141 17 15.2656 16.8516 15.5625 16.5547C15.8594 16.2578 16.0078 15.9062 16.0078 15.5V4.50781C16.0078 4.08594 15.8594 3.73438 15.5625 3.45312C15.2656 3.15625 14.9141 3.00781 14.5078 3.00781H3.49219ZM13.9922 6.00781C13.9922 5.72656 13.8906 5.49219 13.6875 5.30469C13.5 5.10156 13.2734 5 13.0078 5H4.99219C4.72656 5 4.49219 5.10156 4.28906 5.30469C4.10156 5.49219 4.00781 5.72656 4.00781 6.00781C4.00781 6.27344 4.10156 6.50781 4.28906 6.71094C4.49219 6.89844 4.72656 6.99219 4.99219 6.99219H13.0078C13.2734 6.99219 13.5 6.89844 13.6875 6.71094C13.8906 6.50781 13.9922 6.27344 13.9922 6.00781ZM13.9922 14C13.9922 13.7188 13.8906 13.4844 13.6875 13.2969C13.5 13.0938 13.2734 12.9922 13.0078 12.9922H4.99219C4.72656 12.9922 4.49219 13.0938 4.28906 13.2969C4.10156 13.4844 4.00781 13.7188 4.00781 14C4.00781 14.2812 4.10156 14.5234 4.28906 14.7266C4.49219 14.9141 4.72656 15.0078 4.99219 15.0078H13.0078C13.2734 15.0078 13.5 14.9141 13.6875 14.7266C13.8906 14.5234 13.9922 14.2812 13.9922 14ZM9 9.99219C9 9.72656 8.89844 9.5 8.69531 9.3125C8.50781 9.10938 8.27344 9.00781 7.99219 9.00781H4.99219C4.72656 9.00781 4.49219 9.10938 4.28906 9.3125C4.10156 9.5 4.00781 9.72656 4.00781 9.99219C4.00781 10.2734 4.10156 10.5156 4.28906 10.7188C4.49219 10.9062 4.72656 11 4.99219 11H7.99219C8.27344 11 8.50781 10.9062 8.69531 10.7188C8.89844 10.5156 9 10.2734 9 9.99219ZM13.9922 9.99219C13.9922 9.72656 13.8906 9.5 13.6875 9.3125C13.5 9.10938 13.2734 9.00781 13.0078 9.00781H12C11.7188 9.00781 11.4844 9.10938 11.2969 9.3125C11.1094 9.5 11.0156 9.72656 11.0156 9.99219C11.0156 10.2734 11.1094 10.5156 11.2969 10.7188C11.5 10.9062 11.7422 11 12.0234 11H13.0078C13.2734 11 13.5 10.9062 13.6875 10.7188C13.8906 10.5156 13.9922 10.2734 13.9922 9.99219Z" fill="#8091A7"/>
</svg>
