<svg width="18" height="17" viewBox="0 0 18 17" fill="none" xmlns="http://www.w3.org/2000/svg">
<path d="M14.5078 0H3.49219C2.53906 0 1.71875 0.34375 1.03125 1.03125C0.34375 1.71875 0 2.53906 0 3.49219V13.5C0 14.4688 0.34375 15.2969 1.03125 15.9844C1.71875 16.6562 2.53906 16.9922 3.49219 16.9922H14.5078C15.4609 16.9922 16.2812 16.6562 16.9688 15.9844C17.6562 15.2969 18 14.4688 18 13.5V3.49219C18 2.53906 17.6562 1.71875 16.9688 1.03125C16.2812 0.34375 15.4609 0 14.5078 0ZM1.99219 7.00781H4.99219V10.0078H1.99219V7.00781ZM7.00781 7.00781H16.0078V10.0078H7.00781V7.00781ZM16.0078 3.49219V4.99219H7.00781V1.99219H14.5078C14.9141 1.99219 15.2656 2.14063 15.5625 2.4375C15.8594 2.73437 16.0078 3.08594 16.0078 3.49219ZM3.49219 1.99219H4.99219V4.99219H1.99219V3.49219C1.99219 3.08594 2.14062 2.73437 2.4375 2.4375C2.73438 2.14063 3.08594 1.99219 3.49219 1.99219ZM1.99219 13.5V12H4.99219V15H3.49219C3.08594 15 2.73438 14.8516 2.4375 14.5547C2.14062 14.2578 1.99219 13.9062 1.99219 13.5ZM14.5078 15H7.00781V12H16.0078V13.5C16.0078 13.9062 15.8594 14.2578 15.5625 14.5547C15.2656 14.8516 14.9141 15 14.5078 15Z" fill="#8091A7"/>
</svg>
