<svg width="6" height="11" viewBox="0 0 6 11" fill="none" xmlns="http://www.w3.org/2000/svg">
<path d="M5.74805 2.92773L3.41016 0.589844C3.35547 0.535156 3.29167 0.494141 3.21875 0.466797C3.15495 0.430339 3.08203 0.412109 3 0.412109C2.91797 0.412109 2.84049 0.430339 2.76758 0.466797C2.70378 0.494141 2.64453 0.535156 2.58984 0.589844L0.251953 2.92773C0.197266 2.97331 0.15625 3.03255 0.128906 3.10547C0.101562 3.17839 0.0878906 3.25586 0.0878906 3.33789C0.0878906 3.49284 0.142578 3.62956 0.251953 3.74805C0.370443 3.85742 0.507161 3.91211 0.662109 3.91211C0.744141 3.91211 0.821615 3.89844 0.894531 3.87109C0.967448 3.84375 1.02669 3.80273 1.07227 3.74805L2.41211 2.4082V10.3379C2.41211 10.4928 2.4668 10.6296 2.57617 10.748C2.69466 10.8574 2.83594 10.9121 3 10.9121C3.16406 10.9121 3.30078 10.8574 3.41016 10.748C3.52865 10.6296 3.58789 10.4928 3.58789 10.3379V2.4082L4.92773 3.74805C4.97331 3.79362 5.03255 3.83464 5.10547 3.87109C5.17839 3.89844 5.2513 3.91211 5.32422 3.91211C5.48828 3.91211 5.625 3.85742 5.73438 3.74805C5.85286 3.62956 5.91211 3.48828 5.91211 3.32422C5.91211 3.24219 5.89388 3.16927 5.85742 3.10547C5.83008 3.03255 5.79362 2.96875 5.74805 2.91406V2.92773Z" fill="#1EE0AC"/>
</svg>
