<svg width="22" height="19" viewBox="0 0 22 19" fill="none" xmlns="http://www.w3.org/2000/svg">
<path d="M18.0078 0.992188H3.99219C2.89844 0.992188 1.96094 1.38281 1.17969 2.16406C0.398438 2.94531 0.0078125 3.89062 0.0078125 5V15.0078C0.0078125 16.1016 0.398438 17.0391 1.17969 17.8203C1.96094 18.6016 2.89844 18.9922 3.99219 18.9922H18.0078C19.1016 18.9922 20.0391 18.6016 20.8203 17.8203C21.6016 17.0391 21.9922 16.1016 21.9922 15.0078V5C21.9922 3.89062 21.6016 2.94531 20.8203 2.16406C20.0391 1.38281 19.1016 0.992188 18.0078 0.992188ZM20 15.0078C20 15.5547 19.8047 16.0234 19.4141 16.4141C19.0234 16.8047 18.5547 17 18.0078 17H3.99219C3.44531 17 2.97656 16.8047 2.58594 16.4141C2.19531 16.0234 2 15.5547 2 15.0078V5C2 4.45312 2.19531 3.98437 2.58594 3.59375C2.97656 3.20313 3.44531 3.00781 3.99219 3.00781H18.0078C18.5547 3.00781 19.0234 3.20313 19.4141 3.59375C19.8047 3.98437 20 4.45312 20 5V15.0078ZM18.6875 8.79688C18.6719 8.84375 18.6484 8.89062 18.6172 8.9375C18.5859 8.96875 18.5547 9 18.5234 9.03125L15.5234 12.0312C15.4609 12.0938 15.3828 12.1484 15.2891 12.1953C15.2109 12.2266 15.1172 12.2422 15.0078 12.2422C14.8047 12.2422 14.625 12.1719 14.4688 12.0312C14.3281 11.875 14.2578 11.6953 14.2578 11.4922C14.2578 11.3828 14.2734 11.2891 14.3047 11.2109C14.3516 11.1172 14.4062 11.0391 14.4688 10.9766L16.1797 9.24219H9.99219C9.78906 9.24219 9.60938 9.17188 9.45312 9.03125C9.3125 8.89062 9.24219 8.71094 9.24219 8.49219C9.24219 8.28906 9.3125 8.11719 9.45312 7.97656C9.60938 7.82031 9.78906 7.74219 9.99219 7.74219H16.1797L14.4688 6.03125C14.4062 5.96875 14.3516 5.89062 14.3047 5.79688C14.2734 5.70312 14.2578 5.60938 14.2578 5.51562C14.2578 5.3125 14.3281 5.14062 14.4688 5C14.625 4.84375 14.8047 4.76562 15.0078 4.76562C15.1172 4.76562 15.2109 4.78906 15.2891 4.83594C15.3828 4.86719 15.4609 4.91406 15.5234 4.97656L18.5234 7.97656C18.6016 8.03906 18.6562 8.11719 18.6875 8.21094C18.7344 8.30469 18.7578 8.39844 18.7578 8.49219C18.7578 8.55469 18.75 8.60938 18.7344 8.65625C18.7188 8.70312 18.7031 8.75 18.6875 8.79688ZM12.7578 11.4922C12.7578 11.7109 12.6797 11.8906 12.5234 12.0312C12.3828 12.1719 12.2109 12.2422 12.0078 12.2422H5.82031L7.53125 13.9766C7.60938 14.0391 7.66406 14.1172 7.69531 14.2109C7.74219 14.3047 7.76562 14.4062 7.76562 14.5156C7.76562 14.7188 7.6875 14.8984 7.53125 15.0547C7.39062 15.1953 7.21875 15.2656 7.01562 15.2656C6.90625 15.2656 6.80469 15.25 6.71094 15.2188C6.61719 15.1719 6.53906 15.1094 6.47656 15.0312L3.47656 12.0312C3.39844 11.9688 3.33594 11.8906 3.28906 11.7969C3.25781 11.7031 3.24219 11.6016 3.24219 11.4922C3.24219 11.3984 3.25781 11.3047 3.28906 11.2109C3.33594 11.1172 3.39844 11.0391 3.47656 10.9766L6.47656 7.97656C6.53906 7.91406 6.60938 7.86719 6.6875 7.83594C6.78125 7.78906 6.88281 7.76562 6.99219 7.76562C7.19531 7.76562 7.36719 7.84375 7.50781 8C7.66406 8.14062 7.74219 8.3125 7.74219 8.51562C7.74219 8.60938 7.71875 8.70312 7.67188 8.79688C7.64062 8.89062 7.59375 8.96875 7.53125 9.03125L5.82031 10.7422H12.0078C12.2109 10.7422 12.3828 10.8203 12.5234 10.9766C12.6797 11.1172 12.7578 11.2891 12.7578 11.4922Z" fill="#8091A7"/>
</svg>
