<svg width="22" height="20" viewBox="0 0 22 20" fill="none" xmlns="http://www.w3.org/2000/svg">
<path d="M11 11C10.9219 11 10.8438 10.9922 10.7656 10.9766C10.6875 10.9609 10.6172 10.9297 10.5547 10.8828L1.55469 6.38281C1.38281 6.30469 1.24219 6.1875 1.13281 6.03125C1.03906 5.875 0.992188 5.69531 0.992188 5.49219C0.992188 5.30469 1.03906 5.13281 1.13281 4.97656C1.24219 4.82031 1.38281 4.69531 1.55469 4.60156L10.5547 0.101562C10.6172 0.0703125 10.6875 0.046875 10.7656 0.03125C10.8438 0.015625 10.9219 0.0078125 11 0.0078125C11.0781 0.0078125 11.1562 0.015625 11.2344 0.03125C11.3125 0.046875 11.3828 0.0703125 11.4453 0.101562L20.4453 4.60156C20.6172 4.69531 20.75 4.82031 20.8438 4.97656C20.9531 5.13281 21.0078 5.30469 21.0078 5.49219C21.0078 5.69531 20.9531 5.875 20.8438 6.03125C20.75 6.1875 20.6172 6.30469 20.4453 6.38281L11.4453 10.8828C11.3828 10.9297 11.3125 10.9609 11.2344 10.9766C11.1562 10.9922 11.0781 11 11 11ZM4.22656 5.49219L11 8.89062L17.7734 5.49219L11 2.11719L4.22656 5.49219ZM11.4453 19.8828L20.4453 15.3828C20.6172 15.3047 20.75 15.1875 20.8438 15.0312C20.9531 14.875 21.0078 14.6953 21.0078 14.4922C21.0078 14.2266 20.9062 14 20.7031 13.8125C20.5156 13.6094 20.2812 13.5078 20 13.5078C19.9219 13.5078 19.8438 13.5156 19.7656 13.5312C19.6875 13.5469 19.6172 13.5703 19.5547 13.6016L11 17.8906L2.44531 13.6016C2.38281 13.5703 2.3125 13.5469 2.23438 13.5312C2.15625 13.5156 2.07812 13.5078 2 13.5078C1.71875 13.5078 1.47656 13.6094 1.27344 13.8125C1.08594 14 0.992188 14.2266 0.992188 14.4922C0.992188 14.6953 1.03906 14.875 1.13281 15.0312C1.24219 15.1875 1.38281 15.3047 1.55469 15.3828L10.5547 19.8828C10.6172 19.9297 10.6875 19.9609 10.7656 19.9766C10.8438 19.9922 10.9219 20 11 20C11.0781 20 11.1562 19.9922 11.2344 19.9766C11.3125 19.9609 11.3828 19.9297 11.4453 19.8828ZM11.4453 15.3828L20.4453 10.8828C20.6172 10.8047 20.75 10.6875 20.8438 10.5312C20.9531 10.375 21.0078 10.1953 21.0078 9.99219C21.0078 9.72656 20.9062 9.5 20.7031 9.3125C20.5156 9.10938 20.2812 9.00781 20 9.00781C19.9219 9.00781 19.8438 9.01562 19.7656 9.03125C19.6875 9.04688 19.6172 9.07031 19.5547 9.10156L11 13.3906L2.44531 9.10156C2.38281 9.07031 2.3125 9.04688 2.23438 9.03125C2.15625 9.01562 2.07812 9.00781 2 9.00781C1.71875 9.00781 1.47656 9.10938 1.27344 9.3125C1.08594 9.5 0.992188 9.72656 0.992188 9.99219C0.992188 10.1953 1.03906 10.375 1.13281 10.5312C1.24219 10.6875 1.38281 10.8047 1.55469 10.8828L10.5547 15.3828C10.6172 15.4297 10.6875 15.4609 10.7656 15.4766C10.8438 15.4922 10.9219 15.5 11 15.5C11.0781 15.5 11.1562 15.4922 11.2344 15.4766C11.3125 15.4609 11.3828 15.4297 11.4453 15.3828Z" fill="#8091A7"/>
</svg>
