<svg width="18" height="17" viewBox="0 0 18 17" fill="none" xmlns="http://www.w3.org/2000/svg">
<path d="M14.8398 2H13.1602V1.16016C13.1602 0.938802 13.0755 0.75 12.9062 0.59375C12.75 0.424479 12.5612 0.339844 12.3398 0.339844C12.1055 0.339844 11.9036 0.424479 11.7344 0.59375C11.5781 0.75 11.5 0.938802 11.5 1.16016V2H6.5V1.16016C6.5 0.938802 6.41536 0.75 6.24609 0.59375C6.08984 0.424479 5.89453 0.339844 5.66016 0.339844C5.4388 0.339844 5.24349 0.424479 5.07422 0.59375C4.91797 0.75 4.83984 0.938802 4.83984 1.16016V2H3.16016C2.47005 2 1.8776 2.2474 1.38281 2.74219C0.901042 3.22396 0.660156 3.8099 0.660156 4.5V13.6602C0.660156 14.3503 0.901042 14.9427 1.38281 15.4375C1.8776 15.9193 2.47005 16.1602 3.16016 16.1602H14.8398C15.5299 16.1602 16.1159 15.9193 16.5977 15.4375C17.0924 14.9427 17.3398 14.3503 17.3398 13.6602V4.5C17.3398 3.8099 17.0924 3.22396 16.5977 2.74219C16.1159 2.2474 15.5299 2 14.8398 2ZM15.6602 13.6602C15.6602 13.8945 15.5755 14.0964 15.4062 14.2656C15.25 14.4219 15.0612 14.5 14.8398 14.5H3.16016C2.9388 14.5 2.74349 14.4219 2.57422 14.2656C2.41797 14.0964 2.33984 13.8945 2.33984 13.6602V4.5C2.33984 4.26562 2.41797 4.07031 2.57422 3.91406C2.74349 3.74479 2.9388 3.66016 3.16016 3.66016H4.83984V4.5C4.83984 4.73438 4.91797 4.9362 5.07422 5.10547C5.24349 5.26172 5.4388 5.33984 5.66016 5.33984C5.89453 5.33984 6.08984 5.26172 6.24609 5.10547C6.41536 4.9362 6.5 4.73438 6.5 4.5V3.66016H11.5V4.5C11.5 4.73438 11.5781 4.9362 11.7344 5.10547C11.9036 5.26172 12.1055 5.33984 12.3398 5.33984C12.5612 5.33984 12.75 5.26172 12.9062 5.10547C13.0755 4.9362 13.1602 4.73438 13.1602 4.5V3.66016H14.8398C15.0612 3.66016 15.25 3.74479 15.4062 3.91406C15.5755 4.07031 15.6602 4.26562 15.6602 4.5V13.6602ZM5.66016 8.66016C5.4388 8.66016 5.24349 8.58203 5.07422 8.42578C4.91797 8.25651 4.83984 8.05469 4.83984 7.82031C4.83984 7.71615 4.85938 7.61198 4.89844 7.50781C4.9375 7.40365 4.99609 7.3125 5.07422 7.23438C5.15234 7.16927 5.24349 7.11719 5.34766 7.07812C5.45182 7.03906 5.55599 7.01953 5.66016 7.01953C5.77734 7.01953 5.88802 7.03906 5.99219 7.07812C6.09635 7.11719 6.1875 7.16927 6.26562 7.23438C6.27865 7.26042 6.29167 7.28646 6.30469 7.3125C6.31771 7.32552 6.33724 7.34505 6.36328 7.37109C6.3763 7.38411 6.38932 7.40365 6.40234 7.42969C6.41536 7.45573 6.42839 7.48177 6.44141 7.50781C6.44141 7.53385 6.44792 7.5599 6.46094 7.58594C6.47396 7.61198 6.48047 7.63802 6.48047 7.66406C6.49349 7.6901 6.5 7.71615 6.5 7.74219C6.5 7.76823 6.5 7.80078 6.5 7.83984C6.5 8.07422 6.41536 8.26953 6.24609 8.42578C6.08984 8.58203 5.90104 8.66016 5.67969 8.66016C5.67969 8.66016 5.67318 8.66016 5.66016 8.66016ZM9 8.66016C8.88281 8.66016 8.77214 8.64062 8.66797 8.60156C8.57682 8.5625 8.49219 8.50391 8.41406 8.42578C8.33594 8.34766 8.27083 8.26302 8.21875 8.17188C8.17969 8.06771 8.16016 7.95703 8.16016 7.83984C8.16016 7.77474 8.16667 7.71615 8.17969 7.66406C8.19271 7.61198 8.21224 7.5599 8.23828 7.50781C8.2513 7.45573 8.27083 7.41016 8.29688 7.37109C8.33594 7.31901 8.375 7.27344 8.41406 7.23438C8.49219 7.16927 8.57682 7.11719 8.66797 7.07812C8.77214 7.03906 8.88281 7.01953 9 7.01953C9.11719 7.01953 9.22135 7.03906 9.3125 7.07812C9.41667 7.11719 9.50781 7.16927 9.58594 7.23438C9.625 7.27344 9.65755 7.31901 9.68359 7.37109C9.70964 7.41016 9.73568 7.45573 9.76172 7.50781C9.78776 7.5599 9.80729 7.61198 9.82031 7.66406C9.83333 7.71615 9.83984 7.77474 9.83984 7.83984C9.83984 7.86589 9.83333 7.89193 9.82031 7.91797C9.82031 7.94401 9.82031 7.97656 9.82031 8.01562V7.99609C9.80729 8.02214 9.79427 8.04818 9.78125 8.07422C9.78125 8.10026 9.77474 8.1263 9.76172 8.15234C9.76172 8.17839 9.75521 8.20443 9.74219 8.23047C9.72917 8.25651 9.70964 8.27604 9.68359 8.28906C9.67057 8.3151 9.65755 8.34115 9.64453 8.36719C9.63151 8.38021 9.61198 8.39974 9.58594 8.42578C9.50781 8.50391 9.41667 8.5625 9.3125 8.60156C9.22135 8.64062 9.11719 8.66016 9 8.66016ZM12.3398 8.66016C12.2227 8.66016 12.112 8.64062 12.0078 8.60156C11.9036 8.5625 11.8125 8.50391 11.7344 8.42578C11.7214 8.39974 11.7018 8.38021 11.6758 8.36719C11.6628 8.34115 11.6497 8.3151 11.6367 8.28906C11.6237 8.27604 11.6107 8.25651 11.5977 8.23047C11.5846 8.20443 11.5716 8.17839 11.5586 8.15234C11.5586 8.1263 11.5521 8.10026 11.5391 8.07422C11.526 8.04818 11.5195 8.02214 11.5195 7.99609C11.5065 7.97005 11.5 7.94401 11.5 7.91797C11.5 7.89193 11.5 7.86589 11.5 7.83984C11.5 7.82682 11.5 7.82031 11.5 7.82031C11.5 7.76823 11.5065 7.71615 11.5195 7.66406C11.5326 7.61198 11.5521 7.5599 11.5781 7.50781H11.5586C11.5846 7.45573 11.6107 7.41016 11.6367 7.37109C11.6758 7.31901 11.7083 7.27344 11.7344 7.23438C11.8125 7.16927 11.9036 7.11719 12.0078 7.07812C12.112 7.02604 12.2227 7 12.3398 7C12.3659 7 12.3919 7 12.418 7C12.444 7 12.4701 7.00651 12.4961 7.01953C12.5221 7.01953 12.5482 7.02604 12.5742 7.03906C12.6003 7.05208 12.6263 7.05859 12.6523 7.05859C12.6784 7.07161 12.7044 7.08464 12.7305 7.09766C12.7565 7.11068 12.7826 7.1237 12.8086 7.13672C12.8216 7.16276 12.8411 7.18229 12.8672 7.19531C12.8932 7.20833 12.9128 7.22135 12.9258 7.23438C12.9648 7.27344 12.9974 7.31901 13.0234 7.37109C13.0495 7.41016 13.0755 7.45573 13.1016 7.50781C13.1146 7.5599 13.1276 7.61198 13.1406 7.66406C13.1536 7.71615 13.1602 7.77474 13.1602 7.83984C13.1602 7.86589 13.1602 7.89193 13.1602 7.91797C13.1602 7.94401 13.1536 7.97656 13.1406 8.01562V7.99609C13.1406 8.02214 13.1341 8.04818 13.1211 8.07422C13.1211 8.10026 13.1146 8.1263 13.1016 8.15234C13.0885 8.17839 13.0755 8.20443 13.0625 8.23047C13.0495 8.25651 13.0365 8.27604 13.0234 8.28906C13.0104 8.3151 12.9909 8.34115 12.9648 8.36719C12.9518 8.38021 12.9388 8.39974 12.9258 8.42578C12.8997 8.4388 12.8737 8.45833 12.8477 8.48438C12.8346 8.4974 12.8216 8.51042 12.8086 8.52344C12.7826 8.53646 12.7565 8.54948 12.7305 8.5625C12.7044 8.57552 12.6784 8.58854 12.6523 8.60156C12.6263 8.61458 12.6003 8.6276 12.5742 8.64062C12.5482 8.64062 12.5221 8.64062 12.4961 8.64062C12.4701 8.65365 12.444 8.66016 12.418 8.66016C12.3919 8.66016 12.3659 8.66016 12.3398 8.66016ZM5.66016 12C5.63411 12 5.60807 12 5.58203 12C5.55599 11.987 5.52344 11.9805 5.48438 11.9805H5.50391C5.47786 11.9805 5.45182 11.974 5.42578 11.9609C5.39974 11.9479 5.3737 11.9414 5.34766 11.9414C5.32161 11.9284 5.29557 11.9154 5.26953 11.9023C5.24349 11.8893 5.21745 11.8763 5.19141 11.8633C5.15234 11.8242 5.11328 11.7917 5.07422 11.7656C4.99609 11.6875 4.93099 11.5964 4.87891 11.4922C4.83984 11.388 4.82031 11.2773 4.82031 11.1602C4.82031 10.9258 4.89844 10.7305 5.05469 10.5742C5.22396 10.4049 5.42578 10.3203 5.66016 10.3203C5.77734 10.3203 5.88802 10.3464 5.99219 10.3984C6.09635 10.4375 6.1875 10.4961 6.26562 10.5742C6.27865 10.6003 6.29167 10.6263 6.30469 10.6523C6.31771 10.6654 6.33724 10.6849 6.36328 10.7109C6.3763 10.724 6.38932 10.7435 6.40234 10.7695C6.41536 10.7956 6.42839 10.8216 6.44141 10.8477C6.44141 10.8737 6.44792 10.8997 6.46094 10.9258C6.47396 10.9518 6.48047 10.9779 6.48047 11.0039C6.49349 11.0299 6.5 11.056 6.5 11.082C6.5 11.1081 6.5 11.1341 6.5 11.1602C6.5 11.1602 6.5 11.1667 6.5 11.1797C6.5 11.401 6.41536 11.5964 6.24609 11.7656C6.08984 11.9219 5.90104 12 5.67969 12C5.67969 12 5.67318 12 5.66016 12ZM9 12C8.88281 12 8.77214 11.9805 8.66797 11.9414C8.57682 11.8893 8.49219 11.8307 8.41406 11.7656C8.33594 11.6875 8.27083 11.5964 8.21875 11.4922C8.17969 11.388 8.16016 11.2773 8.16016 11.1602C8.16016 11.1081 8.16667 11.056 8.17969 11.0039C8.19271 10.9518 8.21224 10.8997 8.23828 10.8477C8.2513 10.7956 8.27083 10.75 8.29688 10.7109C8.33594 10.6589 8.375 10.6133 8.41406 10.5742C8.49219 10.5091 8.57682 10.457 8.66797 10.418C8.77214 10.3659 8.88281 10.3398 9 10.3398C9.11719 10.3398 9.22135 10.3659 9.3125 10.418C9.41667 10.457 9.50781 10.5091 9.58594 10.5742C9.625 10.6133 9.65755 10.6589 9.68359 10.7109C9.70964 10.75 9.73568 10.7956 9.76172 10.8477C9.78776 10.8997 9.80729 10.9518 9.82031 11.0039C9.83333 11.056 9.83984 11.1081 9.83984 11.1602C9.83984 11.1992 9.83333 11.2318 9.82031 11.2578C9.82031 11.2839 9.82031 11.3099 9.82031 11.3359C9.80729 11.362 9.79427 11.388 9.78125 11.4141C9.78125 11.4401 9.77474 11.4661 9.76172 11.4922C9.76172 11.5182 9.75521 11.5443 9.74219 11.5703C9.72917 11.5833 9.70964 11.6029 9.68359 11.6289C9.67057 11.6549 9.65755 11.681 9.64453 11.707C9.63151 11.7201 9.61198 11.7396 9.58594 11.7656C9.50781 11.8307 9.41667 11.8893 9.3125 11.9414C9.22135 11.9805 9.11719 12 9 12ZM12.3398 12C12.2227 12 12.112 11.9805 12.0078 11.9414C11.9036 11.8893 11.8125 11.8307 11.7344 11.7656C11.6693 11.6875 11.6107 11.5964 11.5586 11.4922C11.5195 11.388 11.5 11.2773 11.5 11.1602C11.5 11.1341 11.5 11.1081 11.5 11.082C11.513 11.056 11.5195 11.0234 11.5195 10.9844V11.0039C11.5195 10.9779 11.526 10.9518 11.5391 10.9258C11.5521 10.8997 11.5651 10.8737 11.5781 10.8477H11.5586C11.5716 10.8216 11.5846 10.7956 11.5977 10.7695C11.6107 10.7435 11.6237 10.724 11.6367 10.7109C11.6497 10.6849 11.6628 10.6654 11.6758 10.6523C11.7018 10.6263 11.7214 10.6003 11.7344 10.5742C11.8125 10.4961 11.9036 10.4375 12.0078 10.3984C12.112 10.3594 12.2227 10.3398 12.3398 10.3398C12.3659 10.3398 12.3919 10.3398 12.418 10.3398C12.444 10.3398 12.4766 10.3464 12.5156 10.3594H12.4961C12.5221 10.3594 12.5482 10.3659 12.5742 10.3789C12.6003 10.3789 12.6263 10.3854 12.6523 10.3984C12.6784 10.4115 12.7044 10.4245 12.7305 10.4375C12.7565 10.4505 12.7826 10.4635 12.8086 10.4766C12.8216 10.4896 12.8346 10.5091 12.8477 10.5352C12.8737 10.5482 12.8997 10.5612 12.9258 10.5742C13.0039 10.6523 13.0625 10.7435 13.1016 10.8477C13.1406 10.9518 13.1602 11.056 13.1602 11.1602C13.1602 11.2253 13.1536 11.2839 13.1406 11.3359C13.1276 11.388 13.1146 11.4401 13.1016 11.4922C13.0755 11.5443 13.0495 11.5964 13.0234 11.6484C12.9974 11.6875 12.9648 11.7266 12.9258 11.7656C12.8997 11.7786 12.8737 11.7917 12.8477 11.8047C12.8346 11.8177 12.8216 11.8372 12.8086 11.8633C12.7826 11.8763 12.7565 11.8893 12.7305 11.9023C12.7044 11.9154 12.6784 11.9284 12.6523 11.9414C12.6263 11.9414 12.6003 11.9479 12.5742 11.9609C12.5482 11.974 12.5221 11.9805 12.4961 11.9805C12.4701 11.9805 12.444 11.987 12.418 12C12.3919 12 12.3659 12 12.3398 12Z" fill="#526484"/>
</svg>
