<svg width="10" height="10" viewBox="0 0 10 10" fill="none" xmlns="http://www.w3.org/2000/svg">
<path d="M8.50391 5.5V8.06641C8.50391 8.46484 8.36328 8.80469 8.08203 9.08594C7.80078 9.35938 7.46094 9.49609 7.0625 9.49609H1.92969C1.53906 9.49609 1.20312 9.35938 0.921875 9.08594C0.640625 8.80469 0.5 8.46484 0.5 8.06641V2.93359C0.5 2.53516 0.640625 2.19922 0.921875 1.92578C1.20312 1.64453 1.53906 1.50391 1.92969 1.50391H4.49609C4.63672 1.50391 4.75391 1.55469 4.84766 1.65625C4.94922 1.75 5 1.86328 5 1.99609C5 2.13672 4.94922 2.25781 4.84766 2.35938C4.75391 2.45312 4.63672 2.5 4.49609 2.5H1.92969C1.8125 2.5 1.71094 2.54297 1.625 2.62891C1.53906 2.71484 1.49609 2.81641 1.49609 2.93359V8.06641C1.49609 8.18359 1.53906 8.28516 1.625 8.37109C1.71094 8.45703 1.8125 8.5 1.92969 8.5H7.0625C7.1875 8.5 7.28906 8.45703 7.36719 8.37109C7.45312 8.28516 7.49609 8.18359 7.49609 8.06641V5.5C7.49609 5.35938 7.54297 5.24219 7.63672 5.14844C7.73828 5.04688 7.85938 4.99609 8 4.99609C8.14062 4.99609 8.25781 5.04688 8.35156 5.14844C8.45312 5.24219 8.50391 5.35938 8.50391 5.5ZM9.46484 0.8125C9.42578 0.71875 9.36328 0.644531 9.27734 0.589844C9.19922 0.527344 9.10547 0.496094 8.99609 0.496094H6.5C6.35938 0.496094 6.23828 0.546875 6.13672 0.648438C6.04297 0.742188 5.99609 0.859375 5.99609 1C5.99609 1.14062 6.04297 1.26172 6.13672 1.36328C6.23828 1.45703 6.35938 1.50391 6.5 1.50391H7.78906L3.65234 5.65234C3.59766 5.69141 3.55469 5.74219 3.52344 5.80469C3.5 5.86719 3.48828 5.93359 3.48828 6.00391C3.48828 6.14453 3.53516 6.26562 3.62891 6.36719C3.73047 6.46094 3.85156 6.50781 3.99219 6.50781C4.0625 6.50781 4.12891 6.49609 4.19141 6.47266C4.25391 6.44141 4.30859 6.40234 4.35547 6.35547L8.50391 2.20703V3.49609C8.50391 3.63672 8.55078 3.75781 8.64453 3.85938C8.74609 3.95312 8.86328 4 8.99609 4C9.13672 4 9.25391 3.95312 9.34766 3.85938C9.44922 3.75781 9.5 3.63672 9.5 3.49609V1C9.5 0.96875 9.49609 0.9375 9.48828 0.90625C9.48047 0.867187 9.47266 0.832031 9.46484 0.800781V0.8125Z" fill="#8091A7"/>
</svg>
