<svg width="12" height="13" viewBox="0 0 12 13" fill="none" xmlns="http://www.w3.org/2000/svg">
<path d="M9.38203 0.00507781H2.61797C2.07969 0.00507781 1.61758 0.198047 1.23164 0.583984C0.855859 0.959765 0.667969 1.4168 0.667969 1.95508V11.05C0.667969 11.5883 0.855859 12.0504 1.23164 12.4363C1.61758 12.8121 2.07969 13 2.61797 13H9.38203C9.92031 13 10.3773 12.8121 10.7531 12.4363C11.1391 12.0504 11.332 11.5883 11.332 11.05V1.95508C11.332 1.4168 11.1391 0.959765 10.7531 0.583984C10.3773 0.198047 9.92031 0.00507781 9.38203 0.00507781ZM10.0371 11.05C10.0371 11.2328 9.97109 11.3902 9.83906 11.5223C9.71719 11.6441 9.56484 11.7051 9.38203 11.7051H2.61797C2.55703 11.6949 2.49609 11.6797 2.43516 11.6594C2.37422 11.6391 2.31836 11.6137 2.26758 11.5832L3.92812 9.84648L4.96406 10.9281C5.00469 10.9789 5.05547 11.0195 5.11641 11.05C5.17734 11.0703 5.24336 11.0805 5.31445 11.0805C5.37539 11.0805 5.43125 11.0703 5.48203 11.05C5.54297 11.0297 5.59375 10.9992 5.63437 10.9586L8.07188 8.88672L7.96523 9.61797C7.96523 9.62812 7.96523 9.63828 7.96523 9.64844C7.96523 9.65859 7.96523 9.66875 7.96523 9.67891C7.96523 9.80078 8.00586 9.90742 8.08711 9.99883C8.16836 10.0902 8.26992 10.1461 8.3918 10.1664C8.40195 10.1664 8.41211 10.1664 8.42227 10.1664C8.43242 10.1664 8.44258 10.1664 8.45273 10.1664C8.57461 10.1664 8.68125 10.1258 8.77266 10.0445C8.86406 9.96328 8.91992 9.86172 8.94023 9.73984L9.19922 7.78984C9.19922 7.77969 9.19922 7.76953 9.19922 7.75937C9.19922 7.74922 9.19922 7.73906 9.19922 7.72891C9.19922 7.60703 9.15859 7.50039 9.07734 7.40898C8.99609 7.31758 8.89961 7.26172 8.78789 7.24141H8.77266L6.82266 6.98242C6.8125 6.98242 6.80234 6.98242 6.79219 6.98242C6.78203 6.98242 6.7668 6.98242 6.74648 6.98242C6.61445 6.98242 6.49766 7.02812 6.39609 7.11953C6.30469 7.21094 6.25898 7.32773 6.25898 7.46992C6.25898 7.5918 6.29961 7.69844 6.38086 7.78984C6.47227 7.88125 6.57891 7.93711 6.70078 7.95742L7.52344 8.06406L5.34492 9.92266L4.27852 8.79531C4.23789 8.75469 4.18711 8.72422 4.12617 8.70391C4.06523 8.67344 3.99922 8.6582 3.92812 8.6582C3.85703 8.6582 3.79102 8.67344 3.73008 8.70391C3.66914 8.72422 3.61836 8.75469 3.57773 8.79531L1.96289 10.4863V1.95508C1.96289 1.77227 2.02383 1.61992 2.1457 1.49805C2.27773 1.36602 2.43516 1.3 2.61797 1.3H9.38203C9.56484 1.3 9.71719 1.36602 9.83906 1.49805C9.97109 1.61992 10.0371 1.77227 10.0371 1.95508V11.05ZM8.60508 3.25C8.60508 3.43281 8.53906 3.59023 8.40703 3.72227C8.28516 3.84414 8.13281 3.90508 7.95 3.90508H4.05C3.86719 3.90508 3.70977 3.84414 3.57773 3.72227C3.45586 3.59023 3.39492 3.43281 3.39492 3.25C3.39492 3.06719 3.45586 2.91484 3.57773 2.79297C3.70977 2.66094 3.86719 2.59492 4.05 2.59492H7.95C8.13281 2.59492 8.28516 2.66094 8.40703 2.79297C8.53906 2.91484 8.60508 3.06719 8.60508 3.25ZM6 5.85508C6 6.02773 5.93398 6.18008 5.80195 6.31211C5.68008 6.43398 5.52773 6.49492 5.34492 6.49492H4.05C3.86719 6.49492 3.70977 6.43398 3.57773 6.31211C3.45586 6.18008 3.39492 6.02773 3.39492 5.85508C3.39492 5.67227 3.45586 5.51992 3.57773 5.39805C3.70977 5.26602 3.86719 5.2 4.05 5.2H5.34492C5.52773 5.2 5.68008 5.26602 5.80195 5.39805C5.93398 5.51992 6 5.67227 6 5.85508Z" fill="white"/>
</svg>
